<?xml version="1.0" standalone="no"?>
<!DOCTYPE svg PUBLIC "-//W3C//DTD SVG 1.1//EN" "http://www.w3.org/Graphics/SVG/1.1/DTD/svg11.dtd" >
<svg xmlns="http://www.w3.org/2000/svg">
<metadata>Generated by IcoMoon</metadata>
<defs>
<font id="icomoon" horiz-adv-x="1024">
<font-face units-per-em="1024" ascent="960" descent="-64" />
<missing-glyph horiz-adv-x="1024" />
<glyph unicode="&#x20;" horiz-adv-x="512" d="" />
<glyph unicode="&#xe900;" glyph-name="git" d="M342.494 135.475c0-4.233-4.756-7.623-10.741-7.623-6.827-0.637-11.56 2.753-11.56 7.623 0 4.233 4.756 7.623 10.741 7.623 6.212 0.637 11.56-2.753 11.56-7.623zM278.278 145.010c-1.456-4.233 2.685-9.102 8.875-10.377 1.24-0.628 2.704-0.996 4.254-0.996 3.703 0 6.915 2.101 8.51 5.175l0.025 0.053c1.229 4.233-2.685 9.102-8.875 11.014-1.055 0.391-2.274 0.617-3.546 0.617-3.96 0-7.407-2.194-9.193-5.433l-0.027-0.054zM369.527 148.605c-5.985-1.479-10.126-5.507-9.489-10.377 0.614-4.233 5.985-6.986 12.174-5.507s10.126 5.507 9.489 9.739-6.235 6.781-12.151 6.144zM505.401 960c-286.356 0-505.401-223.004-505.401-516.551-0.039-2.391-0.061-5.213-0.061-8.040 0-228.15 144.141-422.635 346.324-497.356l3.672-1.188c26.419-4.87 35.726 11.856 35.726 25.623 0 13.13-0.614 85.538-0.614 130.002 0 0-144.521-31.858-174.854 63.101 0 0-23.529 61.622-57.39 77.505 0 0-47.286 33.246 3.3 32.609 34.41-4.983 63.18-25.495 79.363-54.074l0.281-0.54c45.215-81.738 120.991-58.231 150.505-44.26 2.779 27.955 14.864 52.662 33.068 71.389l-0.027-0.028c-115.393 13.107-231.834 30.265-231.834 233.95-0.14 2.525-0.22 5.479-0.22 8.452 0 45.549 18.731 86.724 48.91 116.242l0.030 0.029c-6.655 19.315-10.498 41.572-10.498 64.727 0 28.532 5.834 55.7 16.375 80.379l-0.507-1.336c43.236 13.653 142.45-57.162 142.45-57.162 38.867 11.435 83.518 18.014 129.707 18.014s90.84-6.579 133.069-18.851l-3.363 0.837s99.305 71.157 142.45 57.162c10.033-23.342 15.868-50.511 15.868-79.042 0-23.155-3.843-45.412-10.925-66.169l0.427 1.442c33.041-37.478 53.271-66.697 53.271-124.723 0-204.322-121.606-220.729-236.999-233.973 21.967-22.787 35.501-53.836 35.501-88.045 0-3.595-0.149-7.155-0.442-10.674l0.031 0.46c0-71.361-0.614-159.653-0.614-177.015 0-13.653 9.489-30.492 35.726-25.623 206.325 70.315 346.294 271.246 346.294 506.175 0.011 1.242 0.017 2.71 0.017 4.179 0 282.996-229.414 512.41-512.41 512.41-2.182 0-4.361-0.014-6.537-0.041l0.33 0.003zM200.681 229.706c-2.685-2.116-2.071-6.986 1.456-11.014 3.3-3.391 8.055-4.87 10.741-2.116 2.685 2.116 2.071 6.986-1.456 11.014-3.322 3.391-8.078 4.87-10.741 2.116zM178.381 246.864c-1.456-2.753 0.614-6.144 4.756-8.26 1.024-0.822 2.34-1.319 3.772-1.319 2.135 0 4.011 1.105 5.089 2.774l0.014 0.024c1.456 2.753-0.614 6.144-4.756 8.26-4.142 1.252-7.487 0.637-8.875-1.479zM245.282 171.474c-3.3-2.753-2.071-9.102 2.685-13.13 4.756-4.87 10.741-5.507 13.426-2.116 2.685 2.753 1.456 9.102-2.685 13.13-4.574 4.87-10.672 5.575-13.449 2.116zM221.73 202.604c-3.3-2.116-3.3-7.623 0-12.493s8.875-6.986 11.56-4.87c1.56 1.733 2.513 4.037 2.513 6.565s-0.954 4.832-2.521 6.574l0.008-0.009c-2.89 4.87-8.26 6.986-11.56 4.233z" />
<glyph unicode="&#xe901;" glyph-name="Insta" d="M512.114 710.531c-0.014 0-0.030 0-0.046 0-144.992 0-262.531-117.539-262.531-262.531s117.539-262.531 262.531-262.531c144.992 0 262.531 117.539 262.531 262.531v0c0 0.128 0 0.28 0 0.433 0 144.753-117.345 262.098-262.098 262.098-0.136 0-0.272 0-0.408 0h0.021zM512.114 277.311c-94.257 0-170.667 76.41-170.667 170.667s76.41 170.667 170.667 170.667c94.257 0 170.667-76.41 170.667-170.667v0c-0.181-94.184-76.483-170.486-170.649-170.667h-0.017zM846.62 721.271c-0.013-33.797-27.414-61.19-61.212-61.19-33.807 0-61.212 27.406-61.212 61.212s27.406 61.212 61.212 61.212v0c0.014 0 0.030 0 0.046 0 33.744 0 61.099-27.355 61.099-61.099 0-0.048 0-0.096 0-0.144v0.007zM1020.473 659.126c-3.891 81.92-22.619 154.738-82.694 214.562s-132.506 78.598-214.517 82.716c-84.514 4.801-337.874 4.801-422.389 0-81.783-3.891-154.419-22.619-214.517-82.489s-78.643-132.528-82.762-214.562c-4.801-84.537-4.801-337.943 0-422.48 3.891-81.92 22.619-154.738 82.694-214.562s132.506-78.598 214.517-82.716c84.514-4.801 337.874-4.801 422.389 0 81.92 3.891 154.738 22.619 214.517 82.716s78.575 132.528 82.694 214.562c4.801 84.537 4.801 337.715 0 422.252zM911.246 146.148c-17.942-44.666-52.665-79.396-96.165-96.935l-1.161-0.413c-67.402-26.738-227.305-20.48-301.784-20.48s-234.61-5.939-301.784 20.48c-44.66 17.952-79.383 52.682-96.912 96.187l-0.413 1.161c-26.738 67.402-20.48 227.351-20.48 301.852s-5.939 234.655 20.48 301.852c17.942 44.666 52.665 79.396 96.165 96.935l1.161 0.413c67.402 26.738 227.305 20.48 301.784 20.48s234.61 5.939 301.784-20.48c44.66-17.952 79.383-52.682 96.912-96.187l0.413-1.161c26.738-67.402 20.48-227.351 20.48-301.852s6.212-234.655-20.526-301.852z" />
<glyph unicode="&#xe902;" horiz-adv-x="976" d="M358.922 822.229c170.967 65.628 590.226-260.043 559.034-434.22s-544.153-371.084-683.904-262.526-46.103 631.116 124.87 696.747z" />
<glyph unicode="&#xe903;" glyph-name="linkedIn" d="M229.222-64h-212.314v683.683h212.291zM122.883 712.937c-0.196-0.001-0.427-0.002-0.659-0.002-68.231 0-123.543 55.312-123.543 123.543s55.312 123.543 123.543 123.543c68.030 0 123.217-54.987 123.541-122.941v-0.031c0-0.035 0-0.077 0-0.119 0-68.090-54.882-123.362-122.823-123.992h-0.060zM1023.795-64h-211.836v332.807c0 79.305-1.593 181.024-110.39 181.024-110.39 0-127.297-86.177-127.297-175.222v-338.61h-212.064v683.683h203.621v-93.3h3.072c39.399 66.602 110.859 110.566 192.587 110.566 2.912 0 5.811-0.056 8.696-0.166l-0.416 0.013c214.749 0.023 254.253-141.474 254.253-325.252v-375.475z" />
<glyph unicode="&#xe904;" glyph-name="mail" horiz-adv-x="1365" d="M1339.445 621.87c2.685 2.090 6.106 3.35 9.821 3.35 8.816 0 15.973-7.099 16.068-15.892v-545.355c-0.030-70.666-57.308-127.944-127.971-127.974h-1109.336c-70.688 0-127.996 57.289-128.026 127.971v545.086c-0.005 0.148-0.008 0.322-0.008 0.496 0 8.701 7.053 15.754 15.754 15.754 3.874 0 7.422-1.399 10.166-3.719l-0.023 0.019c59.707-46.421 138.949-105.341 410.913-302.946 56.241-41.065 151.342-127.449 245.865-126.923 95.206-0.788 191.987 87.486 246.128 126.923 272.016 197.606 350.943 256.788 410.65 303.209zM682.667 277.333c61.86-1.050 150.922 77.877 195.715 110.277 353.884 256.788 380.823 279.211 462.375 343.224 15.018 11.785 24.577 29.936 24.577 50.32 0 0.106 0 0.212-0.001 0.319v-0.016 50.675c-0.090 70.621-57.345 127.839-127.971 127.869h-1109.336c-70.707 0-128.026-57.319-128.026-128.026v-50.517c0.023-20.396 9.55-38.561 24.39-50.31l0.134-0.102c81.605-63.751 108.544-86.384 462.375-343.224 44.846-32.61 133.908-111.537 195.768-110.487z" />
<glyph unicode="&#xe905;" glyph-name="menu" horiz-adv-x="5283" d="M906.398-43.922l-2.868 532.078-258.151-433.12h-126.207l-256.717 418.779v-517.737h-262.454v1003.922h233.77l352.807-579.406 344.202 579.406h233.77l2.868-1003.922zM2679.036 171.204v-219.429l-1167.417 4.303v1003.922h1167.417v-219.429h-1167.417v-169.232h1167.417v-212.258h-1167.417v-187.877zM4004.213 960v-1003.922h-233.77l-443.16 534.947v-534.947h-278.23v1003.922h233.77l443.16-534.947v534.947zM4811.653-64c-8.685-0.566-18.83-0.889-29.051-0.889-122.845 0-234.8 46.627-319.133 123.148l0.396-0.354c-77.425 82.517-124.986 193.858-124.986 316.307 0 10.319 0.338 20.559 1.003 30.71l-0.072-1.381v556.459h283.966v-547.854q0-240.941 190.745-240.941 189.311 0 189.311 240.941v547.854h279.664v-556.459c0.593-8.77 0.93-19.010 0.93-29.329 0-122.449-47.561-233.789-125.218-316.555l0.231 0.249c-83.937-76.167-195.892-122.794-318.737-122.794-10.221 0-20.366 0.323-30.426 0.959l1.376-0.070z" />
<glyph unicode="&#xe906;" horiz-adv-x="640" d="M0 192v-160.009c0-53.014 42.976-95.991 95.991-95.991v0h448.019c53.014 0 95.991 42.976 95.991 95.991v160.009zM320.019-0.019c-35.357 0-64.019 28.662-64.019 64.019s28.662 64.019 64.019 64.019c35.357 0 64.019-28.662 64.019-64.019 0-0.013 0-0.027 0-0.040v0.002c-0.022-35.34-28.676-63.981-64.019-63.981v0z" />
<glyph unicode="&#xe907;" horiz-adv-x="640" d="M0 192v672.009c0 53.014 42.976 95.991 95.991 95.991v0h448.019c53.014 0 95.991-42.976 95.991-95.991v0-672.009z" />
<glyph unicode="&#xe908;" horiz-adv-x="976" d="M154.002 348.905l339.354 56.89c11.058 1.886 19.374 11.389 19.393 22.838v72.774c-0.019 11.451-8.335 20.954-19.256 22.821l-0.137 0.019-339.354 56.947c-1.169 0.208-2.514 0.328-3.888 0.328-12.805 0-23.191-10.361-23.23-23.158v-186.626c0.039-12.8 10.424-23.161 23.23-23.161 1.373 0 2.719 0.119 4.027 0.348l-0.139-0.020z" />
<glyph unicode="&#xe909;" horiz-adv-x="976" d="M860.875 348.905l-339.361 56.89c-11.058 1.886-19.374 11.389-19.393 22.838v72.774c0.019 11.451 8.335 20.954 19.256 22.821l0.137 0.019 339.361 56.954c1.169 0.208 2.514 0.328 3.888 0.328 12.808 0 23.194-10.365 23.23-23.164v-186.625c-0.034-12.8-10.419-23.163-23.223-23.163-1.376 0-2.723 0.12-4.033 0.349l0.139-0.020z" />
<glyph unicode="&#xe90a;" horiz-adv-x="976" d="M126.885 462.928v-91.189c0.031-12.803 10.416-23.169 23.223-23.169 1.376 0 2.723 0.12 4.033 0.349l-0.139-0.020 339.354 56.915c11.058 1.886 19.374 11.389 19.393 22.838v34.275z" />
<glyph unicode="&#xe90b;" horiz-adv-x="976" d="M502.121 462.928v-34.273c0.019-11.451 8.335-20.954 19.256-22.821l0.137-0.019 339.361-56.909c1.171-0.209 2.518-0.329 3.894-0.329 12.807 0 23.192 10.367 23.223 23.166v91.185z" />
<glyph unicode="&#xe90c;" horiz-adv-x="976" d="M367.461 298.82c-1.957 1.634-3.193 4.075-3.193 6.805 0 4.886 3.961 8.848 8.848 8.848s8.848-3.961 8.848-8.848c0-4.886-3.96-8.847-8.846-8.848v0c-0.010 0-0.022 0-0.034 0-2.146 0-4.112 0.772-5.636 2.054l0.013-0.011zM634.075 300.371c-1.313 1.535-2.112 3.544-2.112 5.739 0 4.89 3.964 8.854 8.854 8.854s8.854-3.964 8.854-8.854c0-4.888-3.961-8.851-8.849-8.854v0c-0.014 0-0.030 0-0.046 0-2.682 0-5.083 1.205-6.69 3.103l-0.011 0.013zM340.65 325.414c-1.318 1.537-2.121 3.551-2.121 5.752 0 4.893 3.967 8.86 8.86 8.86s8.86-3.967 8.86-8.86c0-4.891-3.963-8.856-8.852-8.86v0c-0.017 0-0.037 0-0.058 0-2.677 0-5.074 1.202-6.679 3.096l-0.011 0.013zM660.784 324.903c-1.955 1.633-3.189 4.072-3.189 6.798 0 4.883 3.958 8.841 8.841 8.841s8.841-3.958 8.841-8.841c0-4.882-3.956-8.839-8.837-8.841v0c-0.009 0-0.019 0-0.029 0-2.148 0-4.115 0.772-5.64 2.054l0.013-0.011zM318.863 356.215c-0.755 1.273-1.201 2.806-1.201 4.443 0 4.869 3.947 8.816 8.816 8.816s8.816-3.947 8.816-8.816c0-4.864-3.939-8.808-8.801-8.816h-0.001c-0.013 0-0.028 0-0.043 0-3.223 0-6.040 1.74-7.563 4.332l-0.022 0.041zM682.852 353.661c-2.639 1.539-4.384 4.356-4.384 7.58 0 1.624 0.443 3.145 1.214 4.449l-0.022-0.041c1.548 2.648 4.377 4.398 7.614 4.398 4.855 0 8.79-3.935 8.79-8.79s-3.935-8.79-8.79-8.79c-1.629 0-3.155 0.443-4.464 1.216l0.041-0.022zM302.777 390.303c-0.345 0.907-0.545 1.955-0.545 3.050 0 4.865 3.944 8.809 8.809 8.809s8.809-3.944 8.809-8.809c0-3.771-2.37-6.989-5.701-8.245l-0.061-0.020c-0.905-0.343-1.951-0.542-3.043-0.542-3.771 0-6.988 2.367-8.248 5.697l-0.020 0.061zM699.583 385.783c-3.471 1.257-5.906 4.526-5.906 8.362 0 4.9 3.973 8.873 8.873 8.873s8.873-3.973 8.873-8.873c0-4.891-3.957-8.858-8.845-8.873h-0.001c-1.076 0-2.107 0.192-3.062 0.543l0.062-0.020zM292.953 426.689c-0.090 0.473-0.142 1.018-0.142 1.574 0 4.865 3.944 8.809 8.809 8.809s8.809-3.944 8.809-8.809c0-4.319-3.108-7.912-7.209-8.664l-0.054-0.008c-0.466-0.092-1.002-0.145-1.55-0.147h-0.001c-0.009 0-0.019 0-0.029 0-4.317 0-7.909 3.105-8.663 7.204l-0.008 0.054zM710.435 420.337c-4.193 0.74-7.338 4.357-7.338 8.707 0 4.879 3.955 8.835 8.835 8.835s8.835-3.955 8.835-8.835c0-4.871-3.943-8.822-8.811-8.835h-0.001c-0.556 0.005-1.097 0.056-1.623 0.149l0.059-0.009zM289.569 464.224v0.543c0.132 4.766 4.027 8.578 8.812 8.578s8.68-3.813 8.812-8.566v-0.012c0-0.083 0-0.179 0-0.255s0-0.16 0-0.236c-0.12-4.776-4.019-8.602-8.813-8.602-4.778 0-8.668 3.801-8.812 8.544v0.013zM706.177 465.022c0 0.002 0 0.004 0 0.006 0 4.862 3.941 8.803 8.803 8.803s8.803-3.941 8.803-8.803c0-4.857-3.934-8.796-8.789-8.803h-0.001c-0.011 0-0.025 0-0.038 0-4.848 0-8.777 3.93-8.777 8.777 0 0.005 0 0.009 0 0.014v-0.001zM299.981 492.132c-4.21 0.742-7.367 4.372-7.367 8.739 0 4.897 3.97 8.867 8.867 8.867s8.867-3.97 8.867-8.867c0-4.883-3.948-8.845-8.826-8.867h-0.002c-0.546 0.003-1.078 0.049-1.597 0.136l0.058-0.008zM703.151 499.505c-0.088 0.468-0.138 1.006-0.138 1.555 0 4.865 3.944 8.809 8.809 8.809s8.809-3.944 8.809-8.809c0-4.32-3.11-7.914-7.212-8.665l-0.054-0.008c-0.461-0.078-0.993-0.125-1.535-0.128h-0.003c-0.002 0-0.004 0-0.006 0-4.312 0-7.901 3.099-8.661 7.191l-0.008 0.054zM307.852 527.465c-3.403 1.249-5.786 4.461-5.786 8.23 0 1.079 0.195 2.112 0.552 3.066l-0.020-0.060c1.256 3.427 4.49 5.828 8.285 5.828 4.862 0 8.803-3.941 8.803-8.803 0-4.857-3.933-8.795-8.789-8.803h-0.001c-0.004 0-0.009 0-0.014 0-1.088 0-2.13 0.199-3.092 0.563l0.060-0.020zM694.125 532.942c-0.356 0.922-0.562 1.988-0.562 3.102 0 4.886 3.961 8.848 8.848 8.848s8.848-3.961 8.848-8.848c0-4.882-3.954-8.84-8.834-8.848h-0.001c-0.025 0-0.054 0-0.084 0-3.753 0-6.954 2.364-8.195 5.685l-0.020 0.060zM321.825 560.883c-2.657 1.554-4.413 4.392-4.413 7.641 0 4.872 3.95 8.822 8.822 8.822s8.822-3.95 8.822-8.822c0-4.872-3.95-8.822-8.822-8.822-0.002 0-0.003 0-0.005 0v0c-0.004 0-0.009 0-0.014 0-1.617 0-3.132 0.439-4.432 1.203l0.041-0.022zM679.386 564.285c-0.745 1.265-1.186 2.787-1.186 4.412 0 4.862 3.941 8.803 8.803 8.803s8.803-3.941 8.803-8.803c0-3.228-1.737-6.049-4.327-7.582l-0.041-0.022c-1.267-0.742-2.791-1.18-4.416-1.18-3.238 0-6.069 1.738-7.613 4.331l-0.022 0.041zM341.404 591.364c-1.934 1.629-3.154 4.052-3.154 6.76 0 4.872 3.95 8.822 8.822 8.822s8.822-3.95 8.822-8.822c0-4.87-3.946-8.818-8.815-8.822v0c-2.166 0.002-4.15 0.781-5.689 2.073l0.014-0.011zM659.386 592.609c-1.28 1.517-2.057 3.495-2.057 5.653 0 4.858 3.938 8.796 8.796 8.796s8.796-3.938 8.796-8.796c0-2.689-1.206-5.096-3.107-6.709l-0.013-0.010c-1.523-1.281-3.507-2.059-5.671-2.059-2.697 0-5.113 1.208-6.734 3.112l-0.010 0.012zM365.999 618.016c-1.289 1.514-2.073 3.492-2.073 5.654 0 2.693 1.217 5.102 3.132 6.706l0.014 0.011c1.522 1.276 3.501 2.051 5.662 2.051 2.702 0 5.122-1.213 6.744-3.123l0.011-0.013c1.194-1.489 1.916-3.4 1.916-5.48 0-4.858-3.938-8.796-8.796-8.796-2.632 0-4.993 1.156-6.606 2.987l-0.008 0.010zM634.746 617.071c-1.919 1.624-3.129 4.035-3.129 6.727 0 4.858 3.938 8.796 8.796 8.796s8.796-3.938 8.796-8.796c0-2.154-0.774-4.127-2.059-5.656l0.011 0.013c-1.637-1.918-4.056-3.126-6.757-3.126-2.158 0-4.136 0.771-5.673 2.052l0.014-0.012zM394.827 640.039c-0.745 1.265-1.186 2.787-1.186 4.412 0 4.862 3.941 8.803 8.803 8.803s8.803-3.941 8.803-8.803c0-3.228-1.737-6.049-4.327-7.582l-0.041-0.022c-1.268-0.745-2.793-1.185-4.421-1.185-3.237 0-6.068 1.74-7.609 4.336l-0.022 0.041zM606.288 636.943c-2.739 1.526-4.56 4.405-4.56 7.709 0 4.858 3.938 8.796 8.796 8.796 1.699 0 3.285-0.482 4.63-1.316l-0.038 0.022c2.638-1.551 4.38-4.375 4.38-7.606 0-4.857-3.937-8.794-8.794-8.794-1.626 0-3.149 0.441-4.455 1.211l0.041-0.022zM427.051 656.732c-0.34 0.901-0.538 1.942-0.538 3.029 0 4.862 3.941 8.803 8.803 8.803s8.803-3.941 8.803-8.803c0-3.773-2.373-6.991-5.709-8.244l-0.061-0.020c-0.901-0.33-1.941-0.522-3.025-0.523h-0.001c-0.003 0-0.006 0-0.009 0-3.77 0-6.986 2.368-8.244 5.697l-0.020 0.061zM574.785 651.561c-3.425 1.262-5.823 4.497-5.823 8.292 0 4.869 3.947 8.816 8.816 8.816s8.816-3.947 8.816-8.816c0-4.868-3.946-8.815-8.814-8.816v0c-0.012 0-0.027 0-0.042 0-1.060 0-2.074 0.192-3.012 0.543l0.059-0.019zM461.707 667.564c-0.088 0.468-0.138 1.006-0.138 1.555 0 4.865 3.944 8.809 8.809 8.809s8.809-3.944 8.809-8.809c0-4.32-3.11-7.914-7.212-8.665l-0.054-0.008c-0.462-0.093-0.994-0.146-1.538-0.147h-0.001c-0.001 0-0.002 0-0.002 0-4.319 0-7.912 3.109-8.665 7.21l-0.008 0.054zM541.201 660.498c-4.193 0.741-7.338 4.357-7.338 8.707 0 4.879 3.955 8.835 8.835 8.835s8.835-3.955 8.835-8.835c0-4.869-3.939-8.818-8.804-8.835h-0.002c-0.541 0.003-1.069 0.049-1.583 0.136l0.058-0.008zM497.749 672.244c0 0.002 0 0.004 0 0.006 0 4.862 3.941 8.803 8.803 8.803s8.803-3.941 8.803-8.803c0-4.862-3.941-8.803-8.803-8.803-0.004 0-0.009 0-0.013 0h0.001c-0.006 0-0.012 0-0.019 0-4.848 0-8.777 3.93-8.777 8.777 0 0 0 0 0 0v0z" />
<glyph unicode="&#xe90d;" horiz-adv-x="976" d="M625.323-33.691h-237.288l28.164 474.053h180.986z" />
<glyph unicode="&#xe90e;" horiz-adv-x="976" d="M395.561 92.964l-7.526-126.655h237.288l-19.942 335.639z" />
<glyph unicode="&#xe90f;" horiz-adv-x="976" d="M405.034 252.438l199.421 65.163-2.822 47.493-193.67-63.28z" />
<glyph unicode="&#xe910;" horiz-adv-x="976" d="M397.515 125.91l214.167 69.976-2.822 47.493-208.409-68.093z" />
<glyph unicode="&#xe911;" horiz-adv-x="976" d="M608.867 243.386l-92.689-30.283-72.351-72.064 167.887 54.847z" />
<glyph unicode="&#xe912;" horiz-adv-x="976" d="M390.001-0.618l228.913 74.796-2.796 47.5-223.187-72.919z" />
<glyph unicode="&#xe913;" horiz-adv-x="976" d="M384.741 472.695h243.876v-105.175h-243.876v105.175z" />
<glyph unicode="&#xe914;" horiz-adv-x="976" d="M406.413 464.76s32.077 67.155 100.266 67.155c69.114 0 100.266-67.155 100.266-67.155s-32.69-67.148-100.266-67.148-100.266 67.148-100.266 67.148z" />
<glyph unicode="&#xe915;" horiz-adv-x="976" d="M563.754 464.76c0-31.395-25.553-56.845-57.075-56.845s-57.075 25.45-57.075 56.845c0 31.395 25.553 56.845 57.075 56.845s57.075-25.45 57.075-56.845z" />
<glyph unicode="&#xe916;" horiz-adv-x="976" d="M548.67 503.221l-80.605-80.311c10.105-9.311 23.654-15.020 38.537-15.020 31.451 0 56.947 25.496 56.947 56.947 0 14.809-5.653 28.298-14.918 38.427l0.039-0.043z" />
<glyph unicode="&#xe917;" horiz-adv-x="976" d="M527.873 464.76c0-11.659-9.489-21.11-21.193-21.11s-21.193 9.451-21.193 21.11c0 11.659 9.489 21.11 21.193 21.11s21.193-9.451 21.193-21.11z" />
<glyph unicode="&#xe918;" horiz-adv-x="976" d="M506.047 472.133c0-3.526-2.858-6.384-6.384-6.384s-6.384 2.858-6.384 6.384c0 3.526 2.858 6.384 6.384 6.384s6.384-2.858 6.384-6.384z" />
<glyph unicode="&#xe919;" horiz-adv-x="976" d="M347.321-1.033h318.723v-62.961h-318.723v62.961z" />
<glyph unicode="&#xe91a;" horiz-adv-x="976" d="M666.038-1.033h-92.727l-63.197-62.967h155.949z" />
<glyph unicode="&#xe91b;" horiz-adv-x="1059" d="M211.741 646.080c100.86 149.532 623.096 123.631 696.327-34.515s-229.385-606.793-403.463-598.158-393.729 483.136-292.865 632.673z" />
<glyph unicode="&#xe91c;" horiz-adv-x="1059" d="M945.165 595.234h-536.388c-34.723 0-62.872-28.149-62.872-62.872v0-407.726h593.96c34.723 0 62.872 28.149 62.872 62.872v0 350.041c0 0.035 0 0.077 0 0.119 0 31.793-25.773 57.566-57.566 57.566-0.002 0-0.005 0-0.007 0v0z" />
<glyph unicode="&#xe91d;" horiz-adv-x="1059" d="M378.22 505.163c0 0.034 0 0.073 0 0.113 0 31.015 25.143 56.157 56.157 56.157 0.002 0 0.004 0 0.007 0h506.385v-398.289h-562.706z" />
<glyph unicode="&#xe91e;" horiz-adv-x="1059" d="M935.281 555.939l-433.913-385.878h433.913z" />
<glyph unicode="&#xe91f;" horiz-adv-x="1059" d="M757.416 615.668h-38.151c-0.528 25.503-21.326 45.975-46.906 45.975s-46.378-20.472-46.905-45.925l-0.001-0.049h-36.24c-0.004 0-0.008 0-0.013 0-6.403 0-11.594-5.191-11.594-11.594 0-0.013 0-0.027 0-0.040v0.002-60.672c0-0.011 0-0.024 0-0.038 0-6.403 5.191-11.594 11.594-11.594 0.004 0 0.009 0 0.013 0h168.013c0.004 0 0.008 0 0.013 0 6.403 0 11.594 5.191 11.594 11.594 0 0.013 0 0.027 0 0.040v-0.002 60.672c0.002 0.079 0.003 0.171 0.003 0.264 0 6.278-5.089 11.367-11.367 11.367-0.019 0-0.038 0-0.056 0h0.003zM672.538 602.458c-0.007 0-0.016 0-0.025 0-6.771 0-12.26 5.489-12.26 12.26s5.489 12.26 12.26 12.26c6.771 0 12.26-5.489 12.26-12.26v0c-0.004-6.761-5.476-12.242-12.233-12.26h-0.002z" />
<glyph unicode="&#xe920;" horiz-adv-x="1059" d="M483.475 489.867h48.525c3.354-0.014 6.067-2.736 6.067-6.092 0-0.009 0-0.018 0-0.027v0.001-24.482c0-0.007 0-0.016 0-0.025 0-3.356-2.713-6.078-6.066-6.092h-48.526c-3.354 0.014-6.067 2.736-6.067 6.092 0 0.009 0 0.018 0 0.027v-0.001 24.482c0 0.007 0 0.016 0 0.025 0 3.356 2.713 6.078 6.066 6.092h0.001z" />
<glyph unicode="&#xe921;" horiz-adv-x="1059" d="M483.475 367.461h48.525c3.354-0.014 6.067-2.736 6.067-6.092 0-0.009 0-0.018 0-0.027v0.001-24.501c0-0.007 0-0.016 0-0.025 0-3.356-2.713-6.078-6.066-6.092h-48.526c-3.354 0.014-6.067 2.736-6.067 6.092 0 0.009 0 0.018 0 0.027v-0.001 24.52c0 0.002 0 0.004 0 0.006 0 3.356 2.713 6.078 6.066 6.092h0.001z" />
<glyph unicode="&#xe922;" horiz-adv-x="1059" d="M629.056 489.867h48.537c3.354-0.014 6.067-2.736 6.067-6.092 0-0.009 0-0.018 0-0.027v0.001-24.482c0-0.006 0-0.012 0-0.019 0-3.356-2.713-6.078-6.066-6.092h-48.538c-3.354 0.014-6.067 2.736-6.067 6.092 0 0.009 0 0.018 0 0.027v-0.001 24.476c0 0.007 0 0.016 0 0.025 0 3.356 2.713 6.078 6.066 6.092h0.001z" />
<glyph unicode="&#xe923;" horiz-adv-x="1059" d="M774.636 489.867h48.525c3.354-0.014 6.067-2.736 6.067-6.092 0-0.009 0-0.018 0-0.027v0.001-24.482c0-0.007 0-0.016 0-0.025 0-3.356-2.713-6.078-6.066-6.092h-48.526c-3.354 0.014-6.067 2.736-6.067 6.092 0 0.009 0 0.018 0 0.027v-0.001 24.482c0 0.007 0 0.016 0 0.025 0 3.356 2.713 6.078 6.066 6.092h0.001z" />
<glyph unicode="&#xe924;" horiz-adv-x="1059" d="M774.636 367.461h48.525c3.354-0.014 6.067-2.736 6.067-6.092 0-0.009 0-0.018 0-0.027v0.001-24.501c0-0.007 0-0.016 0-0.025 0-3.356-2.713-6.078-6.066-6.092h-48.526c-3.354 0.014-6.067 2.736-6.067 6.092 0 0.009 0 0.018 0 0.027v-0.001 24.52c0 0.002 0 0.004 0 0.006 0 3.356 2.713 6.078 6.066 6.092h0.001z" />
<glyph unicode="&#xe925;" horiz-adv-x="1059" d="M629.056 367.461h48.537c3.354-0.014 6.067-2.736 6.067-6.092 0-0.009 0-0.018 0-0.027v0.001-24.501c0-0.007 0-0.016 0-0.025 0-3.356-2.713-6.078-6.066-6.092h-48.538c-3.354 0.014-6.067 2.736-6.067 6.092 0 0.009 0 0.018 0 0.027v-0.001 24.52c0 0.002 0 0.004 0 0.006 0 3.356 2.713 6.078 6.066 6.092h0.001z" />
<glyph unicode="&#xe926;" horiz-adv-x="1059" d="M483.475 245.048h48.525c3.354-0.014 6.067-2.736 6.067-6.092 0-0.009 0-0.018 0-0.027v0.001-24.482c0-0.007 0-0.016 0-0.025 0-3.356-2.713-6.078-6.066-6.092h-48.526c-3.354 0.014-6.067 2.736-6.067 6.092 0 0.009 0 0.018 0 0.027v-0.001 24.482c0 0.007 0 0.016 0 0.025 0 3.356 2.713 6.078 6.066 6.092h0.001z" />
<glyph unicode="&#xe927;" horiz-adv-x="1059" d="M483.475 489.867h30.33c3.354-0.014 6.067-2.736 6.067-6.092 0-0.009 0-0.018 0-0.027v0.001-24.482c0-0.007 0-0.016 0-0.025 0-3.356-2.713-6.078-6.066-6.092h-30.331c-3.354 0.014-6.067 2.736-6.067 6.092 0 0.009 0 0.018 0 0.027v-0.001 24.482c0 0.007 0 0.016 0 0.025 0 3.356 2.713 6.078 6.066 6.092h0.001z" />
<glyph unicode="&#xe928;" horiz-adv-x="1059" d="M483.475 367.461h30.33c3.354-0.014 6.067-2.736 6.067-6.092 0-0.009 0-0.018 0-0.027v0.001-24.501c0-0.007 0-0.016 0-0.025 0-3.356-2.713-6.078-6.066-6.092h-30.331c-3.354 0.014-6.067 2.736-6.067 6.092 0 0.009 0 0.018 0 0.027v-0.001 24.52c0 0.002 0 0.004 0 0.006 0 3.356 2.713 6.078 6.066 6.092h0.001z" />
<glyph unicode="&#xe929;" horiz-adv-x="1059" d="M629.056 489.867h30.304c3.354-0.014 6.067-2.736 6.067-6.092 0-0.009 0-0.018 0-0.027v0.001-24.482c0-0.006 0-0.012 0-0.019 0-3.356-2.713-6.078-6.066-6.092h-30.305c-3.354 0.014-6.067 2.736-6.067 6.092 0 0.009 0 0.018 0 0.027v-0.001 24.476c0 0.007 0 0.016 0 0.025 0 3.356 2.713 6.078 6.066 6.092h0.001z" />
<glyph unicode="&#xe92a;" horiz-adv-x="1059" d="M774.636 489.867h30.33c3.354-0.014 6.067-2.736 6.067-6.092 0-0.009 0-0.018 0-0.027v0.001-24.482c0-0.007 0-0.016 0-0.025 0-3.356-2.713-6.078-6.066-6.092h-30.331c-3.354 0.014-6.067 2.736-6.067 6.092 0 0.009 0 0.018 0 0.027v-0.001 24.482c0 0.007 0 0.016 0 0.025 0 3.356 2.713 6.078 6.066 6.092h0.001z" />
<glyph unicode="&#xe92b;" horiz-adv-x="1059" d="M774.636 367.461h30.33c3.354-0.014 6.067-2.736 6.067-6.092 0-0.009 0-0.018 0-0.027v0.001-24.501c0-0.007 0-0.016 0-0.025 0-3.356-2.713-6.078-6.066-6.092h-30.331c-3.354 0.014-6.067 2.736-6.067 6.092 0 0.009 0 0.018 0 0.027v-0.001 24.52c0 0.002 0 0.004 0 0.006 0 3.356 2.713 6.078 6.066 6.092h0.001z" />
<glyph unicode="&#xe92c;" horiz-adv-x="1059" d="M629.056 367.461h30.304c3.354-0.014 6.067-2.736 6.067-6.092 0-0.009 0-0.018 0-0.027v0.001-24.501c0-0.007 0-0.016 0-0.025 0-3.356-2.713-6.078-6.066-6.092h-30.305c-3.354 0.014-6.067 2.736-6.067 6.092 0 0.009 0 0.018 0 0.027v-0.001 24.52c0 0.002 0 0.004 0 0.006 0 3.356 2.713 6.078 6.066 6.092h0.001z" />
<glyph unicode="&#xe92d;" horiz-adv-x="1059" d="M768.569 336.842c0-0.007 0-0.016 0-0.025 0-3.356 2.713-6.078 6.066-6.092h18.196c-3.354 0.014-6.067 2.736-6.067 6.092 0 0.009 0 0.018 0 0.027v-0.001 24.52c0 0.007 0 0.016 0 0.025 0 3.356 2.713 6.078 6.066 6.092h-18.194c-3.354-0.014-6.067-2.736-6.067-6.092 0-0.009 0-0.018 0-0.027v0.001z" />
<glyph unicode="&#xe92e;" horiz-adv-x="1059" d="M622.988 336.842c0-0.007 0-0.016 0-0.025 0-3.356 2.713-6.078 6.066-6.092h18.196c-3.354 0.014-6.067 2.736-6.067 6.092 0 0.009 0 0.018 0 0.027v-0.001 24.52c0 0.007 0 0.016 0 0.025 0 3.356 2.713 6.078 6.066 6.092h-18.194c-3.354-0.014-6.067-2.736-6.067-6.092 0-0.009 0-0.018 0-0.027v0.001z" />
<glyph unicode="&#xe92f;" horiz-adv-x="1059" d="M647.251 489.867h-18.195c-3.354-0.014-6.067-2.736-6.067-6.092 0-0.009 0-0.018 0-0.027v0.001-24.482c0-0.007 0-0.016 0-0.025 0-3.356 2.713-6.078 6.066-6.092h18.196c-3.354 0.014-6.067 2.736-6.067 6.092 0 0.009 0 0.018 0 0.027v-0.001 24.482c0 0.007 0 0.016 0 0.025 0 3.356 2.713 6.078 6.066 6.092h0.001z" />
<glyph unicode="&#xe930;" horiz-adv-x="1059" d="M792.831 489.867h-18.195c-3.354-0.014-6.067-2.736-6.067-6.092 0-0.009 0-0.018 0-0.027v0.001-24.482c0-0.007 0-0.016 0-0.025 0-3.356 2.713-6.078 6.066-6.092h18.196c-3.354 0.014-6.067 2.736-6.067 6.092 0 0.009 0 0.018 0 0.027v-0.001 24.482c0 0.007 0 0.016 0 0.025 0 3.356 2.713 6.078 6.066 6.092h0.001z" />
<glyph unicode="&#xe931;" horiz-adv-x="1059" d="M483.475 330.737h18.195c-3.354 0.014-6.067 2.736-6.067 6.092 0 0.009 0 0.018 0 0.027v-0.001 24.508c0 0.007 0 0.016 0 0.025 0 3.356 2.713 6.078 6.066 6.092h-18.194c-3.354-0.014-6.067-2.736-6.067-6.092 0-0.009 0-0.018 0-0.027v0.001-24.52c0-0.004 0-0.008 0-0.013 0-3.356 2.713-6.078 6.066-6.092h0.001z" />
<glyph unicode="&#xe932;" horiz-adv-x="1059" d="M483.475 453.156h18.195c-3.354 0.014-6.067 2.736-6.067 6.092 0 0.009 0 0.018 0 0.027v-0.001 24.476c0 0.007 0 0.016 0 0.025 0 3.356 2.713 6.078 6.066 6.092h-18.194c-3.354-0.014-6.067-2.736-6.067-6.092 0-0.009 0-0.018 0-0.027v0.001-24.482c0-0.006 0-0.012 0-0.019 0-3.356 2.713-6.078 6.066-6.092h0.001z" />
<glyph unicode="&#xe933;" horiz-adv-x="1059" d="M483.481 447.025h48.525c6.708 0.029 12.134 5.473 12.134 12.185 0 0.020 0 0.040 0 0.060v-0.003 6.124h39.949l-7.846-7.916c-1.144-1.119-1.853-2.677-1.853-4.402 0-0.552 0.073-1.087 0.209-1.595l-0.010 0.043c0.553-2.149 2.195-3.815 4.289-4.391l0.043-0.010c0.461-0.126 0.991-0.199 1.537-0.199 1.714 0 3.261 0.715 4.358 1.863l0.002 0.002 18.195 18.359c0.057 0.057 0.075 0.126 0.119 0.182 0.494 0.508 0.902 1.103 1.198 1.759l0.016 0.039c0 0.006-0.001 0.013-0.001 0.019 0 0.053 0.014 0.103 0.039 0.145l-0.001-0.001c0.219 0.569 0.356 1.227 0.377 1.915v0.009c-0.001 0.222-0.014 0.441-0.040 0.655l0.003-0.026c-0.032 0.548-0.136 1.060-0.301 1.543l0.012-0.041c-0.068 0.25-0.14 0.46-0.226 0.662l0.012-0.033c-0.305 0.711-0.714 1.319-1.215 1.838l0.002-0.002-18.195 18.371c-1.086 1.061-2.573 1.715-4.212 1.715-1.677 0-3.195-0.685-4.288-1.79l-0.001-0.001c-1.099-1.112-1.778-2.642-1.778-4.33 0-1.65 0.649-3.149 1.705-4.255l-0.002 0.002 7.846-7.89h-39.949v6.117c0 0.017 0 0.037 0 0.057 0 6.71-5.423 12.152-12.125 12.184h-48.528c-6.708-0.029-12.134-5.473-12.134-12.185 0-0.020 0-0.040 0-0.060v0.003-24.482c0-0.017 0-0.037 0-0.057 0-6.712 5.427-12.156 12.132-12.185h0.003zM483.481 483.749h48.525v-24.482h-48.525z" />
<glyph unicode="&#xe934;" horiz-adv-x="1059" d="M483.481 324.62h18.195v-40.307l-7.846 7.909c-1.086 1.061-2.573 1.715-4.212 1.715-1.677 0-3.195-0.685-4.288-1.79l-0.001-0.001c-1.099-1.112-1.778-2.642-1.778-4.33 0-1.65 0.649-3.149 1.705-4.255l-0.002 0.002 18.195-18.359c0.057-0.057 0.126-0.075 0.182-0.126 1.057-1.064 2.521-1.722 4.138-1.722 1.667 0 3.17 0.699 4.234 1.82l0.002 0.003 18.195 18.359c1.054 1.104 1.702 2.602 1.702 4.252 0 1.688-0.679 3.218-1.778 4.331l0.001-0.001c-1.093 1.104-2.609 1.788-4.285 1.788-1.632 0-3.112-0.648-4.198-1.701l0.002 0.001-7.834-7.897v40.307h18.195c6.708 0.029 12.134 5.473 12.134 12.185 0 0.020 0 0.040 0 0.060v-0.003 24.482c0 0.017 0 0.037 0 0.057 0 6.712-5.427 12.156-12.132 12.185h-48.528c-6.708-0.029-12.134-5.473-12.134-12.185 0-0.020 0-0.040 0-0.060v0.003-24.482c0-0.017 0-0.037 0-0.057 0-6.712 5.427-12.156 12.132-12.185h0.003zM483.481 361.343h48.525v-24.482h-48.525z" />
<glyph unicode="&#xe935;" horiz-adv-x="1059" d="M677.568 495.99h-48.512c-6.705-0.032-12.128-5.475-12.128-12.185 0-0.020 0-0.040 0-0.060v0.003-24.482c0-0.017 0-0.037 0-0.057 0-6.712 5.427-12.156 12.132-12.185h48.509c6.708 0.029 12.134 5.473 12.134 12.185 0 0.020 0 0.040 0 0.060v-0.003 6.124h39.949l-7.828-7.916c-1.144-1.119-1.853-2.677-1.853-4.402 0-0.552 0.073-1.087 0.209-1.595l-0.010 0.043c0.553-2.149 2.195-3.815 4.289-4.391l0.043-0.010c0.445-0.118 0.956-0.185 1.484-0.185 1.731 0 3.292 0.73 4.392 1.899l0.003 0.003 18.233 18.346c0.057 0.057 0.069 0.126 0.119 0.182 0.494 0.508 0.902 1.103 1.198 1.759l0.016 0.039c0 0.006-0.001 0.014-0.001 0.021 0 0.053 0.014 0.102 0.039 0.144l-0.001-0.001c0.219 0.569 0.355 1.227 0.377 1.914v0.009c0 0.222-0.014 0.44-0.040 0.655l0.003-0.026c-0.032 0.547-0.135 1.060-0.301 1.543l0.012-0.041c-0.067 0.25-0.14 0.459-0.226 0.662l0.012-0.033c-0.305 0.711-0.714 1.319-1.215 1.838l0.002-0.002-18.227 18.334c-1.085 1.059-2.571 1.712-4.209 1.712-1.676 0-3.192-0.684-4.285-1.787v0c-1.099-1.112-1.778-2.642-1.778-4.33 0-1.65 0.649-3.149 1.705-4.255l-0.002 0.002 7.853-7.89h-39.949v6.117c0 0.017 0 0.037 0 0.057 0 6.716-5.434 12.163-12.145 12.185h-0.002zM629.056 459.267v24.482h48.512v-24.482z" />
<glyph unicode="&#xe936;" horiz-adv-x="1059" d="M823.161 495.99h-48.525c-6.705-0.032-12.128-5.475-12.128-12.185 0-0.020 0-0.040 0-0.060v0.003-24.482c0-0.017 0-0.037 0-0.057 0-6.712 5.427-12.156 12.132-12.185h18.198v-40.314l-7.846 7.922c-1.086 1.061-2.573 1.715-4.212 1.715-1.677 0-3.195-0.685-4.288-1.79l-0.001-0.001c-1.099-1.112-1.778-2.642-1.778-4.33 0-1.65 0.649-3.149 1.705-4.255l-0.002 0.002 18.195-18.359c0.057-0.057 0.126-0.075 0.182-0.119 1.057-1.064 2.521-1.722 4.138-1.722 1.667 0 3.17 0.699 4.234 1.82l0.002 0.003 18.195 18.359c1.054 1.104 1.702 2.602 1.702 4.252 0 1.688-0.679 3.218-1.778 4.331l0.001-0.001c-1.094 1.106-2.611 1.791-4.288 1.791-1.64 0-3.126-0.654-4.213-1.716l0.001 0.001-7.821-7.903v40.314h18.195c6.708 0.029 12.134 5.473 12.134 12.185 0 0.020 0 0.040 0 0.060v-0.003 24.482c0 0.015 0 0.033 0 0.050 0 6.713-5.426 12.159-12.131 12.191h-0.003zM774.636 459.267v24.482h48.525v-24.482z" />
<glyph unicode="&#xe937;" horiz-adv-x="1059" d="M823.161 373.584h-48.525c-6.708-0.029-12.134-5.473-12.134-12.185 0-0.020 0-0.040 0-0.060v0.003-6.117h-39.943l7.821 7.909c1.054 1.104 1.702 2.602 1.702 4.252 0 1.688-0.679 3.218-1.778 4.331l0.001-0.001c-1.094 1.106-2.611 1.791-4.288 1.791-1.64 0-3.126-0.654-4.213-1.716l0.001 0.001-18.195-18.359c-0.499-0.517-0.908-1.125-1.198-1.797l-0.015-0.039c-0.072-0.168-0.145-0.377-0.205-0.592l-0.009-0.037c-0.154-0.445-0.257-0.959-0.288-1.493l-0.001-0.016c-0.024-0.188-0.037-0.407-0.038-0.628v0c0.022-0.697 0.158-1.355 0.391-1.965l-0.014 0.041c-0.001-0.008-0.001-0.016-0.001-0.025 0-0.051 0.014-0.099 0.040-0.139l-0.001 0.001c0.311-0.695 0.719-1.291 1.215-1.799l-0.001 0.001c0.050-0.057 0.069-0.126 0.119-0.182l18.195-18.359c1.086-1.061 2.573-1.715 4.212-1.715 1.677 0 3.195 0.685 4.288 1.79l0.001 0.001c1.099 1.112 1.778 2.642 1.778 4.33 0 1.65-0.649 3.149-1.705 4.255l0.002-0.002-7.834 7.897h39.968v-6.117c0-0.017 0-0.037 0-0.057 0-6.712 5.427-12.156 12.132-12.185h48.528c6.708 0.029 12.134 5.473 12.134 12.185 0 0.020 0 0.040 0 0.060v-0.003 24.501c0 0.015 0 0.033 0 0.050 0 6.715-5.429 12.162-12.138 12.191h-0.003zM774.636 336.861v24.482h48.525v-24.482z" />
<glyph unicode="&#xe938;" horiz-adv-x="1059" d="M616.928 355.219h-39.955l7.846 7.916c1.054 1.104 1.702 2.602 1.702 4.252 0 1.688-0.679 3.218-1.778 4.331l0.001-0.001c-1.094 1.106-2.611 1.791-4.288 1.791-1.64 0-3.126-0.654-4.213-1.716l0.001 0.001-18.195-18.359c-0.499-0.517-0.908-1.125-1.198-1.797l-0.015-0.039c-0.072-0.168-0.145-0.377-0.205-0.592l-0.009-0.037c-0.154-0.445-0.257-0.959-0.288-1.493l-0.001-0.016c-0.023-0.188-0.037-0.406-0.038-0.628v-0.001c0.022-0.697 0.158-1.355 0.391-1.965l-0.014 0.041c-0.001-0.008-0.001-0.016-0.001-0.025 0-0.051 0.014-0.099 0.040-0.139l-0.001 0.001c0.311-0.695 0.719-1.29 1.215-1.799l-0.001 0.001c0.050-0.057 0.069-0.126 0.119-0.182l18.195-18.359c1.086-1.061 2.573-1.715 4.212-1.715 1.677 0 3.195 0.685 4.288 1.79l0.001 0.001c1.099 1.112 1.778 2.642 1.778 4.33 0 1.65-0.649 3.149-1.705 4.255l0.002-0.002-7.84 7.922h39.949v-6.117c0-0.017 0-0.037 0-0.057 0-6.712 5.427-12.156 12.132-12.185h48.515c6.708 0.029 12.134 5.473 12.134 12.185 0 0.020 0 0.040 0 0.060v-0.003 24.476c0 0.017 0 0.037 0 0.057 0 6.712-5.427 12.156-12.132 12.185h-48.515c-6.708-0.029-12.134-5.473-12.134-12.185 0-0.020 0-0.040 0-0.060v0.003zM629.062 361.343h48.506v-24.482h-48.512z" />
<glyph unicode="&#xe939;" horiz-adv-x="1059" d="M483.481 202.214h48.525c6.708 0.029 12.134 5.473 12.134 12.185 0 0.020 0 0.040 0 0.060v-0.003 24.482c0 0.017 0 0.037 0 0.057 0 6.712-5.427 12.156-12.132 12.185h-48.528c-6.708-0.029-12.134-5.473-12.134-12.185 0-0.020 0-0.040 0-0.060v0.003-24.482c0-0.017 0-0.037 0-0.057 0-6.712 5.427-12.156 12.132-12.185h0.003zM483.481 238.937h48.525v-24.482h-48.525z" />
<glyph unicode="&#xe93a;" horiz-adv-x="978" d="M413.792 879.568c197.102 38.313 587.803-393.165 520.961-575.299s-658.217-297.085-788.448-153.259 70.379 690.244 267.488 728.558z" />
<glyph unicode="&#xe93b;" horiz-adv-x="978" d="M506.583 738.296c30.248 0 54.768-24.521 54.768-54.768v0-59.437h-146.030v113.617l90.289 0.588z" />
<glyph unicode="&#xe93c;" horiz-adv-x="978" d="M94.159 680.581c0 31.875 25.84 57.715 57.715 57.715v0h354.709c-30.248 0-54.768-24.521-54.768-54.768v0-299.997c0-28.458-23.070-51.528-51.528-51.528v0h-44.164c-0.001 0-0.001 0-0.002 0-21.44 0-40.288-11.101-51.108-27.869l-0.145-0.239-32.070-50.345-32.077 50.324c-10.965 17.007-29.812 28.108-51.252 28.108-0.001 0-0.002 0-0.002 0h-43.779c-28.458 0-51.528 23.070-51.528 51.528v0z" />
<glyph unicode="&#xe93d;" horiz-adv-x="978" d="M506.583 738.296h-71.006l-341.41-341.41v-13.354c0-28.458 23.070-51.528 51.528-51.528v0h43.78c0.001 0 0.001 0 0.002 0 21.44 0 40.288-11.101 51.108-27.869l0.145-0.239 32.077-50.324 32.077 50.324c10.965 17.007 29.812 28.108 51.252 28.108 0.001 0 0.002 0 0.002 0h44.171c28.458 0 51.528 23.070 51.528 51.528v0 299.997c0 30.24 24.509 54.756 54.746 54.768h0.001z" />
<glyph unicode="&#xe93e;" horiz-adv-x="978" d="M376.546 580.374c0-54.6-44.262-98.863-98.863-98.863s-98.863 44.262-98.863 98.863c0 54.6 44.262 98.863 98.863 98.863s98.863-44.262 98.863-98.863z" />
<glyph unicode="&#xe93f;" horiz-adv-x="978" d="M207.783 510.502c17.891-17.891 42.607-28.957 69.907-28.957 54.601 0 98.864 44.263 98.864 98.864 0 27.3-11.066 52.016-28.957 69.907v0z" />
<glyph unicode="&#xe940;" horiz-adv-x="978" d="M787.185 483.717c30.233-0.020 54.733-24.533 54.733-54.768v0-59.437h-146.016v112.833l91.283 1.372z" />
<glyph unicode="&#xe941;" horiz-adv-x="978" d="M374.726 426.002c0 31.875 25.84 57.715 57.715 57.715h354.744c-30.248 0-54.768-24.521-54.768-54.768v0-299.983c0-28.458-23.070-51.528-51.528-51.528v0h-44.164c-21.441-0.001-40.288-11.101-51.11-27.869l-0.145-0.239-32.077-50.324-32.077 50.324c-10.966 17.007-29.814 28.108-51.255 28.108h-43.773c-0.010 0-0.023 0-0.035 0-28.458 0-51.528 23.070-51.528 51.528v0z" />
<glyph unicode="&#xe942;" horiz-adv-x="978" d="M787.185 483.717h-55.013l-357.347-357.347c1.414-27.323 23.91-48.942 51.457-48.945h43.78c21.438-0.003 40.283-11.103 51.103-27.869l0.145-0.239 32.077-50.324 32.077 50.324c10.966 17.007 29.814 28.108 51.255 28.108h44.172c28.442 0.016 51.493 23.076 51.493 51.521 0 0.007 0 0.015 0 0.022v-0.001 299.983c0 30.248 24.521 54.768 54.768 54.768 0.012 0 0.025 0 0.037 0h-0.002z" />
<glyph unicode="&#xe943;" horiz-adv-x="978" d="M439.832 392.791h225.141v-71.16h-225.141v71.16z" />
<glyph unicode="&#xe944;" horiz-adv-x="978" d="M570.086 321.631h94.887v71.16h-23.727z" />
<glyph unicode="&#xe945;" horiz-adv-x="978" d="M664.973 264.868h-225.134c-3.866 0-6.999 3.134-6.999 6.999s3.134 6.999 6.999 6.999v0h225.134c3.866 0 6.999-3.134 6.999-6.999s-3.134-6.999-6.999-6.999v0z" />
<glyph unicode="&#xe946;" horiz-adv-x="978" d="M664.973 227.178h-225.134c-3.866 0-6.999 3.134-6.999 6.999s3.134 6.999 6.999 6.999v0h225.134c3.866 0 6.999-3.134 6.999-6.999s-3.134-6.999-6.999-6.999v0z" />
<glyph unicode="&#xe947;" horiz-adv-x="978" d="M664.973 189.494h-225.134c-3.866 0-6.999 3.134-6.999 6.999s3.134 6.999 6.999 6.999v0h225.134c3.866 0 6.999-3.134 6.999-6.999s-3.134-6.999-6.999-6.999v0z" />
<glyph unicode="&#xe948;" horiz-adv-x="978" d="M664.973 151.804h-225.134c-3.866 0-6.999 3.134-6.999 6.999s3.134 6.999 6.999 6.999v0h225.134c3.866 0 6.999-3.134 6.999-6.999s-3.134-6.999-6.999-6.999v0z" />
<glyph unicode="&#xe949;" horiz-adv-x="978" d="M666.135 596.157c-3.866 0-6.999 3.134-6.999 6.999v0 44.976c0 3.866 3.134 6.999 6.999 6.999s6.999-3.134 6.999-6.999v0-44.976c0-3.866-3.134-6.999-6.999-6.999v0z" />
<glyph unicode="&#xe94a;" horiz-adv-x="978" d="M730.632 578.030c-3.861 0.005-6.989 3.137-6.989 6.999 0 1.41 0.417 2.722 1.134 3.82l-0.016-0.027 23.020 35.626c1.266 1.94 3.427 3.205 5.883 3.205 3.867 0 7.002-3.135 7.002-7.002 0-1.411-0.417-2.725-1.135-3.824l0.016 0.027-22.992-35.626c-1.266-1.937-3.424-3.199-5.877-3.199-0.015 0-0.031 0-0.046 0h0.002z" />
<glyph unicode="&#xe94b;" horiz-adv-x="978" d="M776.14 526.166c-0.004 0-0.009 0-0.014 0-3.866 0-6.999 3.134-6.999 6.999 0 2.728 1.56 5.091 3.837 6.246l0.040 0.018 29.984 14.992c0.912 0.466 1.99 0.74 3.132 0.74 3.866 0 7-3.134 7-7 0-2.725-1.556-5.086-3.829-6.242l-0.040-0.018-29.977-14.999c-0.91-0.463-1.984-0.735-3.122-0.735-0.005 0-0.009 0-0.014 0h0.001z" />
<glyph unicode="&#xe94c;" horiz-adv-x="978" d="M249.022 433.295c-2.831 0.106-5.085 2.427-5.085 5.274s2.254 5.167 5.076 5.274h61.049c2.831-0.106 5.085-2.427 5.085-5.274s-2.254-5.167-5.076-5.274h-0.010z" />
<glyph unicode="&#xe94d;" horiz-adv-x="978" d="M255.804 412.36c-2.831 0.106-5.085 2.427-5.085 5.274s2.254 5.167 5.076 5.274h47.485c2.831-0.106 5.085-2.427 5.085-5.274s-2.254-5.167-5.076-5.274h-0.010z" />
<glyph unicode="&#xe94e;" horiz-adv-x="978" d="M274.597 485.284c0-2.888-2.341-5.228-5.228-5.228s-5.228 2.341-5.228 5.228v0c0.074 2.398 0.116 5.219 0.116 8.050 0 16.288-1.391 32.252-4.062 47.778l0.236-1.662c-3.772 17.605-9.991 33.201-18.384 47.357l0.396-0.722c-0.418 0.736-0.665 1.616-0.665 2.555 0 2.893 2.346 5.239 5.239 5.239 1.955 0 3.66-1.071 4.56-2.658l0.014-0.026c8.525-14.315 15.151-30.935 18.966-48.601l0.198-1.093c2.523-14.364 3.965-30.903 3.965-47.779 0-2.967-0.045-5.924-0.133-8.87l0.010 0.432z" />
<glyph unicode="&#xe94f;" horiz-adv-x="978" d="M294.936 485.284c0-2.888-2.341-5.228-5.228-5.228s-5.228 2.341-5.228 5.228v0c-0.076 2.472-0.119 5.379-0.119 8.297 0 16.929 1.451 33.518 4.236 49.652l-0.246-1.725c4.013 18.759 10.64 35.379 19.585 50.462l-0.422-0.768c0.904 1.619 2.607 2.696 4.562 2.696 0.937 0 1.815-0.247 2.575-0.68l-0.026 0.013c1.615-0.92 2.686-2.629 2.686-4.589 0-0.939-0.246-1.82-0.677-2.583l0.014 0.026c-8.003-13.431-14.231-29.024-17.828-45.598l-0.187-1.030c-2.426-13.844-3.813-29.786-3.813-46.051 0-2.856 0.043-5.702 0.128-8.538l-0.010 0.416z" />
<glyph unicode="&#xe950;" horiz-adv-x="978" d="M245.396 583.629c-2.142 0.697-3.664 2.677-3.664 5.011 0 2.905 2.355 5.259 5.259 5.259 0.57 0 1.119-0.091 1.633-0.258l-0.037 0.011c3.808-1.33 7.022-2.766 10.093-4.433l-0.357 0.177 0.287-0.154c4.563-2.31 8.357-4.108 11.199-1.806l6.453 5.284c0.891 0.731 2.043 1.174 3.299 1.174 1.638 0 3.1-0.754 4.057-1.934l0.008-0.010c0.728-0.898 1.168-2.055 1.168-3.314 0-1.641-0.748-3.108-1.922-4.077l-0.009-0.007-6.453-5.284c-8.042-6.572-14.614-3.374-22.53 0.616l-0.238 0.112c-2.295 1.265-5.016 2.49-7.838 3.505l-0.407 0.128z" />
<glyph unicode="&#xe951;" horiz-adv-x="978" d="M310.502 593.652c0.477 0.157 1.026 0.248 1.596 0.248 2.905 0 5.259-2.355 5.259-5.259 0-2.335-1.521-4.314-3.626-5.001l-0.037-0.011c-3.225-1.151-5.939-2.379-8.534-3.795l0.31 0.155-0.238-0.112c-7.909-3.99-14.495-7.195-22.53-0.616l-6.453 5.284c-1.183 0.976-1.931 2.443-1.931 4.084 0 1.259 0.441 2.416 1.176 3.324l-0.008-0.010c0.965 1.19 2.427 1.944 4.065 1.944 1.255 0 2.407-0.443 3.308-1.181l-0.009 0.007 6.453-5.284c2.8-2.31 6.607-0.497 11.199 1.799l0.287 0.154c2.712 1.498 5.918 2.939 9.246 4.124l0.468 0.146z" />
<glyph unicode="&#xe952;" horiz-adv-x="978" d="M345.603 647.041c16.93-17.007 27.396-40.461 27.396-66.36 0-20.799-6.75-40.022-18.18-55.596l0.184 0.262c-7.835-10.675-15.549-20.027-23.744-28.931l0.213 0.234c-10.926-12.143-15.72-17.498-15.72-35.22 0-0.004 0-0.009 0-0.014 0-2.902-2.349-5.255-5.249-5.263h-61.467c-2.908 0.004-5.263 2.362-5.263 5.27 0 0 0 0 0 0v0c0 17.582-4.899 22.957-15.741 34.905v0c-8.176 8.78-16.015 18.238-23.293 28.133l-0.616 0.878c-11.24 15.323-17.986 34.554-17.986 55.361 0 12.937 2.608 25.264 7.327 36.486l-0.231-0.62 0.098 0.21c9.685 22.968 27.57 40.887 49.9 50.386l0.613 0.232c10.55 4.51 22.825 7.132 35.713 7.132s25.163-2.622 36.322-7.362l-0.609 0.23c11.801-4.994 21.874-11.867 30.332-20.351l0.002-0.002zM362.457 580.675c0 0.019 0 0.042 0 0.064 0 34.433-20.868 63.992-50.648 76.719l-0.544 0.207c-9.371 3.982-20.27 6.296-31.71 6.296s-22.339-2.314-32.255-6.501l0.545 0.204c-10.477-4.429-19.417-10.537-26.914-18.081l-0.004-0.004c-7.452-7.481-13.5-16.367-17.71-26.225l-0.207-0.546-0.112-0.287c-3.988-9.412-6.305-20.356-6.305-31.842 0-18.454 5.983-35.511 16.114-49.337l-0.164 0.234c7.673-10.456 15.284-19.635 23.391-28.347l-0.175 0.19c11.682-12.822 17.498-19.241 18.401-36.717h51.213c0.896 17.596 6.593 23.944 18.331 36.983 7.752 8.419 15.239 17.502 22.216 26.985l0.622 0.886c9.951 13.568 15.923 30.595 15.923 49.017 0 0.036 0 0.072 0 0.108v-0.006z" />
<glyph unicode="&#xe953;" horiz-adv-x="978" d="M262.586 391.433c-2.831 0.106-5.085 2.427-5.085 5.274s2.254 5.167 5.076 5.274h33.921c2.831-0.106 5.085-2.427 5.085-5.274s-2.254-5.167-5.076-5.274h-0.010z" />
<glyph unicode="&#xe954;" horiz-adv-x="1047" d="M726.813 736.107c146.737-106.652 102.278-630.644-59.261-698.67s-601.802 251.968-586.98 426.631 499.499 378.694 646.241 272.039z" />
<glyph unicode="&#xe955;" horiz-adv-x="1047" d="M917.825 13.021l-26.188 55.392 32.245 55.215 85.064-0.158v21.75l-86.018 24.765c-0.026 0-0.057 0-0.088 0-43.302 0-80.358-26.746-95.548-64.619l-0.245-0.693-376.761 0.474c-15.268 38.712-52.34 65.61-95.696 65.628h-0.002l-86.018-24.595v-21.769l83.16-0.158 32.055-55.373-24.418-55.234-90.798 21.933v-27.611c18.253-28.078 49.992-42.279 85.987-42.279 0.443-0.006 0.966-0.010 1.49-0.010 46.344 0 86.373 27.039 105.172 66.202l0.303 0.7 354.063-0.474c19.998-47.014 60.146-67.019 103.791-67.019 37.031 0.446 69.59 19.188 89.109 47.592l0.241 0.371v21.769z" />
<glyph unicode="&#xe956;" horiz-adv-x="1047" d="M826.888 53.871l-376.761 0.316c-15.406-38.562-52.443-65.31-95.728-65.31-35.911 0-67.522 18.412-85.908 46.31l-0.239 0.386 90.937-0.158 32.245 55.215-32.068 55.379-90.956 0.171c18.607 28.193 50.143 46.539 85.965 46.539 43.377 0 80.472-26.902 95.509-64.931l0.242-0.695 376.761-0.474c15.406 38.562 52.443 65.31 95.728 65.31 35.911 0 67.522-18.412 85.908-46.31l0.239-0.386-90.937 0.158-32.245-55.215 32.062-55.373 90.937-0.158c-18.597-28.182-50.12-46.522-85.927-46.522-43.414 0-80.532 26.961-95.523 65.053l-0.241 0.696z" />
<glyph unicode="&#xe957;" horiz-adv-x="1047" d="M885.764 90.163l32.245 55.215 90.937-0.158c-18.624 28.293-50.239 46.711-86.156 46.711-43.3 0-80.347-26.767-95.499-64.657l-0.245-0.693h-40.313l-73.158-72.709 113.313-0.158c15.28-38.725 52.374-65.626 95.751-65.626 35.822 0 67.359 18.346 85.727 46.155l0.238 0.384-90.937 0.158z" />
<glyph unicode="&#xe958;" horiz-adv-x="1047" d="M853.708 559.486l-4.426 49.695h-51.13l-5.058-49.853c-7.843-1.594-14.494-3.445-20.956-5.701l1.116 0.339-29.039 41.172-44.258-25.398 20.947-46.224c-5.009-4.41-9.572-8.996-13.817-13.867l-0.149-0.175-47.008 21.75-25.53-43.992 41.881-29.982c-1.768-5.024-3.572-11.472-5.016-18.055l-0.219-1.191-51.737-4.578v-50.783l51.579-5.203c1.644-8.176 3.508-15.056 5.764-21.758l-0.364 1.247-41.887-29.975 25.549-44.011 46.977 21.769c4.49-5.087 9.155-9.726 14.104-14.048l0.178-0.153-21.269-46.382 44.258-25.398 29.362 41.805c5.379-1.957 11.929-3.757 18.655-5.064l0.862-0.14 5.058-49.853h51.105l4.426 49.695c7.928 1.513 14.747 3.367 21.351 5.677l-1.037-0.316 29.204-40.23 44.258 25.398-20.953 44.802c5.516 4.813 10.543 9.769 15.254 15.014l0.142 0.16 44.599-20.036 25.549 44.011-39.99 27.92c2.042 5.684 3.961 12.672 5.387 19.837l0.164 0.99 48.405 4.887v50.783l-48.563 4.261c-1.573 7.694-3.379 14.199-5.573 20.523l0.338-1.119 39.99 27.92-26.024 43.385h-21.111l-23.488-20.036c-4.717 5.39-9.644 10.286-14.89 14.824l-0.189 0.16 20.795 44.327-44.258 25.556h-21.067zM828.001 358.82c-1.1-0.089-2.382-0.14-3.675-0.14-26.751 0-48.437 21.686-48.437 48.437s21.686 48.437 48.437 48.437c26.751 0 48.437-21.686 48.437-48.437 0-1.397-0.059-2.781-0.175-4.148l0.012 0.178c-2.085-23.688-20.88-42.39-44.425-44.316l-0.174-0.011z" />
<glyph unicode="&#xe959;" horiz-adv-x="1047" d="M1004.634 382.796v50.802l-48.563 4.261c-1.573 7.694-3.379 14.199-5.573 20.524l0.338-1.12 39.99 27.92-25.707 43.86-44.593-19.878c-4.719 5.388-9.646 10.285-14.89 14.824l-0.189 0.16 20.789 44.327-44.258 25.398-28.723-39.756c-5.645 1.992-12.573 3.848-19.677 5.209l-0.953 0.152-4.426 49.695h-51.143l-5.058-49.853c-7.843-1.594-14.494-3.445-20.956-5.701l1.116 0.339-29.039 41.172-44.258-25.398 20.947-46.224c-5.026-4.41-9.601-8.995-13.858-13.865l-0.147-0.171-46.977 21.75-25.549-44.011 41.893-29.963c-1.767-5.023-3.572-11.471-5.016-18.054l-0.219-1.192-51.737-4.578v-50.783l51.579-5.203c1.642-8.176 3.504-15.057 5.757-21.759l-0.364 1.249-41.9-29.975 25.556-44.018 46.977 21.769c4.49-5.087 9.155-9.726 14.104-14.048l0.178-0.153-21.105-46.698 44.258-25.398 29.394 41.811c5.381-1.958 11.934-3.757 18.662-5.064l0.862-0.139 5.058-49.853h51.105l4.426 49.695c7.928 1.513 14.747 3.367 21.351 5.677l-1.037-0.316 29.204-40.224 44.258 25.398-20.947 44.802c5.516 4.813 10.543 9.769 15.254 15.014l0.142 0.16 44.593-20.036 25.556 44.011-40.464 27.92c2.042 5.684 3.961 12.672 5.387 19.837l0.164 0.99zM806.89 358.82c-1.102-0.089-2.386-0.14-3.681-0.14-26.751 0-48.437 21.686-48.437 48.437s21.686 48.437 48.437 48.437c26.751 0 48.437-21.686 48.437-48.437 0-1.397-0.059-2.781-0.175-4.148l0.012 0.178c-2.085-23.686-20.877-42.387-44.419-44.316l-0.174-0.011z" />
<glyph unicode="&#xe95a;" horiz-adv-x="1047" d="M495.833 320.487v20.030l-19.202 1.732c-0.608 3.051-1.32 5.645-2.191 8.165l0.13-0.432 15.87 11.045-10.154 17.355-17.615-7.891c-1.911 2.132-3.88 4.089-5.956 5.928l-0.076 0.066 8.251 17.513-17.457 10.116-11.431-15.781c-2.198 0.773-4.964 1.535-7.793 2.126l-0.458 0.080-1.745 19.72h-20.321l-2.061-19.733c-3.137-0.606-5.802-1.314-8.393-2.182l0.458 0.133-11.583 16.249-17.463-10.072 8.257-18.335c-1.897-1.732-3.794-3.629-5.558-5.52l-18.569 8.681-10.16-17.355 16.666-11.829c-0.711-2.005-1.421-4.548-1.981-7.146l-0.080-0.441-20.314-2.049v-20.036l20.472-2.049c0.537-3.054 1.307-5.755 2.32-8.333l-0.101 0.291-16.666-11.829 10.154-17.355 18.569 8.675c1.799-2.033 3.657-3.891 5.622-5.631l0.068-0.059-8.567-18.772 17.457-10.116 11.583 16.565c2.096-0.736 4.706-1.444 7.377-1.981l0.4-0.067 2.061-19.72h20.156l1.745 19.72c3.259 0.639 5.977 1.347 8.631 2.197l-0.538-0.149 11.583-15.933 17.457 10.116-8.213 17.69c2.152 1.904 4.121 3.861 5.972 5.926l0.060 0.068 17.621-7.891 10.154 17.355-15.844 11.045c0.779 2.193 1.545 4.949 2.139 7.767l0.080 0.452zM417.592 311.003c-0.442-0.036-0.957-0.057-1.477-0.057-10.58 0-19.157 8.577-19.157 19.157s8.577 19.157 19.157 19.157c10.58 0 19.157-8.577 19.157-19.157 0-0.559-0.024-1.112-0.071-1.658l0.005 0.071c-0.915-9.313-8.288-16.647-17.539-17.495l-0.076-0.006z" />
<glyph unicode="&#xe95b;" horiz-adv-x="1047" d="M593.302-57.184h-48.905c-0.030 0-0.066 0-0.101 0-20.152 0-36.498 16.301-36.569 36.436v0.007l-0.158 210.288c0.072 20.142 16.417 36.443 36.569 36.443 0.036 0 0.071 0 0.107 0h48.875c0.030 0 0.066 0 0.101 0 20.152 0 36.498-16.301 36.569-36.436v-0.007l0.158-210.288c-0.014-20.13-16.336-36.444-36.468-36.444-0.062 0-0.124 0-0.187 0h0.010z" />
<glyph unicode="&#xe95c;" horiz-adv-x="1047" d="M573.594 256.275h-27.136l-0.158 318.979h27.136z" />
<glyph unicode="&#xe95d;" horiz-adv-x="1047" d="M554.551 256.275h-27.136l-0.158 318.979h27.136z" />
<glyph unicode="&#xe95e;" horiz-adv-x="1047" d="M581.213 697.994l-47.451-0.158-18.86-89.287 15.079-42.753h56.972l13.303 42.911z" />
<glyph unicode="&#xe95f;" horiz-adv-x="1047" d="M561.689 697.836h-47.419l-19.075-89.287 15.237-42.753h56.947l13.334 42.911z" />
<glyph unicode="&#xe960;" horiz-adv-x="1047" d="M559.792-57.342h-48.886c-0.030 0-0.066 0-0.101 0-20.152 0-36.498 16.301-36.569 36.436v0.007l-0.158 210.288c0.072 20.142 16.417 36.443 36.569 36.443 0.036 0 0.071 0 0.107 0h48.875c0.030 0 0.066 0 0.101 0 20.152 0 36.498-16.301 36.569-36.436v-0.007l0.164-210.288c-0.072-20.142-16.417-36.443-36.569-36.443-0.036 0-0.071 0-0.107 0h0.005z" />
<glyph unicode="&#xe961;" horiz-adv-x="1047" d="M478.231 38.261v-62.789c0.125-16.652 13.643-30.106 30.308-30.127h53.643c16.662 0.028 30.172 13.479 30.298 30.115v0.012l-0.158 176.216z" />
<glyph unicode="&#xe962;" horiz-adv-x="1047" d="M513.764-23.264c-3.577 0.007-6.477 2.894-6.506 6.465v0.003l-0.158 202.239c0 3.593 2.913 6.506 6.506 6.506s6.506-2.913 6.506-6.506v0l0.158-202.246c-0.087-3.549-2.953-6.4-6.5-6.462h-0.006z" />
<glyph unicode="&#xe963;" horiz-adv-x="1047" d="M554.393-23.264c-3.577 0.007-6.477 2.894-6.506 6.465v0.003l-0.158 202.239c-0.002 0.060-0.003 0.131-0.003 0.202 0 3.551 2.879 6.43 6.43 6.43s6.43-2.879 6.43-6.43c0-0.071-0.001-0.142-0.003-0.212v0.010l0.158-202.246c0.002-0.053 0.003-0.115 0.003-0.177 0-3.471-2.814-6.285-6.285-6.285-0.023 0-0.046 0-0.069 0h0.004z" />
<glyph unicode="&#xe964;" horiz-adv-x="1047" d="M534.875 266.214h67.765v-40.388h-67.765v40.388z" />
<glyph unicode="&#xe965;" horiz-adv-x="1047" d="M501.384 266.214h67.765v-40.388h-67.765v40.388z" />
<glyph unicode="&#xe966;" horiz-adv-x="1047" d="M1004.634 382.796v50.802l-48.563 4.261c-1.573 7.694-3.379 14.199-5.573 20.524l0.338-1.12 39.99 27.92-25.707 43.86-44.593-19.878-6.19 6.626-75.871-75.409c8.157-8.638 13.172-20.321 13.172-33.174 0-25.451-19.659-46.309-44.621-48.219l-0.164-0.010c-1.2-0.105-2.597-0.165-4.008-0.165-12.88 0-24.595 4.983-33.324 13.127l0.029-0.027-75.871-75.409c2.061-1.897 4.129-3.945 6.19-5.69l-21.105-46.698 44.258-25.398 29.362 41.805c5.381-1.957 11.933-3.757 18.662-5.064l0.862-0.139 5.058-49.853h51.105l4.426 49.695c7.928 1.513 14.746 3.367 21.351 5.677l-1.037-0.316 29.204-40.23 44.258 25.398-20.947 44.802c5.515 4.814 10.541 9.77 15.254 15.014l0.142 0.16 44.593-20.036 25.556 44.011-40.313 27.604c2.042 5.684 3.961 12.672 5.387 19.837l0.164 0.99z" />
<glyph unicode="&#xe967;" horiz-adv-x="1047" d="M803.084 319.222c-48.316 0.291-87.371 39.525-87.371 87.882 0 48.537 39.347 87.883 87.883 87.883s87.883-39.346 87.883-87.882v0c-0.215-48.583-39.649-87.884-88.262-87.884-0.047 0-0.094 0-0.141 0h0.007zM803.084 461.518c-29.829-0.186-53.938-24.411-53.938-54.265 0-29.971 24.296-54.266 54.266-54.266s54.266 24.295 54.266 54.265v0c-0.151 30.003-24.508 54.266-54.531 54.266-0.022 0-0.045 0-0.067 0h0.003z" />
<glyph unicode="&#xe968;" horiz-adv-x="1111" d="M875.593 227.32c-112.37-138.765-625.163-68.163-683.738 94.118s278.574 578.627 449.504 555.091 346.609-510.439 234.235-649.209z" />
<glyph unicode="&#xe969;" horiz-adv-x="1111" d="M579.653 396.604h38.403v-48.642h-38.403v48.642z" />
<glyph unicode="&#xe96a;" horiz-adv-x="1111" d="M733.271 359.477v25.606l-92.814 38.403-35.204-25.606v-51.2l35.204-25.606z" />
<glyph unicode="&#xe96b;" horiz-adv-x="1111" d="M669.262 372.28c0-7.071-5.732-12.803-12.803-12.803s-12.803 5.732-12.803 12.803c0 7.071 5.732 12.803 12.803 12.803s12.803-5.732 12.803-12.803z" />
<glyph unicode="&#xe96c;" horiz-adv-x="1111" d="M529.088 410.665l-364.834-22.407v-25.6l364.834-28.805z" />
<glyph unicode="&#xe96d;" horiz-adv-x="1111" d="M585.41 347.21v50.142c-0.014 7.354-5.977 13.31-13.332 13.313h-42.99v-76.806h42.99c0 0 0 0 0 0 7.363 0 13.332 5.969 13.332 13.332 0 0.007 0 0.013 0 0.020v-0.001z" />
<glyph unicode="&#xe96e;" horiz-adv-x="1111" d="M232.39 459.835c33.516 0 60.685 27.17 60.685 60.685v0 192.35h392.618v-192.326c0-33.516-27.17-60.685-60.685-60.685v0z" />
<glyph unicode="&#xe96f;" horiz-adv-x="1111" d="M685.694 712.877h-68.353l-253.023-253.042h260.691c33.516 0 60.685 27.17 60.685 60.685v0z" />
<glyph unicode="&#xe970;" horiz-adv-x="1111" d="M501.839 621.476c33.516 0 60.685-27.17 60.685-60.685v0-40.239c0-33.516 27.17-60.685 60.685-60.685v0h-223.994v161.61h102.623z" />
<glyph unicode="&#xe971;" horiz-adv-x="1111" d="M441.148 51.781v509.009c0 33.516 27.17 60.685 60.685 60.685v0h-385.124c-33.516 0-60.685-27.17-60.685-60.685v0-509.009z" />
<glyph unicode="&#xe972;" horiz-adv-x="1111" d="M283.055 529.11c0-24.062-19.506-43.569-43.569-43.569s-43.569 19.506-43.569 43.569c0 24.062 19.506 43.569 43.569 43.569s43.569-19.506 43.569-43.569z" />
<glyph unicode="&#xe973;" horiz-adv-x="1111" d="M56.023 51.781h385.124v509.009c0 4.524 0.495 8.933 1.432 13.176l-0.075-0.404-386.518-386.518z" />
<glyph unicode="&#xe974;" horiz-adv-x="1111" d="M342.943 265.462h-201.612c-3.462 0-6.268 2.806-6.268 6.268s2.806 6.268 6.268 6.268v0h201.612c3.462 0 6.268-2.806 6.268-6.268s-2.806-6.268-6.268-6.268v0z" />
<glyph unicode="&#xe975;" horiz-adv-x="1111" d="M342.943 231.708h-201.612c-3.462 0-6.268 2.806-6.268 6.268s2.806 6.268 6.268 6.268h201.612c3.462 0 6.268-2.806 6.268-6.268s-2.806-6.268-6.268-6.268v0z" />
<glyph unicode="&#xe976;" horiz-adv-x="1111" d="M342.943 197.961h-201.612c-3.462 0-6.268 2.806-6.268 6.268s2.806 6.268 6.268 6.268h201.612c3.462 0 6.268-2.806 6.268-6.268s-2.806-6.268-6.268-6.268v0z" />
<glyph unicode="&#xe977;" horiz-adv-x="1111" d="M342.943 164.189h-201.612c-3.462 0-6.268 2.806-6.268 6.268s2.806 6.268 6.268 6.268h201.612c3.462 0 6.268-2.806 6.268-6.268s-2.806-6.268-6.268-6.268v0z" />
<glyph unicode="&#xe978;" horiz-adv-x="1111" d="M342.943 436.395h-201.612c-3.462 0-6.268 2.806-6.268 6.268s2.806 6.268 6.268 6.268v0h201.612c3.462 0 6.268-2.806 6.268-6.268s-2.806-6.268-6.268-6.268v0z" />
<glyph unicode="&#xe979;" horiz-adv-x="1111" d="M342.943 402.642h-201.612c-3.462 0-6.268 2.806-6.268 6.268s2.806 6.268 6.268 6.268h201.612c3.462 0 6.268-2.806 6.268-6.268s-2.806-6.268-6.268-6.268v0z" />
<glyph unicode="&#xe97a;" horiz-adv-x="1111" d="M342.943 368.894h-201.612c-3.462 0-6.268 2.806-6.268 6.268s2.806 6.268 6.268 6.268h201.612c3.462 0 6.268-2.806 6.268-6.268s-2.806-6.268-6.268-6.268v0z" />
<glyph unicode="&#xe97b;" horiz-adv-x="1111" d="M342.943 335.122h-201.612c-3.462 0-6.268 2.806-6.268 6.268s2.806 6.268 6.268 6.268h201.612c3.462 0 6.268-2.806 6.268-6.268s-2.806-6.268-6.268-6.268v0z" />
<glyph unicode="&#xe97c;" horiz-adv-x="1111" d="M502.144 166.585c0 25.094 20.342 45.436 45.436 45.436s45.436-20.342 45.436-45.436v0z" />
<glyph unicode="&#xe97d;" horiz-adv-x="1111" d="M503.887 166.585c0-43.742-35.46-79.202-79.202-79.202s-79.202 35.46-79.202 79.202c0 43.742 35.46 79.202 79.202 79.202s79.202-35.46 79.202-79.202z" />
<glyph unicode="&#xe97e;" horiz-adv-x="1111" d="M485.003 217.891l-111.624-111.617c13.727-11.736 31.687-18.878 51.315-18.878 43.732 0 79.183 35.452 79.183 79.183 0 19.627-7.141 37.585-18.966 51.42l0.091-0.109z" />
<glyph unicode="&#xe97f;" horiz-adv-x="1111" d="M749.18 166.585c0-43.742-35.46-79.202-79.202-79.202s-79.202 35.46-79.202 79.202c0 43.742 35.46 79.202 79.202 79.202s79.202-35.46 79.202-79.202z" />
<glyph unicode="&#xe980;" horiz-adv-x="1111" d="M731.341 216.652l-111.412-111.412c13.552-11.196 31.103-17.986 50.24-17.986 43.718 0 79.158 35.44 79.158 79.158 0 19.137-6.791 36.687-18.094 50.374l0.107-0.134z" />
<glyph unicode="&#xe981;" horiz-adv-x="1111" d="M393.732 142.809c-3.461 0-6.267 2.806-6.267 6.268 0 1.731 0.701 3.297 1.835 4.432l47.272 47.266c1.128 1.101 2.673 1.78 4.376 1.78 3.462 0 6.268-2.806 6.268-6.268 0-1.703-0.679-3.247-1.782-4.377l-47.277-47.265c-1.128-1.134-2.689-1.836-4.414-1.836-0.004 0-0.008 0-0.012 0h0.001z" />
<glyph unicode="&#xe982;" horiz-adv-x="1111" d="M384.85 176.239c-3.461 0-6.267 2.806-6.267 6.268 0 1.731 0.701 3.297 1.835 4.432l21.679 21.672c1.128 1.101 2.673 1.78 4.376 1.78 3.462 0 6.268-2.806 6.268-6.268 0-1.703-0.679-3.247-1.782-4.377l-21.678-21.678c-1.127-1.13-2.686-1.83-4.408-1.83-0.008 0-0.017 0-0.025 0h0.001z" />
<glyph unicode="&#xe983;" horiz-adv-x="1111" d="M640.787 142.809c-3.461 0-6.267 2.806-6.267 6.268 0 1.731 0.701 3.297 1.835 4.432l47.303 47.266c1.128 1.101 2.673 1.78 4.376 1.78 3.462 0 6.268-2.806 6.268-6.268 0-1.703-0.679-3.247-1.782-4.377l-47.302-47.271c-1.127-1.13-2.686-1.83-4.408-1.83-0.008 0-0.017 0-0.025 0h0.001z" />
<glyph unicode="&#xe984;" horiz-adv-x="1111" d="M631.911 176.239c-3.461 0-6.267 2.806-6.267 6.268 0 1.731 0.701 3.297 1.835 4.432l21.672 21.672c1.128 1.101 2.673 1.78 4.376 1.78 3.462 0 6.268-2.806 6.268-6.268 0-1.703-0.679-3.247-1.782-4.377l-21.678-21.678c-1.127-1.13-2.686-1.83-4.408-1.83-0.006 0-0.012 0-0.018 0h0.001z" />
<glyph unicode="&#xe985;" horiz-adv-x="1211" d="M883.254 498.744c26.978-219.719-454.632-613.391-642.144-524.902s-268.446 747.64-107.911 878.864 723.077-134.243 750.055-353.962z" />
<glyph unicode="&#xe986;" horiz-adv-x="1211" d="M474.034 720.516h590.487c10.52 0 19.048-8.528 19.048-19.048v-412.706c0-10.52-8.528-19.048-19.048-19.048h-590.487c-10.52 0-19.048 8.528-19.048 19.048v412.706c0 10.52 8.528 19.048 19.048 19.048z" />
<glyph unicode="&#xe987;" horiz-adv-x="1211" d="M467.685 669.709h152.384v-387.309h-152.384v387.309z" />
<glyph unicode="&#xe988;" horiz-adv-x="1211" d="M467.685 707.805h603.186v-31.747h-603.186v31.747z" />
<glyph unicode="&#xe989;" horiz-adv-x="1211" d="M189.267 296.077l46.985-1.962 11.81 102.523 33.956 71.176 7.835-76.395-28.731-140.39 66.604-25.467 35.893 180.219-20.242 206.988-15.67-17.632-64.642-22.223-58.769-156.714z" />
<glyph unicode="&#xe98a;" horiz-adv-x="1211" d="M407.97 611.435l-19.588-204.378 28.731-183.495 69.843 27.423-23.493 133.856 9.797 107.742 80.967-35.258 115.558 19.588-3.264 45.715-97.945-9.797-81.621 62.033-62.033 19.588z" />
<glyph unicode="&#xe98b;" horiz-adv-x="1211" d="M374.032 596.323l-12.407-17.143 4.572-10.724-7.835-73.652 16.299-25.696 16.261 25.696-6.705 73.652 5.511 12.146z" />
<glyph unicode="&#xe98c;" horiz-adv-x="1211" d="M373.855 596.863l-13.581-14.254 6.038-14.419-7.88-73.773 14.083-21.797 14.419 21.797-6.54 73.773 7.378 14.419z" />
<glyph unicode="&#xe98d;" horiz-adv-x="1211" d="M344.984 296.927l14.032-8.064 13.556 32.724 16.508-31.429 14.362 5.225 11.2-75.386 40.356 15.962-1.308-202.423-63.341-3.264-13.061 217.439-14.362-219.395-60.071 1.308-3.225 204.524 29.766-11.613z" />
<glyph unicode="&#xe98e;" horiz-adv-x="1211" d="M330.92 689.836c-1.34 1.848-4.045 6.241-6.502 4.318s-4.445-4.21-3.327-12.007c1.217-6.144 2.992-11.579 5.328-16.704l-0.191 0.469c2.622-4.686 2.444 0 5.346-2.54 4.074-15.086 10.58-28.268 19.157-39.82l-0.223 0.315c7.403-9.975 13.969-18.572 23.493-18.934 8.705-0.324 15.346 6.349 21.219 12.407 11.819 12.577 20.082 28.624 23.107 46.454l0.074 0.531c0.924-1.198 2.359-1.962 3.973-1.962 0.153 0 0.304 0.007 0.453 0.020l-0.019-0.001c4.725 5.054 7.747 11.751 8.124 19.146l0.003 0.073c1.803 11.092-6.095 11.873-10.407 8.032 1.973 4.207 3.716 9.16 4.966 14.304l0.114 0.553c0.445 2.493 0.699 5.363 0.699 8.292 0 10.58-3.318 20.385-8.969 28.432l0.105-0.158c-8.733 11.32-22.302 18.541-37.557 18.541-0.111 0-0.223 0-0.334-0.001h0.017c-4.322-0.047-8.465-0.74-12.361-1.987l0.297 0.082c-9.655-3.304-17.615-9.471-23.081-17.476l-0.101-0.157-1.162 0.216c-1.202 0.211-2.585 0.332-3.997 0.332-0.227 0-0.452-0.003-0.678-0.009l0.033 0.001c-0.092 0.002-0.2 0.004-0.309 0.004-2.708 0-5.225-0.814-7.321-2.212l0.048 0.030c-9.067-6.203-10.413-25.213 0-48.649z" />
<glyph unicode="&#xe98f;" horiz-adv-x="1211" d="M419.487 686.249s-2.286 18.496-6.279 22.159c-3.625 3.302-10.559-4.572-22.527-6.203-22.565-3.086-36.674 19.734-46.35 14.038-8.413-4.933-3.086-19.683-12.661-27.302-10.413 23.435-11.137 42.928-2.070 49.131 2.692 1.823 5.94 3.030 9.445 3.347l0.079 0.006c1.765-0.192 3.343-0.483 4.878-0.877l-0.237 0.052c0.038 0.070 1.27 1.657 1.27 1.727 4.969 7.357 12.285 12.802 20.857 15.293l0.267 0.066c3.718 1.215 7.998 1.916 12.44 1.916 0.332 0 0.663-0.004 0.993-0.012l-0.049 0.001c0.194 0.003 0.424 0.004 0.654 0.004 14.797 0 28.035-6.674 36.868-17.176l0.060-0.073c5.631-6.618 9.145-15.188 9.415-24.572l0.001-0.057c0.031-0.751 0.048-1.632 0.048-2.517 0-4.911-0.536-9.697-1.551-14.302l0.081 0.439z" />
<glyph unicode="&#xe990;" horiz-adv-x="1211" d="M358.851 288.749l13.746 32.559 4.445-72.465-14.927-220.366-31.747 3.111-1.244 190.873 15.645 74.363z" />
<glyph unicode="&#xe991;" horiz-adv-x="1211" d="M453.621 235.796v-202.289h-28.635l-21.791 261.592 11.829-76.109z" />
<glyph unicode="&#xe992;" horiz-adv-x="1211" d="M472.853 492.125l-8.845-107.196 23.575-133.71-70.693-27.994-20.654 132.98 18.051 49.372z" />
<glyph unicode="&#xe993;" horiz-adv-x="1211" d="M343.238 613.454l12.165-122.402 7.619-84.446s-20.242 62.617-30.032 103.1-9.092 47.074-9.092 58.922c0.373 9.698 1.741 18.893 4.007 27.727l-0.197-0.908z" />
<glyph unicode="&#xe994;" horiz-adv-x="1211" d="M408.135 613.454l-12.064-122.402-7.619-84.446s20.121 62.611 29.842 103.119 9.029 47.048 9.029 58.896c-0.381 9.702-1.748 18.896-4.008 27.733l0.198-0.913z" />
<glyph unicode="&#xe995;" horiz-adv-x="1211" d="M283.269 471.356l-35.055-74.395-11.734-102.923-29.924 1.416 21.588 99.189z" />
<glyph unicode="&#xe996;" horiz-adv-x="1211" d="M472.114 492.87l82.149-27.601 113.45 36.831 2.21-25.414-115.666-19.911z" />
<glyph unicode="&#xe997;" horiz-adv-x="1211" d="M632.767 669.709h25.397v-139.685h-25.397v139.685z" />
<glyph unicode="&#xe998;" horiz-adv-x="1211" d="M474.034 701.456h25.397v-19.048h-25.397v19.048z" />
<glyph unicode="&#xe999;" horiz-adv-x="1211" d="M632.767 396.688h431.754v-12.699h-431.754v12.699z" />
<glyph unicode="&#xe99a;" horiz-adv-x="1211" d="M753.405 663.36h190.48v-88.891h-190.48v88.891z" />
<glyph unicode="&#xe99b;" horiz-adv-x="1211" d="M747.055 561.77h190.48v-88.891h-190.48v88.891z" />
<glyph unicode="&#xe99c;" horiz-adv-x="1211" d="M753.405 561.77h311.117v-88.891h-311.117v88.891z" />
<glyph unicode="&#xe99d;" horiz-adv-x="1211" d="M962.932 663.36h107.939v-88.891h-107.939v88.891z" />
<glyph unicode="&#xe99e;" horiz-adv-x="1211" d="M632.767 453.832h431.754v-38.096h-431.754v38.096z" />
<glyph unicode="&#xe99f;" horiz-adv-x="1211" d="M632.767 364.941h431.754v-12.699h-431.754v12.699z" />
<glyph unicode="&#xe9a0;" horiz-adv-x="1211" d="M632.767 333.195h431.754v-12.699h-431.754v12.699z" />
<glyph unicode="&#xe9a1;" horiz-adv-x="1211" d="M632.767 301.448h431.754v-12.699h-431.754v12.699z" />
<glyph unicode="&#xe9a2;" horiz-adv-x="1211" d="M670.863 625.264h25.397v-95.24h-25.397v95.24z" />
<glyph unicode="&#xe9a3;" horiz-adv-x="1211" d="M708.959 650.661h25.397v-120.637h-25.397v120.637z" />
<glyph unicode="&#xe9a4;" horiz-adv-x="1211" d="M562.925 276.051h19.048v-101.589h-19.048v101.589z" />
<glyph unicode="&#xe9a5;" horiz-adv-x="1211" d="M893.090 276.051h19.048v-101.589h-19.048v101.589z" />
<glyph unicode="&#xe9a6;" horiz-adv-x="1211" d="M613.719 276.051h19.048v-101.589h-19.048v101.589z" />
<glyph unicode="&#xe9a7;" horiz-adv-x="1211" d="M943.884 276.051h19.048v-101.589h-19.048v101.589z" />
<glyph unicode="&#xe9a8;" horiz-adv-x="1211" d="M228.176 288.197c3.883-5.683 6.951-12.294 8.838-19.386l0.102-0.449c0.711-7.245-3.702-4.038-5.886-10.895-0.832-2.946-0.273-11.334-5.448-11.334-1.27 0-2.476-0.070-7.619 0-2.184 0-2.476-2.743-7.619-2.394-2.406 0.152-4.572 3.397-9.81 4.794-4.362-2.616-13.626 1.702-16.35 4.794-3.943 4.368 6.959 36.394 6.959 36.394z" />
<glyph unicode="&#xe9a9;" horiz-adv-x="1211" d="M678.871 520.27c4.689 4.606 10.419 8.418 16.83 11.015l0.353 0.128c7.104 1.589 5.454-4.563 12.526-5.895 3.025-0.467 41.996 5.527 44.203 0.003 1.454-6.634-31.505-4.949-30.946-10.075 0.266-2.168-0.287-3.189-0.002-8.316 0.142-2.407-2.273-3.842-3.021-9.205 3.128-4.011-0.863-14.231-3.631-17.315-3.828-4.455-33.335 2.918-33.335 2.918z" />
<glyph unicode="&#xe9aa;" horiz-adv-x="1211" d="M228.176 294.546c3.883-5.683 6.951-12.294 8.838-19.386l0.102-0.449c0.711-7.245-3.702-4.038-5.886-10.895-0.832-2.946-0.273-11.334-5.448-11.334-1.27 0-2.476-0.070-7.619 0-2.184 0-2.476-2.743-7.619-2.394-2.406 0.152-4.572 3.397-9.81 4.794-4.362-2.616-13.626 1.702-16.35 4.794-3.943 4.368 6.959 36.394 6.959 36.394z" />
<glyph unicode="&#xe9ab;" horiz-adv-x="1211" d="M672.586 519.508c5.168 4.546 11.355 8.397 18.164 11.135l0.433 0.156c7.104 1.589 4.459-3.182 11.532-4.514 3.025-0.467 48.722 5.138 49.353 0.002 1.105-7.016-33.759-4.465-33.2-9.591 0.266-2.168-0.286-4.129 0.002-9.288 0.142-2.407-2.814-4.951-3.563-10.321 3.128-4.011-0.028-13.731-2.766-16.812-3.864-4.428-36.98 2.49-36.98 2.49z" />
<glyph unicode="&#xe9ac;" horiz-adv-x="1008" d="M806.421 259.136c-96.191-153.905-622.272-146.149-701.454 10.322s209.424 618.241 384.784 615.654 412.864-472.065 316.67-625.976z" />
<glyph unicode="&#xe9ad;" horiz-adv-x="1008" d="M201.041 317.54c-1.538 1.539-3.663 2.491-6.010 2.491s-4.472-0.952-6.010-2.491l-28.95-28.988c-1.632-1.554-2.647-3.744-2.647-6.171 0-4.703 3.812-8.515 8.515-8.515 2.417 0 4.599 1.007 6.149 2.625l0.003 0.003 28.95 28.988c1.541 1.544 2.494 3.675 2.494 6.029s-0.953 4.485-2.494 6.029v0z" />
<glyph unicode="&#xe9ae;" horiz-adv-x="1008" d="M229.187 289.337c-1.538 1.539-3.663 2.491-6.010 2.491s-4.472-0.952-6.010-2.491v0l-28.931-28.988c-1.463-1.526-2.363-3.602-2.363-5.887 0-4.703 3.812-8.515 8.515-8.515 2.276 0 4.344 0.893 5.871 2.348l-0.003-0.003 28.931 28.988c1.541 1.544 2.494 3.675 2.494 6.029s-0.953 4.485-2.494 6.029v0z" />
<glyph unicode="&#xe9af;" horiz-adv-x="1008" d="M285.48 232.937c-1.538 1.539-3.663 2.491-6.010 2.491s-4.472-0.952-6.010-2.491v0l-28.931-28.988c-1.463-1.526-2.363-3.602-2.363-5.887 0-4.703 3.812-8.515 8.515-8.515 2.276 0 4.344 0.893 5.871 2.348l-0.003-0.003 28.931 28.988c1.541 1.544 2.494 3.675 2.494 6.029s-0.953 4.485-2.494 6.029v0z" />
<glyph unicode="&#xe9b0;" horiz-adv-x="1008" d="M257.346 261.133c-1.538 1.539-3.663 2.491-6.010 2.491s-4.472-0.952-6.010-2.491v0l-28.931-28.988c-1.632-1.554-2.647-3.744-2.647-6.171 0-4.703 3.812-8.515 8.515-8.515 2.417 0 4.599 1.007 6.149 2.625l0.003 0.003 28.931 28.994c1.539 1.544 2.491 3.674 2.491 6.026s-0.952 4.482-2.491 6.026v0z" />
<glyph unicode="&#xe9b1;" horiz-adv-x="1008" d="M251.159 321.317c-1.038-1.045-1.972-2.196-2.783-3.435l-0.051-0.083-21.51 21.51c-0.71 0.737-1.147 1.741-1.147 2.847s0.437 2.11 1.148 2.848l-0.001-0.001 20.959 20.997 23.996-24.040z" />
<glyph unicode="&#xe9b2;" horiz-adv-x="1008" d="M306.059 265.638c-0.732-0.72-1.738-1.165-2.847-1.165s-2.114 0.445-2.847 1.165l-21.509 21.509c1.319 0.863 2.468 1.799 3.511 2.841v0l20.637 20.675 23.996-24.040z" />
<glyph unicode="&#xe9b3;" horiz-adv-x="1008" d="M134.285 449.3c-0.906 0.074-1.614 0.828-1.614 1.747 0 0.49 0.201 0.933 0.526 1.251v0c49.172 49.24 115.112 81.725 188.522 88.16l1.15 0.081 33.093 2.79-104.114-104.323z" />
<glyph unicode="&#xe9b4;" horiz-adv-x="1008" d="M255.062 418.111l46.354-46.442-17.587-17.619c-18.347 18.397-42.241 42.298-46.366 46.43z" />
<glyph unicode="&#xe9b5;" horiz-adv-x="1008" d="M270.79 302.483c-0.919-0.918-2.189-1.485-3.59-1.485-2.807 0-5.082 2.275-5.082 5.082 0 1.405 0.57 2.677 1.492 3.596v0l169.611 169.947c0.92 0.92 2.19 1.488 3.593 1.488 2.807 0 5.082-2.275 5.082-5.082 0-1.403-0.569-2.674-1.488-3.593v0l-113.762-113.989z" />
<glyph unicode="&#xe9b6;" horiz-adv-x="1008" d="M361.972 276.836l-0.057-0.038c-0.132-0.111-0.304-0.179-0.491-0.179-0.208 0-0.396 0.083-0.534 0.217v0l-45.81 45.898 17.581 17.619 46.354-46.442z" />
<glyph unicode="&#xe9b7;" horiz-adv-x="1008" d="M655.119 636.176l-58.469 58.576 82.617 24.199z" />
<glyph unicode="&#xe9b8;" horiz-adv-x="1008" d="M628.074 543.45l-237.019-237.475-46.354 46.442 108.182 108.372c3.593 3.923 5.795 9.172 5.795 14.935 0 12.229-9.914 22.142-22.142 22.142-5.749 0-10.986-2.191-14.922-5.783l0.017 0.016-108.182-108.372-46.354 46.442 237.019 237.481 73.912 21.649 71.647-71.786z" />
<glyph unicode="&#xe9b9;" horiz-adv-x="1008" d="M564.81 559.108c0-24.458-19.827-44.285-44.285-44.285s-44.285 19.827-44.285 44.285c0 24.458 19.827 44.285 44.285 44.285s44.285-19.827 44.285-44.285z" />
<glyph unicode="&#xe9ba;" horiz-adv-x="1008" d="M397.691 289.602q14.361 18.467 106.537 105.272 2.493-119.133-92.176-227.118s-14.361 113.104-14.361 121.847z" />
<glyph unicode="&#xe9bb;" horiz-adv-x="1008" d="M827.356 642.933l-39.047-20.529 7.459 43.475-31.588 30.791 43.652 6.326 19.523 39.578 19.523-39.559 43.652-6.326-31.588-30.791 7.459-43.475z" />
<glyph unicode="&#xe9bc;" horiz-adv-x="1008" d="M346.548 744.155l-24.173-12.71 4.618 26.913-19.555 19.068 27.026 3.929 12.083 24.483 12.083-24.49 27.026-3.929-19.555-19.030 4.618-26.913z" />
<glyph unicode="&#xe9bd;" horiz-adv-x="1008" d="M650.216 339.265l-24.173-12.71 4.618 26.913-19.555 19.061 27.026 3.929 12.083 24.49 12.083-24.49 27.026-3.929-19.555-19.030 4.618-26.913z" />
<glyph unicode="&#xe9be;" glyph-name="arrow-1" d="M512-64c-282.624 0-512 229.376-512 512s229.376 512 512 512 512-229.376 512-512c0-282.624-229.376-512-512-512zM512 919.040c-260.096 0-471.040-210.944-471.040-471.040s210.944-471.040 471.040-471.040c260.096 0 471.040 210.944 471.040 471.040s-210.944 471.040-471.040 471.040zM440.32 228.864c-6.144 0-10.24 2.048-14.336 6.144-8.192 8.192-8.192 20.48 0 28.672l194.56 190.464-194.56 194.56c-8.192 8.192-8.192 20.48 0 28.672s20.48 8.192 28.672 0l225.28-223.232-225.28-219.136c-4.096-4.096-8.192-6.144-14.336-6.144z" />
<glyph unicode="&#xe9bf;" glyph-name="arrow-2" d="M512-64c-282.624 0-512 229.376-512 512s229.376 512 512 512 512-229.376 512-512c0-282.624-229.376-512-512-512zM512 919.040c-260.096 0-471.040-210.944-471.040-471.040s210.944-471.040 471.040-471.040c260.096 0 471.040 210.944 471.040 471.040s-210.944 471.040-471.040 471.040zM587.776 228.864c-6.144 0-10.24 2.048-14.336 6.144l-225.28 223.232 225.28 219.136c8.192 8.192 20.48 8.192 28.672 0s8.192-20.48 0-28.672l-194.56-190.464 194.56-194.56c8.192-8.192 8.192-20.48 0-28.672-2.048-4.096-8.192-6.144-14.336-6.144z" />
</font>
</defs>
</svg>
