<svg xmlns="http://www.w3.org/2000/svg" xmlns:xlink="http://www.w3.org/1999/xlink" width="152.833" height="160.413" viewBox="0 0 152.833 160.413">
  <defs>
    <filter id="Rectangle" x="51.271" y="70.338" width="56.204" height="34.476" filterUnits="userSpaceOnUse">
      <feOffset dy="3" input="SourceAlpha"/>
      <feGaussianBlur stdDeviation="3" result="blur"/>
      <feFlood flood-opacity="0.161"/>
      <feComposite operator="in" in2="blur"/>
      <feComposite in="SourceGraphic"/>
    </filter>
  </defs>
  <g id="_1" data-name="1" transform="translate(19.751 42.618)">
    <g id="_-1440---Desktop---Home---V2" data-name="-1440---Desktop---Home---V2" transform="translate(-293 -4237)">
      <g id="Slide-6" transform="translate(0 3915)">
        <g id="Group-8" transform="translate(180 162)">
          <g id="Content" transform="translate(0 110)">
            <g id="_576998" data-name="576998" transform="translate(113 50)">
              <path id="Path_24" data-name="Path 24" d="M57.719,0C86.407,0,129.44,71.166,115.1,94.888S14.686,118.61.342,94.888,29.03,0,57.719,0Z" transform="translate(-17.41 -0.351) rotate(-21)" fill="rgba(52,117,140,0.15)"/>
              <g id="Group" transform="translate(0 16.5)">
                <path id="Path" d="M4.374,36.612,57.535,27.7a3.633,3.633,0,0,0,3.038-3.578v-11.4a3.633,3.633,0,0,0-3.038-3.578L4.374.223A3.639,3.639,0,0,0,.126,3.8V33.035A3.639,3.639,0,0,0,4.374,36.612Z" fill="#75b3c9" fill-rule="evenodd"/>
                <path id="Path-2" data-name="Path" d="M115.108,36.612,61.946,27.7a3.633,3.633,0,0,1-3.038-3.578v-11.4a3.633,3.633,0,0,1,3.038-3.578L115.108.222A3.639,3.639,0,0,1,119.356,3.8V33.035A3.638,3.638,0,0,1,115.108,36.612Z" fill="#75b3c9" fill-rule="evenodd"/>
              </g>
              <g id="Group-2" data-name="Group" transform="translate(0 35.25)">
                <path id="Path-3" data-name="Path" d="M.126,0V14.285a3.638,3.638,0,0,0,4.248,3.578L57.535,8.947a3.633,3.633,0,0,0,3.038-3.578V0Z" fill="#589eb7" fill-rule="evenodd"/>
                <path id="Path-4" data-name="Path" d="M58.908,0V5.369a3.633,3.633,0,0,0,3.038,3.578l53.162,8.915a3.638,3.638,0,0,0,4.248-3.578V0Z" fill="#589eb7" fill-rule="evenodd"/>
              </g>
              <path id="Shape" d="M37.813,60.958a1.386,1.386,0,1,1,.886.32A1.372,1.372,0,0,1,37.813,60.958Zm41.766-.243a1.387,1.387,0,1,1,1.057.488A1.373,1.373,0,0,1,79.579,60.715ZM33.613,56.792a1.388,1.388,0,1,1,1.057.487A1.371,1.371,0,0,1,33.613,56.792Zm50.15.08a1.385,1.385,0,1,1,.886.32A1.374,1.374,0,0,1,83.763,56.872ZM30.2,51.967a1.381,1.381,0,1,1,1.195.685A1.373,1.373,0,0,1,30.2,51.967Zm57.02.4a1.37,1.37,0,0,1-.5-1.878,1.377,1.377,0,1,1,.5,1.878Zm-59.54-5.74a1.38,1.38,0,1,1,1.772.817,1.381,1.381,0,0,1-1.772-.817Zm62.161.708a1.39,1.39,0,1,1,.469.08A1.391,1.391,0,0,1,89.84,47.333Zm-63.7-6.408a1.38,1.38,0,1,1,1.6,1.112,1.339,1.339,0,0,1-.243.023A1.38,1.38,0,0,1,26.135,40.925Zm65.4.995a1.384,1.384,0,1,1,.238.02A1.534,1.534,0,0,1,91.534,41.92ZM25.611,35.047v-.085a1.381,1.381,0,0,1,2.761,0c0,.013,0,.028,0,.04s0,.025,0,.037a1.381,1.381,0,0,1-2.761.007Zm65.263-.125A1.379,1.379,0,1,1,92.255,36.3,1.375,1.375,0,0,1,90.874,34.923ZM27.242,30.675a1.389,1.389,0,1,1,.241.02A1.568,1.568,0,0,1,27.242,30.675ZM90.4,29.52A1.38,1.38,0,1,1,92,30.635a1.568,1.568,0,0,1-.241.02A1.38,1.38,0,0,1,90.4,29.52ZM28.475,25.14a1.37,1.37,0,0,1-.823-1.76,1.379,1.379,0,1,1,1.3,1.845A1.369,1.369,0,0,1,28.475,25.14Zm60.511-.858a1.386,1.386,0,1,1,1.3.9A1.37,1.37,0,0,1,88.986,24.282ZM30.664,19.905a1.382,1.382,0,1,1,.69.185A1.371,1.371,0,0,1,30.664,19.905Zm56.013-.533a1.379,1.379,0,1,1,1.888.5,1.387,1.387,0,0,1-1.888-.5ZM33.731,15.13a1.382,1.382,0,1,1,.889.323A1.389,1.389,0,0,1,33.731,15.13Zm49.813-.195a1.378,1.378,0,1,1,1.945.167,1.385,1.385,0,0,1-1.945-.167Zm-45.96-3.98a1.37,1.37,0,0,1,.168-1.938,1.385,1.385,0,0,1,1.945.17,1.378,1.378,0,0,1-2.114,1.767Zm42.1.148a1.378,1.378,0,1,1,1.945-.17,1.389,1.389,0,0,1-1.945.17ZM42.1,7.505a1.379,1.379,0,1,1,1.888.5,1.385,1.385,0,0,1-1.888-.5Zm33.126.485a1.378,1.378,0,1,1,1.383-2.383h0A1.377,1.377,0,0,1,75.226,7.99ZM47.148,4.89a1.379,1.379,0,1,1,1.77.82v0a1.425,1.425,0,0,1-.474.082A1.38,1.38,0,0,1,47.148,4.89ZM70.291,5.7a1.381,1.381,0,1,1,.469.082A1.345,1.345,0,0,1,70.291,5.7ZM52.577,3.193a1.38,1.38,0,1,1,1.6,1.115,1.29,1.29,0,0,1-.241.023A1.38,1.38,0,0,1,52.577,3.193ZM65.03,4.3a1.384,1.384,0,1,1,.239.02A1.537,1.537,0,0,1,65.03,4.3Zm-6.807-1.84A1.379,1.379,0,1,1,59.6,3.838,1.375,1.375,0,0,1,58.222,2.463Z" fill="#86c2d8"/>
              <path id="Path-5" data-name="Path" d="M78.208,113.047H41.036l4.412-74.262H73.8Z" fill="#fff" fill-rule="evenodd"/>
              <path id="Path-6" data-name="Path" d="M42.215,93.206l-1.179,19.841H78.208L75.084,60.468Z" fill="rgba(52,117,140,0.56)" fill-rule="evenodd"/>
              <g id="Group-3" data-name="Group" transform="translate(42.421 50.5)">
                <path id="Path-7" data-name="Path" d="M1.278,17.724,32.518,7.516,32.076.076,1.737,9.989Z" fill="#34758c" fill-rule="evenodd"/>
                <path id="Path-8" data-name="Path" d="M.1,37.545,33.65,26.583l-.442-7.44L.56,29.81Z" fill="#34758c" fill-rule="evenodd"/>
              </g>
              <g id="Group-4" data-name="Group" transform="translate(41.166 69.5)">
                <path id="Path-9" data-name="Path" d="M34.464.142,19.944,4.886,8.61,16.175l26.3-8.592Z" fill="#2b6174" fill-rule="evenodd"/>
                <path id="Path-10" data-name="Path" d="M.178,38.366l35.86-11.717L35.6,19.208.637,30.631Z" fill="#2b6174" fill-rule="evenodd"/>
              </g>
              <g transform="matrix(1, 0, 0, 1, -19.75, -42.62)" filter="url(#Rectangle)">
                <rect id="Rectangle-2" data-name="Rectangle" width="38.204" height="16.476" transform="translate(60.27 76.34)" fill="#34758c"/>
              </g>
              <path id="Path-11" data-name="Path" d="M43.915,34.963s5.025-10.52,15.707-10.52c10.827,0,15.707,10.52,15.707,10.52S70.208,45.482,59.622,45.482,43.915,34.963,43.915,34.963Z" fill="#fff" fill-rule="evenodd"/>
              <ellipse id="Oval" cx="8.941" cy="8.905" rx="8.941" ry="8.905" transform="translate(50.681 26.058)" fill="rgba(52,117,140,0.83)"/>
              <path id="Path-12" data-name="Path" d="M66.2,28.938,53.573,41.519A8.921,8.921,0,0,0,66.2,28.938Z" fill="#34758c" fill-rule="evenodd"/>
              <ellipse id="Oval-2" data-name="Oval" cx="3.32" cy="3.307" rx="3.32" ry="3.307" transform="translate(56.302 31.656)" fill="#266175"/>
              <circle id="Oval-3" data-name="Oval" cx="1" cy="1" r="1" transform="translate(57.523 32.808)" fill="#e1f0fa"/>
              <rect id="Rectangle-3" data-name="Rectangle" width="49.929" height="9.863" transform="translate(34.658 107.931)" fill="#48869c"/>
              <path id="Path-13" data-name="Path" d="M84.586,107.931H70.06l-9.9,9.864h24.43Z" fill="#2b6174" fill-rule="evenodd"/>
            </g>
          </g>
        </g>
      </g>
    </g>
  </g>
</svg>
