<svg xmlns="http://www.w3.org/2000/svg" xmlns:xlink="http://www.w3.org/1999/xlink" width="168.488" height="162.87" viewBox="0 0 168.488 162.87">
  <defs>
    <filter id="Path" x="46.017" y="52.018" width="122.471" height="92.85" filterUnits="userSpaceOnUse">
      <feOffset dy="3" input="SourceAlpha"/>
      <feGaussianBlur stdDeviation="3" result="blur"/>
      <feFlood flood-opacity="0.161"/>
      <feComposite operator="in" in2="blur"/>
      <feComposite in="SourceGraphic"/>
    </filter>
    <filter id="Shape" x="82.87" y="41.443" width="48.416" height="38.675" filterUnits="userSpaceOnUse">
      <feOffset dy="3" input="SourceAlpha"/>
      <feGaussianBlur stdDeviation="3" result="blur-2"/>
      <feFlood flood-opacity="0.161"/>
      <feComposite operator="in" in2="blur-2"/>
      <feComposite in="SourceGraphic"/>
    </filter>
  </defs>
  <g id="_2" data-name="2" transform="translate(53.969 28.802)">
    <g id="_-1440---Desktop---Home---V2" data-name="-1440---Desktop---Home---V2" transform="translate(-666 -4237)">
      <g id="Slide-6" transform="translate(0 3915)">
        <g id="Group-8" transform="translate(180 162)">
          <g id="Content-Copy-2" transform="translate(375 110)">
            <g id="Group-4" transform="translate(111 50)">
              <g id="_576909" data-name="576909">
                <path id="Path_51" data-name="Path 51" d="M57.719,0C86.407,0,129.44,71.166,115.1,94.888S14.686,118.61.342,94.888,29.03,0,57.719,0Z" transform="translate(-52.567 68.979) rotate(-56)" fill="rgba(52,117,140,0.15)"/>
                <g transform="matrix(1, 0, 0, 1, -53.97, -28.8)" filter="url(#Path)">
                  <path id="Path-2" data-name="Path" d="M96.362,29.215H11.048a10,10,0,0,0-10,10v64.85H95.519a10,10,0,0,0,10-10V38.39A9.156,9.156,0,0,0,96.362,29.215Z" transform="translate(53.97 28.8)" fill="#589eb7" fill-rule="evenodd"/>
                </g>
                <path id="Path-3" data-name="Path" d="M6.188,43.541a8.932,8.932,0,0,1,8.933-8.95H95.663V97.94H6.163Z" fill="#fff" fill-rule="evenodd"/>
                <path id="Path-4" data-name="Path" d="M94.79,35.465,25.775,96.84H94.79Z" fill="#8db1be" fill-rule="evenodd" opacity="0.334"/>
                <g transform="matrix(1, 0, 0, 1, -53.97, -28.8)" filter="url(#Shape)">
                  <path id="Shape-2" data-name="Shape" d="M66.5,25.965H60.432a7.462,7.462,0,0,0-14.921,0H39.747a1.844,1.844,0,0,0-1.846,1.85v9.65a1.844,1.844,0,0,0,1.846,1.85H66.47a1.844,1.844,0,0,0,1.846-1.85v-9.65A1.808,1.808,0,0,0,66.5,25.965ZM53,28.066a1.95,1.95,0,1,1,1.946-1.95A1.951,1.951,0,0,1,53,28.066Z" transform="translate(53.97 28.8)" fill="#34758c"/>
                </g>
              </g>
              <g id="_1032033" data-name="1032033" transform="translate(20 45)">
                <g id="Group" transform="translate(0.904 0.913)">
                  <g id="Path-5" data-name="Path" transform="translate(1)">
                    <path id="Path_25" data-name="Path 25" d="M1.025.061H8.743a.969.969,0,0,1,.965.973V4.928a.969.969,0,0,1-.965.973H1.025A.969.969,0,0,1,.06,4.928V1.034A.969.969,0,0,1,1.025.061Z" fill="#a4c2f7" fill-rule="evenodd"/>
                    <path id="Path_26" data-name="Path 26" d="M1.025,19.53H8.743a.969.969,0,0,1,.965.973V24.4a.969.969,0,0,1-.965.973H1.025A.969.969,0,0,1,.06,24.4V20.5A.969.969,0,0,1,1.025,19.53Z" fill="#a4c2f7" fill-rule="evenodd"/>
                    <path id="Path_27" data-name="Path 27" d="M24.18.061H31.9a.969.969,0,0,1,.965.973V4.928A.969.969,0,0,1,31.9,5.9H24.18a.969.969,0,0,1-.965-.973V1.034A.969.969,0,0,1,24.18.061Z" fill="#a4c2f7" fill-rule="evenodd"/>
                    <path id="Path_28" data-name="Path 28" d="M47.335.061h7.718a.969.969,0,0,1,.965.973V4.928a.969.969,0,0,1-.965.973H47.335a.969.969,0,0,1-.965-.973V1.034A.969.969,0,0,1,47.335.061Z" fill="#a4c2f7" fill-rule="evenodd"/>
                    <path id="Path_29" data-name="Path 29" d="M47.335,19.53h7.718a.969.969,0,0,1,.965.973V24.4a.969.969,0,0,1-.965.973H47.335a.969.969,0,0,1-.965-.973V20.5A.969.969,0,0,1,47.335,19.53Z" fill="#a4c2f7" fill-rule="evenodd"/>
                    <path id="Path_30" data-name="Path 30" d="M24.18,19.53H31.9a.969.969,0,0,1,.965.973V24.4a.969.969,0,0,1-.965.973H24.18a.969.969,0,0,1-.965-.973V20.5A.969.969,0,0,1,24.18,19.53Z" fill="#a4c2f7" fill-rule="evenodd"/>
                    <path id="Path_31" data-name="Path 31" d="M1.025,39H8.743a.969.969,0,0,1,.965.973v3.894a.969.969,0,0,1-.965.973H1.025a.969.969,0,0,1-.965-.973V39.973A.969.969,0,0,1,1.025,39Z" fill="#34758c" fill-rule="evenodd"/>
                  </g>
                  <g id="Path-6" data-name="Path">
                    <path id="Path_32" data-name="Path 32" d="M2.025.061H6.849a.969.969,0,0,1,.965.973V4.928a.969.969,0,0,1-.965.973H2.025a.969.969,0,0,1-.965-.973V1.034A.969.969,0,0,1,2.025.061Z" fill="#e3e7f2" fill-rule="evenodd"/>
                    <path id="Path_33" data-name="Path 33" d="M2.025,19.53H6.849a.969.969,0,0,1,.965.973V24.4a.969.969,0,0,1-.965.973H2.025A.969.969,0,0,1,1.06,24.4V20.5A.969.969,0,0,1,2.025,19.53Z" fill="#e3e7f2" fill-rule="evenodd"/>
                    <path id="Path_34" data-name="Path 34" d="M25.18.061H30a.969.969,0,0,1,.965.973V4.928A.969.969,0,0,1,30,5.9H25.18a.969.969,0,0,1-.965-.973V1.034A.969.969,0,0,1,25.18.061Z" fill="#e3e7f2" fill-rule="evenodd"/>
                    <path id="Path_35" data-name="Path 35" d="M48.335.061h4.824a.969.969,0,0,1,.965.973V4.928a.969.969,0,0,1-.965.973H48.335a.969.969,0,0,1-.965-.973V1.034A.969.969,0,0,1,48.335.061Z" fill="#e3e7f2" fill-rule="evenodd"/>
                    <path id="Path_36" data-name="Path 36" d="M48.335,19.53h4.824a.969.969,0,0,1,.965.973V24.4a.969.969,0,0,1-.965.973H48.335a.969.969,0,0,1-.965-.973V20.5A.969.969,0,0,1,48.335,19.53Z" fill="#e3e7f2" fill-rule="evenodd"/>
                    <path id="Path_37" data-name="Path 37" d="M25.18,19.53H30a.969.969,0,0,1,.965.973V24.4a.969.969,0,0,1-.965.973H25.18a.969.969,0,0,1-.965-.973V20.5A.969.969,0,0,1,25.18,19.53Z" fill="#e3e7f2" fill-rule="evenodd"/>
                  </g>
                  <g id="Path-7" data-name="Path" transform="translate(1)">
                    <path id="Path_38" data-name="Path 38" d="M46.37,24.4a.969.969,0,0,0,.965.973h2.894a.969.969,0,0,1-.965-.973V20.5a.969.969,0,0,1,.965-.973H47.335a.969.969,0,0,0-.965.973Z" fill="#fff" fill-rule="evenodd"/>
                    <path id="Path_39" data-name="Path 39" d="M23.215,24.4a.969.969,0,0,0,.965.973h2.894a.969.969,0,0,1-.965-.973V20.5a.969.969,0,0,1,.965-.973H24.18a.969.969,0,0,0-.965.973Z" fill="#fff" fill-rule="evenodd"/>
                    <path id="Path_40" data-name="Path 40" d="M27.074.061H24.18a.969.969,0,0,0-.965.973V4.928a.969.969,0,0,0,.965.973h2.894a.969.969,0,0,1-.965-.973V1.034A.969.969,0,0,1,27.074.061Z" fill="#fff" fill-rule="evenodd"/>
                    <path id="Path_41" data-name="Path 41" d="M50.229.061H47.335a.969.969,0,0,0-.965.973V4.928a.969.969,0,0,0,.965.973h2.894a.969.969,0,0,1-.965-.973V1.034A.969.969,0,0,1,50.229.061Z" fill="#fff" fill-rule="evenodd"/>
                    <path id="Path_42" data-name="Path 42" d="M1.025,25.371H3.919a.969.969,0,0,1-.965-.973V20.5a.969.969,0,0,1,.965-.973H1.025A.969.969,0,0,0,.06,20.5V24.4A.969.969,0,0,0,1.025,25.371Z" fill="#fff" fill-rule="evenodd"/>
                    <path id="Path_43" data-name="Path 43" d="M1.025,5.9H3.919a.969.969,0,0,1-.965-.973V1.034A.969.969,0,0,1,3.919.061H1.025a.969.969,0,0,0-.965.973V4.928A.969.969,0,0,0,1.025,5.9Z" fill="#fff" fill-rule="evenodd"/>
                  </g>
                </g>
                <g id="Group-2" data-name="Group" transform="translate(1)">
                  <g id="Shape-3" data-name="Shape">
                    <path id="Path_44" data-name="Path 44" d="M1.93,7.788H9.648a1.938,1.938,0,0,0,1.93-1.947V4.867h6.354L16.684,6.126a.979.979,0,0,0-.263.947.969.969,0,0,0,.689.7.959.959,0,0,0,.938-.265l2.894-2.92c.009-.009.012-.02.019-.029a.978.978,0,0,0,.193-.286.046.046,0,0,1,.006-.026.958.958,0,0,0,.06-.306.879.879,0,0,0-.006-.1.921.921,0,0,0-.046-.239.805.805,0,0,0-.034-.1.96.96,0,0,0-.193-.292L18.047.288A.959.959,0,0,0,16.695.3a.98.98,0,0,0-.012,1.365L17.931,2.92H11.577V1.947A1.938,1.938,0,0,0,9.648,0H1.93A1.938,1.938,0,0,0,0,1.947V5.841A1.938,1.938,0,0,0,1.93,7.788Zm0-5.841H9.648V5.841H1.93Z" fill="#34758c"/>
                    <path id="Path_45" data-name="Path 45" d="M1.93,27.257H4.824v6.411L3.576,32.41a.959.959,0,0,0-1.352.012.98.98,0,0,0-.012,1.365l2.894,2.92c.009.009.02.012.029.02a.928.928,0,0,0,1.332-.016l2.894-2.92a.98.98,0,0,0-.012-1.365A.959.959,0,0,0,8,32.412L6.754,33.668V27.257H9.648a1.938,1.938,0,0,0,1.93-1.947V21.416a1.938,1.938,0,0,0-1.93-1.947H1.93A1.938,1.938,0,0,0,0,21.416V25.31A1.938,1.938,0,0,0,1.93,27.257Zm0-5.841H9.648V25.31H1.93Z" fill="#34758c"/>
                    <path id="Path_46" data-name="Path 46" d="M32.8,0H25.084a1.938,1.938,0,0,0-1.929,1.947V5.841a1.938,1.938,0,0,0,1.93,1.947H32.8a1.938,1.938,0,0,0,1.93-1.947V4.867h6.354L39.839,6.126a.979.979,0,0,0-.263.947.969.969,0,0,0,.689.7A.959.959,0,0,0,41.2,7.5L44.1,4.582c.009-.009.011-.02.019-.029a.974.974,0,0,0,.193-.286.045.045,0,0,1,.006-.026.961.961,0,0,0,.06-.306.855.855,0,0,0-.006-.1.917.917,0,0,0-.046-.239.8.8,0,0,0-.034-.1.96.96,0,0,0-.193-.292L41.2.288A.959.959,0,0,0,39.849.3a.98.98,0,0,0-.012,1.365L41.086,2.92H34.732V1.947A1.938,1.938,0,0,0,32.8,0ZM25.084,5.841V1.947H32.8V5.841Z" fill="#34758c"/>
                    <path id="Path_47" data-name="Path 47" d="M55.957,0H48.239A1.938,1.938,0,0,0,46.31,1.947V5.841a1.938,1.938,0,0,0,1.93,1.947h2.894V14.2L49.886,12.94a.959.959,0,0,0-1.352.012.98.98,0,0,0-.012,1.365l2.894,2.92c.009.009.02.012.029.019a.928.928,0,0,0,1.332-.016l2.894-2.92a.98.98,0,0,0-.012-1.365.959.959,0,0,0-1.352-.012L53.063,14.2V7.788h2.894a1.938,1.938,0,0,0,1.93-1.947V1.947A1.939,1.939,0,0,0,55.957,0ZM48.239,5.841V1.947h7.718V5.841Z" fill="#34758c"/>
                    <path id="Path_48" data-name="Path 48" d="M55.957,19.469H48.239a1.938,1.938,0,0,0-1.93,1.947v.973H39.956L41.2,21.131a.98.98,0,0,0-.012-1.365.959.959,0,0,0-1.352-.012l-2.894,2.92a.963.963,0,0,0-.193.292.836.836,0,0,0-.034.1.922.922,0,0,0-.046.24.855.855,0,0,0-.006.1.961.961,0,0,0,.06.306.042.042,0,0,0,.006.026.97.97,0,0,0,.193.286c.008.009.011.02.019.029l2.894,2.92a.959.959,0,0,0,1.352-.012.98.98,0,0,0,.012-1.365l-1.246-1.256H46.31v.973a1.938,1.938,0,0,0,1.93,1.947h7.718a1.938,1.938,0,0,0,1.93-1.947V21.416A1.939,1.939,0,0,0,55.957,19.469ZM48.239,25.31V21.416h7.718V25.31Z" fill="#34758c"/>
                    <path id="Path_49" data-name="Path 49" d="M23.155,22.39H16.8l1.248-1.259a.98.98,0,0,0-.012-1.365.959.959,0,0,0-1.352-.012l-2.894,2.92a.963.963,0,0,0-.193.292.835.835,0,0,0-.034.1.922.922,0,0,0-.046.24.879.879,0,0,0-.006.1.961.961,0,0,0,.06.306.042.042,0,0,0,.006.026.972.972,0,0,0,.193.286c.008.009.011.02.019.029l2.894,2.92a.959.959,0,0,0,1.352-.012.98.98,0,0,0,.012-1.365L16.8,24.336h6.354v.973a1.938,1.938,0,0,0,1.93,1.947H32.8a1.938,1.938,0,0,0,1.93-1.947V21.416a1.938,1.938,0,0,0-1.93-1.947H25.084a1.938,1.938,0,0,0-1.93,1.947Zm1.93-.974H32.8V25.31H25.084Z" fill="#34758c"/>
                    <path id="Path_50" data-name="Path 50" d="M1.93,46.726H9.648a1.938,1.938,0,0,0,1.93-1.947V40.885a1.938,1.938,0,0,0-1.93-1.947H1.93A1.938,1.938,0,0,0,0,40.885v3.894A1.938,1.938,0,0,0,1.93,46.726Zm0-5.841H9.648v3.894H1.93Z" fill="#34758c"/>
                  </g>
                </g>
              </g>
            </g>
          </g>
        </g>
      </g>
    </g>
  </g>
</svg>
