<svg xmlns="http://www.w3.org/2000/svg" xmlns:xlink="http://www.w3.org/1999/xlink" width="165.55" height="161.96" viewBox="0 0 165.55 161.96">
  <defs>
    <filter id="Path" x="30.427" y="109.359" width="135.122" height="50.362" filterUnits="userSpaceOnUse">
      <feOffset dx="-3" dy="-3" input="SourceAlpha"/>
      <feGaussianBlur stdDeviation="3" result="blur"/>
      <feFlood flood-opacity="0.161"/>
      <feComposite operator="in" in2="blur"/>
      <feComposite in="SourceGraphic"/>
    </filter>
  </defs>
  <g id="_4" data-name="4" transform="translate(41.339 40.417)">
    <g id="_-1440---Desktop---Home---V2" data-name="-1440---Desktop---Home---V2" transform="translate(-293 -4661)">
      <g id="Slide-6" transform="translate(0 3915)">
        <g id="Group-8" transform="translate(180 162)">
          <g id="Content-Copy-4" transform="translate(0 534)">
            <path id="Path_53" data-name="Path 53" d="M57.719,0C86.407,0,129.44,71.166,115.1,94.888S14.686,118.61.342,94.888,29.03,0,57.719,0Z" transform="matrix(0.809, 0.588, -0.588, 0.809, 139.922, 11.056)" fill="rgba(52,117,140,0.15)"/>
            <g id="_576981" data-name="576981" transform="translate(113 50)">
              <path id="Path-2" data-name="Path" d="M103.828,109.361,99.686,100.6l5.1-8.733,13.454.025V88.452l-13.605-3.917A16.276,16.276,0,0,0,89.47,94.865L29.88,94.79A16.235,16.235,0,0,0,14.744,84.41L1.139,88.3v3.443l13.153.025,5.07,8.758L15.5,109.262,1.139,105.793v4.367c2.887,4.441,7.907,6.687,13.6,6.687a18.441,18.441,0,0,0,16.918-10.58l56,.075c3.163,7.436,9.513,10.6,16.416,10.6a17.334,17.334,0,0,0,14.132-7.586v-3.443Z" fill="#71a3b5" fill-rule="evenodd"/>
              <g transform="matrix(1, 0, 0, 1, -41.34, -40.42)" filter="url(#Path)">
                <path id="Path-3" data-name="Path" d="M89.445,102.9l-59.59-.05a16.261,16.261,0,0,1-28.766,2.944l14.383.025,5.1-8.733L15.5,88.327,1.114,88.3a16.238,16.238,0,0,1,28.741,3.019l59.59.075a16.261,16.261,0,0,1,28.766-2.944l-14.383-.025-5.1,8.733,5.071,8.758,14.383.025A16.23,16.23,0,0,1,89.445,102.9Z" transform="translate(41.34 40.42)" fill="#fff" fill-rule="evenodd"/>
              </g>
              <path id="Path-4" data-name="Path" d="M98.757,97.16l5.1-8.733,14.383.025A16.261,16.261,0,0,0,89.47,91.4H83.094L71.523,102.9l17.922.025a16.238,16.238,0,0,0,28.741,3.019l-14.383-.025Z" fill="#ebfaff" fill-rule="evenodd"/>
              <path id="Shape" d="M93.687,22.93l-.7-7.86H84.9l-.8,7.885a25.156,25.156,0,0,0-3.138.848l-4.593-6.512-7,4.017,3.313,7.311a23.116,23.116,0,0,0-2.209,2.221L63.038,27.4,59,34.358,65.624,39.1a28.461,28.461,0,0,0-.828,3.044l-8.183.724V50.9l8.158.823a27.974,27.974,0,0,0,.854,3.244L59,59.708l4.041,6.961,7.43-3.443a23.918,23.918,0,0,0,2.259,2.246l-3.364,7.336,7,4.017,4.644-6.612a21.641,21.641,0,0,0,3.087.823l.8,7.885h8.083l.7-7.86a23.392,23.392,0,0,0,3.213-.848l4.619,6.363,7-4.017-3.314-7.086a27.418,27.418,0,0,0,2.435-2.4l7.054,3.169,4.041-6.961-6.325-4.416a24.572,24.572,0,0,0,.878-3.294l7.656-.773V42.766l-7.681-.674a25.215,25.215,0,0,0-.828-3.069l6.325-4.416-4.116-6.862h-3.339l-3.715,3.169a23.639,23.639,0,0,0-2.385-2.37l3.289-7.011-7-4.042H98.155ZM89.621,54.668a7.661,7.661,0,1,1,7.054-7.011A7.69,7.69,0,0,1,89.621,54.668Z" fill="#245768"/>
              <path id="Shape-2" data-name="Shape" d="M117.558,50.876V42.841l-7.681-.674a25.225,25.225,0,0,0-.828-3.069l6.325-4.416-4.066-6.937-7.053,3.144a23.732,23.732,0,0,0-2.385-2.37l3.288-7.011-7-4.017-4.543,6.288a24.071,24.071,0,0,0-3.263-.848l-.7-7.86H81.563l-.8,7.885a25.156,25.156,0,0,0-3.138.848l-4.593-6.512-7,4.017,3.313,7.311A23.128,23.128,0,0,0,67.13,30.84L59.7,27.4l-4.041,6.961L62.285,39.1a28.484,28.484,0,0,0-.828,3.044l-8.183.724V50.9l8.158.823a27.994,27.994,0,0,0,.853,3.244l-6.627,4.741L59.7,66.67l7.43-3.443a23.93,23.93,0,0,0,2.259,2.246l-3.338,7.386,7,4.017L77.7,70.263a21.628,21.628,0,0,0,3.088.823l.8,7.885h8.083l.7-7.86a23.392,23.392,0,0,0,3.213-.848l4.619,6.362,7-4.017-3.313-7.086a27.418,27.418,0,0,0,2.435-2.4l7.053,3.169,4.042-6.961-6.4-4.416a24.572,24.572,0,0,0,.878-3.294ZM86.282,54.668a7.661,7.661,0,1,1,7.053-7.011A7.69,7.69,0,0,1,86.282,54.668Z" fill="#71a3b5"/>
              <path id="Shape-3" data-name="Shape" d="M37.084,60.731V57.563l-3.037-.274a9.724,9.724,0,0,0-.326-1.223l2.51-1.747-1.606-2.745-2.786,1.248a11.373,11.373,0,0,0-.954-.948l1.305-2.77-2.761-1.6L27.621,50a11.136,11.136,0,0,0-1.305-.349l-.276-3.119H22.826L22.5,49.653a10.27,10.27,0,0,0-1.255.324l-1.832-2.57L16.651,49,17.957,51.9c-.3.274-.6.574-.879.873L14.141,51.4l-1.607,2.745,2.636,1.871a10.608,10.608,0,0,0-.326,1.2l-3.213.324v3.169l3.238.324a6.78,6.78,0,0,0,.351,1.272l-2.636,1.871,1.606,2.745,2.937-1.372a10.2,10.2,0,0,0,.9.9l-1.355,2.969,2.761,1.6,1.832-2.62a9.88,9.88,0,0,0,1.23.324l.326,3.119h3.188l.276-3.119a12.027,12.027,0,0,0,1.28-.324l1.832,2.52,2.761-1.6L30.859,66.52a11.359,11.359,0,0,0,.954-.948L34.6,66.82l1.606-2.745L33.7,62.328a10.969,10.969,0,0,0,.351-1.3Zm-12.375,1.5a3.03,3.03,0,1,1,2.786-2.77A3.072,3.072,0,0,1,24.709,62.229Z" fill="#34758c"/>
              <path id="Path-5" data-name="Path" d="M52.5,120.465H44.765a5.784,5.784,0,0,1-5.8-5.764l-.025-33.26a5.784,5.784,0,0,1,5.8-5.764h7.731a5.784,5.784,0,0,1,5.8,5.764l.025,33.26A5.768,5.768,0,0,1,52.5,120.465Z" fill="#235263" fill-rule="evenodd"/>
              <path id="Path-6" data-name="Path" d="M49.383,70.887H45.091l-.025-50.451h4.292Z" fill="#75b3c9" fill-rule="evenodd"/>
              <path id="Path-7" data-name="Path" d="M46.371,70.887H42.079l-.025-50.451h4.292Z" fill="#fff" fill-rule="evenodd"/>
              <path id="Path-8" data-name="Path" d="M50.588,1.023l-7.505.025L40.1,15.17l2.385,6.762h9.011L53.6,15.145Z" fill="#75b3c9" fill-rule="evenodd"/>
              <path id="Path-9" data-name="Path" d="M47.5,1.048H40L36.983,15.17l2.41,6.762H48.4l2.109-6.787Z" fill="#fff" fill-rule="evenodd"/>
              <path id="Path-10" data-name="Path" d="M47.2,120.49H39.468a5.784,5.784,0,0,1-5.8-5.764l-.025-33.26a5.784,5.784,0,0,1,5.8-5.764h7.731a5.784,5.784,0,0,1,5.8,5.764L53,114.726A5.784,5.784,0,0,1,47.2,120.49Z" fill="#34758c" fill-rule="evenodd"/>
              <path id="Path-11" data-name="Path" d="M34.3,105.369V115.3a4.8,4.8,0,0,0,4.794,4.765h8.484A4.8,4.8,0,0,0,52.37,115.3l-.025-27.871Z" fill="#285f72" fill-rule="evenodd"/>
              <g id="Group" transform="translate(38.656 80.842)">
                <path id="Path-12" data-name="Path" d="M1.264,34.258A1.031,1.031,0,0,1,.235,33.235L.21,1.248a1.029,1.029,0,0,1,2.058,0l.025,31.988A1.047,1.047,0,0,1,1.264,34.258Z" fill="#202020" fill-rule="evenodd"/>
                <path id="Path-13" data-name="Path" d="M7.69,34.258a1.031,1.031,0,0,1-1.029-1.023L6.636,1.248a1.017,1.017,0,1,1,2.033,0l.025,31.988A.994.994,0,0,1,7.69,34.258Z" fill="#202020" fill-rule="evenodd"/>
              </g>
              <rect id="Rectangle" width="10.718" height="6.388" transform="translate(43.259 69.315)" fill="#235263"/>
              <rect id="Rectangle-2" data-name="Rectangle" width="10.718" height="6.388" transform="translate(37.962 69.315)" fill="#34758c"/>
              <path id="Path-14" data-name="Path" d="M117.558,50.876V42.841l-7.681-.674a25.225,25.225,0,0,0-.828-3.069l6.325-4.416-4.066-6.937-7.053,3.144-.979-1.048-12,11.927a7.649,7.649,0,0,1-5,12.875,7.728,7.728,0,0,1-5.9-2.046l-12,11.927c.326.3.653.624.979.9l-3.338,7.386,7,4.017,4.644-6.612a21.641,21.641,0,0,0,3.088.823l.8,7.885h8.083l.7-7.86a23.391,23.391,0,0,0,3.213-.848l4.619,6.363,7-4.017-3.313-7.086a27.554,27.554,0,0,0,2.435-2.4l7.053,3.169,4.042-6.961-6.376-4.366a24.572,24.572,0,0,0,.878-3.294Z" fill="#34758c" fill-rule="evenodd"/>
              <path id="Shape-4" data-name="Shape" d="M85.68,60.931a13.9,13.9,0,1,1,13.981-13.9A13.96,13.96,0,0,1,85.68,60.931Zm0-22.506a8.583,8.583,0,1,0,8.635,8.583A8.625,8.625,0,0,0,85.68,38.425Z" fill="#1e5568"/>
            </g>
          </g>
        </g>
      </g>
    </g>
  </g>
</svg>
