<svg xmlns="http://www.w3.org/2000/svg" xmlns:xlink="http://www.w3.org/1999/xlink" width="178.579" height="164.521" viewBox="0 0 178.579 164.521">
  <defs>
    <filter id="Path" x="88.243" y="80.199" width="38.568" height="34.454" filterUnits="userSpaceOnUse">
      <feOffset dy="3" input="SourceAlpha"/>
      <feGaussianBlur stdDeviation="3" result="blur"/>
      <feFlood flood-opacity="0.161"/>
      <feComposite operator="in" in2="blur"/>
      <feComposite in="SourceGraphic"/>
    </filter>
    <filter id="Path-2" x="17.389" y="82.256" width="76.616" height="30.34" filterUnits="userSpaceOnUse">
      <feOffset dy="3" input="SourceAlpha"/>
      <feGaussianBlur stdDeviation="3" result="blur-2"/>
      <feFlood flood-opacity="0.161"/>
      <feComposite operator="in" in2="blur-2"/>
      <feComposite in="SourceGraphic"/>
    </filter>
    <filter id="Path-3" x="76.005" y="82.255" width="27.05" height="30.34" filterUnits="userSpaceOnUse">
      <feOffset dy="3" input="SourceAlpha"/>
      <feGaussianBlur stdDeviation="3" result="blur-3"/>
      <feFlood flood-opacity="0.161"/>
      <feComposite operator="in" in2="blur-3"/>
      <feComposite in="SourceGraphic"/>
    </filter>
    <filter id="Path-4" x="28.337" y="33.705" width="90.83" height="58.651" filterUnits="userSpaceOnUse">
      <feOffset dy="3" input="SourceAlpha"/>
      <feGaussianBlur stdDeviation="3" result="blur-4"/>
      <feFlood flood-opacity="0.161"/>
      <feComposite operator="in" in2="blur-4"/>
      <feComposite in="SourceGraphic"/>
    </filter>
    <filter id="Path-5" x="0" y="45.389" width="89.628" height="109.53" filterUnits="userSpaceOnUse">
      <feOffset input="SourceAlpha"/>
      <feGaussianBlur stdDeviation="3" result="blur-5"/>
      <feFlood flood-opacity="0.161"/>
      <feComposite operator="in" in2="blur-5"/>
      <feComposite in="SourceGraphic"/>
    </filter>
    <filter id="Path-6" x="71.677" y="114.175" width="32.599" height="25.299" filterUnits="userSpaceOnUse">
      <feOffset dy="3" input="SourceAlpha"/>
      <feGaussianBlur stdDeviation="3" result="blur-6"/>
      <feFlood flood-opacity="0.161"/>
      <feComposite operator="in" in2="blur-6"/>
      <feComposite in="SourceGraphic"/>
    </filter>
    <filter id="Oval" x="46.507" y="108.75" width="43.451" height="43.451" filterUnits="userSpaceOnUse">
      <feOffset dy="3" input="SourceAlpha"/>
      <feGaussianBlur stdDeviation="3" result="blur-7"/>
      <feFlood flood-opacity="0.161"/>
      <feComposite operator="in" in2="blur-7"/>
      <feComposite in="SourceGraphic"/>
    </filter>
    <filter id="Oval-2" x="85.924" y="108.75" width="43.451" height="43.451" filterUnits="userSpaceOnUse">
      <feOffset dy="3" input="SourceAlpha"/>
      <feGaussianBlur stdDeviation="3" result="blur-8"/>
      <feFlood flood-opacity="0.161"/>
      <feComposite operator="in" in2="blur-8"/>
      <feComposite in="SourceGraphic"/>
    </filter>
  </defs>
  <g id="_5" data-name="5" transform="translate(-1.523 38.559)">
    <g id="_-1440---Desktop---Home---V2" data-name="-1440---Desktop---Home---V2" transform="translate(-662 -4661)">
      <g id="Slide-6" transform="translate(0 3915)">
        <g id="Group-8" transform="translate(180 162)">
          <g id="Content-Copy-5" transform="translate(375 534)">
            <path id="Path_54" data-name="Path 54" d="M57.719,0C86.407,0,129.44,71.166,115.1,94.888S14.686,118.61.342,94.888,29.03,0,57.719,0Z" transform="translate(285.524 84.301) rotate(129)" fill="rgba(52,117,140,0.15)"/>
            <g id="_577008" data-name="577008" transform="translate(107 50)">
              <rect id="Rectangle" width="6.17" height="7.815" transform="translate(94.653 51.959)" fill="#d7ecf9"/>
              <g transform="matrix(1, 0, 0, 1, 1.52, -38.56)" filter="url(#Path)">
                <path id="Path-7" data-name="Path" d="M119.334,57.924V53.81l-14.912-6.17-5.656,4.114V59.98l5.656,4.114Z" transform="translate(-1.52 38.56)" fill="#266277" fill-rule="evenodd"/>
              </g>
              <circle id="Oval-3" data-name="Oval" cx="2.057" cy="2.057" r="2.057" transform="translate(104.936 53.81)" fill="#d7ecf9"/>
              <g transform="matrix(1, 0, 0, 1, 1.52, -38.56)" filter="url(#Path-2)">
                <path id="Path-8" data-name="Path" d="M86.529,49.7,27.913,53.3v4.113l58.616,4.628Z" transform="translate(-1.52 38.56)" fill="#34758c" fill-rule="evenodd"/>
              </g>
              <g transform="matrix(1, 0, 0, 1, 1.52, -38.56)" filter="url(#Path-3)">
                <path id="Path-9" data-name="Path" d="M95.578,59.895V51.839A2.143,2.143,0,0,0,93.436,49.7H86.529v12.34h6.907A2.142,2.142,0,0,0,95.578,59.895Z" transform="translate(-1.52 38.56)" fill="#285f72" fill-rule="evenodd"/>
              </g>
              <g id="Group" transform="translate(38.75 1)">
                <g transform="matrix(1, 0, 0, 1, -37.23, -39.56)" filter="url(#Path-4)">
                  <path id="Path-10" data-name="Path" d="M.11,40.8a9.75,9.75,0,0,0,9.75-9.75V.146H72.94v30.9a9.75,9.75,0,0,1-9.75,9.75Z" transform="translate(37.23 39.56)" fill="#d7ecf9" fill-rule="evenodd"/>
                </g>
              </g>
              <path id="Path-11" data-name="Path" d="M111.69,1.145H100.708L60.056,41.8H101.94a9.75,9.75,0,0,0,9.75-9.75Z" fill="#b3d4e5" fill-rule="evenodd"/>
              <path id="Path-12" data-name="Path" d="M82.151,15.83a9.75,9.75,0,0,1,9.75,9.75v6.465a9.75,9.75,0,0,0,9.75,9.75H65.663V15.83H82.151" fill="#34758c" fill-rule="evenodd"/>
              <g transform="matrix(1, 0, 0, 1, 1.52, -38.56)" filter="url(#Path-5)">
                <path id="Path-13" data-name="Path" d="M72.4,107.36V25.58a9.75,9.75,0,0,1,9.75-9.75H20.274a9.75,9.75,0,0,0-9.75,9.75v81.78Z" transform="translate(-1.52 38.56)" fill="#d7ecf9" fill-rule="evenodd"/>
              </g>
              <circle id="Oval-4" data-name="Oval" cx="7" cy="7" r="7" transform="translate(33 23.67)" fill="#34758c"/>
              <path id="Path-14" data-name="Path" d="M10.524,107.36H72.4V25.58a9.773,9.773,0,0,1,.218-2.052l-62.1,62.1Z" fill="#b3d4e5" fill-rule="evenodd"/>
              <g id="Group-2" data-name="Group" transform="translate(23 71)">
                <path id="Path-15" data-name="Path" d="M33.622,2.029H1.23a1.007,1.007,0,1,1,0-2.014H33.622a1.007,1.007,0,1,1,0,2.014Z" fill="#34758c" fill-rule="evenodd"/>
                <path id="Path-16" data-name="Path" d="M33.622,7.452H1.23a1.007,1.007,0,1,1,0-2.014H33.622a1.007,1.007,0,0,1,0,2.014Z" fill="#34758c" fill-rule="evenodd"/>
                <path id="Path-17" data-name="Path" d="M33.622,12.874H1.23a1.007,1.007,0,1,1,0-2.014H33.622a1.007,1.007,0,0,1,0,2.014Z" fill="#34758c" fill-rule="evenodd"/>
                <path id="Path-18" data-name="Path" d="M33.622,18.3H1.23a1.007,1.007,0,1,1,0-2.014H33.622a1.007,1.007,0,0,1,0,2.014Z" fill="#34758c" fill-rule="evenodd"/>
              </g>
              <g id="Group-Copy" transform="translate(23 43.537)">
                <path id="Path-19" data-name="Path" d="M33.622,2.029H1.23a1.007,1.007,0,1,1,0-2.014H33.622a1.007,1.007,0,1,1,0,2.014Z" fill="#34758c" fill-rule="evenodd"/>
                <path id="Path-20" data-name="Path" d="M33.622,7.452H1.23a1.007,1.007,0,1,1,0-2.014H33.622a1.007,1.007,0,0,1,0,2.014Z" fill="#34758c" fill-rule="evenodd"/>
                <path id="Path-21" data-name="Path" d="M33.622,12.874H1.23a1.007,1.007,0,1,1,0-2.014H33.622a1.007,1.007,0,0,1,0,2.014Z" fill="#34758c" fill-rule="evenodd"/>
                <path id="Path-22" data-name="Path" d="M33.622,18.3H1.23a1.007,1.007,0,1,1,0-2.014H33.622a1.007,1.007,0,0,1,0,2.014Z" fill="#34758c" fill-rule="evenodd"/>
              </g>
              <g id="Group-3" data-name="Group" transform="translate(57 76)">
                <g transform="matrix(1, 0, 0, 1, -55.48, -114.56)" filter="url(#Path-6)">
                  <path id="Path-23" data-name="Path" d="M25.2,12.915a7.3,7.3,0,0,1,14.6,0" transform="translate(55.48 114.56)" fill="#fff" fill-rule="evenodd"/>
                </g>
                <g transform="matrix(1, 0, 0, 1, -55.48, -114.56)" filter="url(#Oval)">
                  <circle id="Oval-5" data-name="Oval" cx="12.725" cy="12.725" r="12.725" transform="translate(55.51 114.75)" fill="#fff"/>
                </g>
              </g>
              <path id="Path-24" data-name="Path" d="M79.446,80.672,61.512,98.605A12.722,12.722,0,0,0,79.446,80.672Z" fill="#71a3b5" fill-rule="evenodd"/>
              <g transform="matrix(1, 0, 0, 1, 1.52, -38.56)" filter="url(#Oval-2)">
                <circle id="Oval-6" data-name="Oval" cx="12.725" cy="12.725" r="12.725" transform="translate(94.92 114.75)" fill="#fff"/>
              </g>
              <path id="Path-25" data-name="Path" d="M119.024,80.871l-17.9,17.9a12.718,12.718,0,0,0,17.9-17.9Z" fill="#71a3b5" fill-rule="evenodd"/>
              <path id="Path-26" data-name="Path" d="M64.782,92.735a1.007,1.007,0,0,1-.712-1.719l7.595-7.594a1.007,1.007,0,0,1,1.424,1.424L65.493,92.44A1,1,0,0,1,64.782,92.735Z" fill="#34758c" fill-rule="evenodd"/>
              <path id="Path-27" data-name="Path" d="M63.355,87.364a1.007,1.007,0,0,1-.712-1.719l3.483-3.482a1.007,1.007,0,0,1,1.424,1.424l-3.483,3.483A1,1,0,0,1,63.355,87.364Z" fill="#34758c" fill-rule="evenodd"/>
              <path id="Path-28" data-name="Path" d="M104.475,92.735a1.007,1.007,0,0,1-.712-1.719l7.6-7.594a1.007,1.007,0,0,1,1.424,1.424l-7.6,7.595A1,1,0,0,1,104.475,92.735Z" fill="#34758c" fill-rule="evenodd"/>
              <path id="Path-29" data-name="Path" d="M103.049,87.364a1.007,1.007,0,0,1-.712-1.719l3.482-3.482a1.007,1.007,0,0,1,1.424,1.424l-3.483,3.483A1,1,0,0,1,103.049,87.364Z" fill="#34758c" fill-rule="evenodd"/>
            </g>
          </g>
        </g>
      </g>
    </g>
  </g>
</svg>
