<svg xmlns="http://www.w3.org/2000/svg" xmlns:xlink="http://www.w3.org/1999/xlink" width="190.659" height="161.277" viewBox="0 0 190.659 161.277">
  <defs>
    <filter id="Rectangle_61" x="55.659" y="17.72" width="135" height="107" filterUnits="userSpaceOnUse">
      <feOffset dx="2" dy="-2" input="SourceAlpha"/>
      <feGaussianBlur stdDeviation="6" result="blur"/>
      <feFlood flood-opacity="0.161"/>
      <feComposite operator="in" in2="blur"/>
      <feComposite in="SourceGraphic"/>
    </filter>
    <filter id="Path_56" x="20.805" y="48.691" width="45.458" height="78.984" filterUnits="userSpaceOnUse">
      <feOffset dy="3" input="SourceAlpha"/>
      <feGaussianBlur stdDeviation="3" result="blur-2"/>
      <feFlood flood-opacity="0.161"/>
      <feComposite operator="in" in2="blur-2"/>
      <feComposite in="SourceGraphic"/>
    </filter>
    <filter id="Path_57" x="52.171" y="48.897" width="62.324" height="79.087" filterUnits="userSpaceOnUse">
      <feOffset dy="3" input="SourceAlpha"/>
      <feGaussianBlur stdDeviation="3" result="blur-3"/>
      <feFlood flood-opacity="0.161"/>
      <feComposite operator="in" in2="blur-3"/>
      <feComposite in="SourceGraphic"/>
    </filter>
    <filter id="Path_59" x="38.191" y="94.544" width="42.47" height="64.189" filterUnits="userSpaceOnUse">
      <feOffset dy="3" input="SourceAlpha"/>
      <feGaussianBlur stdDeviation="3" result="blur-4"/>
      <feFlood flood-opacity="0.161"/>
      <feComposite operator="in" in2="blur-4"/>
      <feComposite in="SourceGraphic"/>
    </filter>
    <filter id="Path_60" x="41.523" y="25.563" width="35.395" height="42.364" filterUnits="userSpaceOnUse">
      <feOffset dy="3" input="SourceAlpha"/>
      <feGaussianBlur stdDeviation="3" result="blur-5"/>
      <feFlood flood-opacity="0.161"/>
      <feComposite operator="in" in2="blur-5"/>
      <feComposite in="SourceGraphic"/>
    </filter>
    <filter id="Path_69" x="65.095" y="64.517" width="49.624" height="27.686" filterUnits="userSpaceOnUse">
      <feOffset dy="3" input="SourceAlpha"/>
      <feGaussianBlur stdDeviation="3" result="blur-6"/>
      <feFlood flood-opacity="0.161"/>
      <feComposite operator="in" in2="blur-6"/>
      <feComposite in="SourceGraphic"/>
    </filter>
    <filter id="Path_81" x="97.514" y="60.424" width="30.84" height="27.844" filterUnits="userSpaceOnUse">
      <feOffset dy="3" input="SourceAlpha"/>
      <feGaussianBlur stdDeviation="3" result="blur-7"/>
      <feFlood flood-opacity="0.161"/>
      <feComposite operator="in" in2="blur-7"/>
      <feComposite in="SourceGraphic"/>
    </filter>
    <filter id="Path_83" x="96.521" y="60.438" width="31.731" height="27.95" filterUnits="userSpaceOnUse">
      <feOffset dy="3" input="SourceAlpha"/>
      <feGaussianBlur stdDeviation="3" result="blur-8"/>
      <feFlood flood-opacity="0.161"/>
      <feComposite operator="in" in2="blur-8"/>
      <feComposite in="SourceGraphic"/>
    </filter>
  </defs>
  <g id="_6" data-name="6" transform="translate(24.799 -202.182)">
    <path id="Path_64" data-name="Path 64" d="M73.192,0c34.865,0,87.161,82.843,69.729,110.457s-122.026,27.614-139.458,0S38.327,0,73.192,0Z" transform="translate(105.391 202.182) rotate(83)" fill="rgba(52,117,140,0.15)"/>
    <g transform="matrix(1, 0, 0, 1, -24.8, 202.18)" filter="url(#Rectangle_61)">
      <g id="Rectangle_61-2" data-name="Rectangle 61" transform="translate(71.66 37.72)" fill="#fff" stroke="#34758c" stroke-width="1">
        <rect width="99" height="71" rx="3" stroke="none"/>
        <rect x="0.5" y="0.5" width="98" height="70" rx="2.5" fill="none"/>
      </g>
    </g>
    <rect id="Rectangle_63" data-name="Rectangle 63" width="24" height="61" transform="translate(48.86 247.902)" fill="#dbf2fb"/>
    <rect id="Rectangle_62" data-name="Rectangle 62" width="95" height="5" transform="translate(48.86 241.902)" fill="#dbf2fb"/>
    <g transform="matrix(1, 0, 0, 1, -24.8, 202.18)" filter="url(#Path_56)">
      <path id="Path_56-2" data-name="Path 56" d="M10.44,329.838l7.4.309L19.7,314l5.348-11.21,1.234,12.032-4.525,22.111,10.49,4.011L37.9,312.56l-3.188-32.6-2.468,2.777-10.181,3.5-9.256,24.682Z" transform="translate(19.37 -225.27)" fill="#34758c"/>
    </g>
    <g transform="matrix(1, 0, 0, 1, -24.8, 202.18)" filter="url(#Path_57)">
      <path id="Path_57-2" data-name="Path 57" d="M68.425,280.32,65.34,312.509l4.525,28.9,11-4.319-3.7-21.082,1.543-16.969,12.752,5.553,18.2-3.085-.514-7.2-15.426,1.543-12.855-9.77-9.77-3.085Z" transform="translate(-4.17 -225.42)" fill="#34758c"/>
    </g>
    <path id="Path_58" data-name="Path 58" d="M59.528,285.36l-1.954,2.7.72,1.689-1.234,11.6,2.567,4.047,2.561-4.047-1.056-11.6L62,287.836Z" transform="translate(-25.418 -25.9)" fill="#b2d2de"/>
    <path id="Path_70" data-name="Path 70" d="M60.5,286.275l-2.139,2.245.951,2.271-1.241,11.619,2.218,3.433,2.271-3.433-1.03-11.619,1.162-2.271Z" transform="translate(-26.418 -26.9)" fill="#c5e1eb"/>
    <g transform="matrix(1, 0, 0, 1, -24.8, 202.18)" filter="url(#Path_59)">
      <path id="Path_59-2" data-name="Path 59" d="M48.055,364.284l2.21,1.27L52.4,360.4l2.6,4.95,2.262-.823L59.026,376.4l6.356-2.514-.206,31.881-9.976.514-2.057-34.246-2.262,34.554-9.461-.206-.508-32.212L45.6,376Z" transform="translate(6.28 -259.85)" fill="#34758c"/>
    </g>
    <g transform="matrix(1, 0, 0, 1, -24.8, 202.18)" filter="url(#Path_60)">
      <path id="Path_60-2" data-name="Path 60" d="M48.3,250.472c-.211-.291-.637-.983-1.024-.68s-.7.663-.524,1.891a11.806,11.806,0,0,0,.809,2.557c.413.738.385,0,.842.4a18.488,18.488,0,0,0,2.982,6.222c1.166,1.571,2.2,2.925,3.7,2.982,1.371.051,2.417-1,3.342-1.954a14.188,14.188,0,0,0,3.651-7.4.788.788,0,0,0,.694.306,4.783,4.783,0,0,0,1.28-3.027c.284-1.747-.96-1.87-1.639-1.265a12.741,12.741,0,0,0,.8-2.34,7.8,7.8,0,0,0-1.286-5.759,7.451,7.451,0,0,0-5.965-2.92,6.608,6.608,0,0,0-1.9.3,7.152,7.152,0,0,0-3.651,2.777l-.183-.034a3.811,3.811,0,0,0-.731-.051,2.081,2.081,0,0,0-1.194.343c-1.428.977-1.64,3.971,0,7.662" transform="translate(3.82 -207.92)" fill="#ffee97"/>
    </g>
    <path id="Path_63" data-name="Path 63" d="M62.626,251.03s-.36-2.913-.989-3.49c-.571-.52-1.663.72-3.548.977-3.554.486-5.776-3.108-7.3-2.211-1.325.777-.486,3.1-1.994,4.3-1.64-3.691-1.754-6.761-.326-7.738a3.2,3.2,0,0,1,1.5-.528,5.386,5.386,0,0,1,.731.13c.006-.011.2-.261.2-.272a5.954,5.954,0,0,1,3.327-2.419,6.513,6.513,0,0,1,2.108-.3,7.584,7.584,0,0,1,5.919,2.716,6.273,6.273,0,0,1,1.483,3.879,10.411,10.411,0,0,1-.224,2.58" transform="translate(-21.357 -5.733)" fill="#202020"/>
    <path id="Path_65" data-name="Path 65" d="M4.859,2,7.024-3.128l.7,11.413L5.373,42.992l-5-.49L.177,12.44,2.641.728Z" transform="translate(26.86 305.902)" fill="#265b6e"/>
    <path id="Path_66" data-name="Path 66" d="M7.785,11.34V43.2H3.275L-.157,2,1.706,13.987Z" transform="translate(38.86 304.902)" fill="#265b6e"/>
    <path id="Path_67" data-name="Path 67" d="M9.814,4.969,8.421,21.852l3.713,21.059L1,47.32-2.253,26.376.59,18.6Z" transform="translate(39.86 270.902)" fill="#265b6e"/>
    <path id="Path_71" data-name="Path 71" d="M7.4.86,9.316,20.138l1.2,13.3S7.328,23.576,5.786,17.2,4.354,9.786,4.354,7.92a20.625,20.625,0,0,1,.6-4.224Z" transform="translate(21.86 255.902)" fill="#265b6e"/>
    <path id="Path_72" data-name="Path 72" d="M7.453.86l-1.9,19.278-1.2,13.3s3.169-9.861,4.7-16.241,1.422-7.41,1.422-9.276a20.766,20.766,0,0,0-.6-4.224Z" transform="translate(32.028 255.902)" fill="#265b6e"/>
    <path id="Path_68" data-name="Path 68" d="M10.955,12.24,5.434,23.957,3.586,40.167l-4.713-.223,3.4-15.622Z" transform="translate(8.86 266.902)" fill="#265b6e"/>
    <g transform="matrix(1, 0, 0, 1, -24.8, 202.18)" filter="url(#Path_69)">
      <path id="Path_69-2" data-name="Path 69" d="M10.564,12.672,6.9,25.82l6.728,17.54-3.979.557L5.564,25.889Z" transform="translate(61.15 83.46) rotate(-87)" fill="#265b6e"/>
    </g>
    <rect id="Rectangle_64" data-name="Rectangle 64" width="4" height="22" transform="translate(74.86 247.902)" fill="#34758c"/>
    <rect id="Rectangle_67" data-name="Rectangle 67" width="4" height="3" transform="translate(49.86 242.902)" fill="#34758c"/>
    <rect id="Rectangle_68" data-name="Rectangle 68" width="68" height="2" transform="translate(74.86 290.902)" fill="#e6f0f3"/>
    <rect id="Rectangle_73" data-name="Rectangle 73" width="30" height="14" transform="translate(93.86 248.902)" fill="#e6f0f3"/>
    <rect id="Rectangle_74" data-name="Rectangle 74" width="30" height="14" transform="translate(92.86 264.902)" fill="#e6f0f3"/>
    <rect id="Rectangle_75" data-name="Rectangle 75" width="49" height="14" transform="translate(93.86 264.902)" fill="#e6f0f3"/>
    <rect id="Rectangle_77" data-name="Rectangle 77" width="17" height="14" transform="translate(126.86 248.902)" fill="#e6f0f3"/>
    <rect id="Rectangle_76" data-name="Rectangle 76" width="68" height="6" transform="translate(74.86 281.902)" fill="#e6f0f3"/>
    <rect id="Rectangle_69" data-name="Rectangle 69" width="68" height="2" transform="translate(74.86 295.902)" fill="#e6f0f3"/>
    <rect id="Rectangle_70" data-name="Rectangle 70" width="68" height="2" transform="translate(74.86 300.902)" fill="#e6f0f3"/>
    <rect id="Rectangle_71" data-name="Rectangle 71" width="68" height="2" transform="translate(74.86 305.902)" fill="#e6f0f3"/>
    <rect id="Rectangle_65" data-name="Rectangle 65" width="4" height="15" transform="translate(80.86 254.902)" fill="#34758c"/>
    <rect id="Rectangle_66" data-name="Rectangle 66" width="4" height="19" transform="translate(86.86 250.902)" fill="#34758c"/>
    <rect id="Rectangle_78" data-name="Rectangle 78" width="3" height="16" transform="translate(63.86 309.902)" fill="#30505b"/>
    <rect id="Rectangle_81" data-name="Rectangle 81" width="3" height="16" transform="translate(115.86 309.902)" fill="#30505b"/>
    <rect id="Rectangle_79" data-name="Rectangle 79" width="3" height="16" transform="translate(71.86 309.902)" fill="#30505b"/>
    <rect id="Rectangle_80" data-name="Rectangle 80" width="3" height="16" transform="translate(123.86 309.902)" fill="#30505b"/>
    <path id="Path_80" data-name="Path 80" d="M6.278.087A10.133,10.133,0,0,1,7.686,3.211c.112,1.141-.583.636-.927,1.716-.131.464-.043,1.785-.858,1.785-.2,0-.39.011-1.2,0-.344,0-.39.432-1.2.377-.379-.024-.72-.535-1.545-.755-.687.412-2.146-.268-2.575-.755C-1.24,4.891.477-.153.477-.153Z" transform="translate(4.86 307.902)" fill="#efde88"/>
    <g transform="matrix(1, 0, 0, 1, -24.8, 202.18)" filter="url(#Path_81)">
      <path id="Path_81-2" data-name="Path 81" d="M6.278.087a8.239,8.239,0,0,1,1.412,2.9c.112,1.141-.818.765-1.162,1.845-.131.464.058,6.671-.848,6.91-1.065.1-.169-5.02-.981-5.031-.344,0-.493-.106-1.3-.16-.379-.024-.557-.429-1.381-.649-.687.412-2.208-.408-2.637-.9C-1.242,4.318.477-.153.477-.153Z" transform="translate(107.6 75.5) rotate(-97)" fill="#efde88"/>
    </g>
    <path id="Path_82" data-name="Path 82" d="M6.278.087A10.133,10.133,0,0,1,7.686,3.211c.112,1.141-.583.636-.927,1.716-.131.464-.043,1.785-.858,1.785-.2,0-.39.011-1.2,0-.344,0-.39.432-1.2.377-.379-.024-.72-.535-1.545-.755-.687.412-2.146-.268-2.575-.755C-1.24,4.891.477-.153.477-.153Z" transform="translate(4.86 306.902)" fill="#ffee97"/>
    <g transform="matrix(1, 0, 0, 1, -24.8, 202.18)" filter="url(#Path_83)">
      <path id="Path_83-2" data-name="Path 83" d="M6.278.087A10.133,10.133,0,0,1,7.686,3.211c.112,1.141-.583.636-.927,1.716-.131.464-.132,7.715-.947,7.715-1.118.038-.05-5.363-.862-5.374-.344,0-.64-.124-1.452-.178-.379-.024-.72-.535-1.545-.755-.687.412-2.146-.268-2.575-.755C-1.24,4.891.477-.153.477-.153Z" transform="translate(106.61 75.62) rotate(-97)" fill="#ffee97"/>
    </g>
  </g>
</svg>
