<svg xmlns="http://www.w3.org/2000/svg" xmlns:xlink="http://www.w3.org/1999/xlink" width="159.388" height="161.861" viewBox="0 0 159.388 161.861">
  <defs>
    <filter id="Path" x="11.97" y="59.863" width="53.296" height="34.489" filterUnits="userSpaceOnUse">
      <feOffset dy="3" input="SourceAlpha"/>
      <feGaussianBlur stdDeviation="3" result="blur"/>
      <feFlood flood-opacity="0.161"/>
      <feComposite operator="in" in2="blur"/>
      <feComposite in="SourceGraphic"/>
    </filter>
    <filter id="Path-2" x="85.311" y="32.103" width="31.058" height="31.084" filterUnits="userSpaceOnUse">
      <feOffset dy="3" input="SourceAlpha"/>
      <feGaussianBlur stdDeviation="3" result="blur-2"/>
      <feFlood flood-opacity="0.161"/>
      <feComposite operator="in" in2="blur-2"/>
      <feComposite in="SourceGraphic"/>
    </filter>
    <filter id="Path-3" x="33.219" y="36.789" width="78.473" height="78.591" filterUnits="userSpaceOnUse">
      <feOffset dy="3" input="SourceAlpha"/>
      <feGaussianBlur stdDeviation="3" result="blur-3"/>
      <feFlood flood-opacity="0.161"/>
      <feComposite operator="in" in2="blur-3"/>
      <feComposite in="SourceGraphic"/>
    </filter>
    <filter id="Path-3-2" x="53.862" y="83.326" width="34.85" height="53.902" filterUnits="userSpaceOnUse">
      <feOffset dy="3" input="SourceAlpha"/>
      <feGaussianBlur stdDeviation="3" result="blur-4"/>
      <feFlood flood-opacity="0.161"/>
      <feComposite operator="in" in2="blur-4"/>
      <feComposite in="SourceGraphic"/>
    </filter>
    <filter id="Star" x="111.792" y="28.368" width="37.972" height="36.995" filterUnits="userSpaceOnUse">
      <feOffset dy="3" input="SourceAlpha"/>
      <feGaussianBlur stdDeviation="3" result="blur-5"/>
      <feFlood flood-opacity="0.161"/>
      <feComposite operator="in" in2="blur-5"/>
      <feComposite in="SourceGraphic"/>
    </filter>
    <filter id="Star-Copy-5" x="39.596" y="18.368" width="30.364" height="29.759" filterUnits="userSpaceOnUse">
      <feOffset dy="3" input="SourceAlpha"/>
      <feGaussianBlur stdDeviation="3" result="blur-6"/>
      <feFlood flood-opacity="0.161"/>
      <feComposite operator="in" in2="blur-6"/>
      <feComposite in="SourceGraphic"/>
    </filter>
    <filter id="Star-Copy-6" x="87.596" y="82.368" width="30.364" height="29.759" filterUnits="userSpaceOnUse">
      <feOffset dy="3" input="SourceAlpha"/>
      <feGaussianBlur stdDeviation="3" result="blur-7"/>
      <feFlood flood-opacity="0.161"/>
      <feComposite operator="in" in2="blur-7"/>
      <feComposite in="SourceGraphic"/>
    </filter>
  </defs>
  <g id="_7" data-name="7" transform="translate(18.278 21.368)">
    <g id="_-1440---Desktop---Home---V2" data-name="-1440---Desktop---Home---V2" transform="translate(-1045 -4668)">
      <g id="Slide-6" transform="translate(0 3915)">
        <g id="Group-8" transform="translate(180 162)">
          <g id="Content-Copy-6" transform="translate(750 534)">
            <path id="Path_55" data-name="Path 55" d="M57.719,0C86.407,0,129.44,71.166,115.1,94.888S14.686,118.61.342,94.888,29.03,0,57.719,0Z" transform="matrix(-0.53, 0.848, -0.848, -0.53, 254.782, 97.47)" fill="rgba(52,117,140,0.15)"/>
            <g id="Group-7" transform="translate(115 60)">
              <g id="rocket">
                <g id="_912269" data-name="912269" transform="translate(0 11)">
                  <path id="Path-4" data-name="Path" d="M13.5,66.184a1.343,1.343,0,0,0-1.9,0L7.024,70.766a1.346,1.346,0,1,0,1.9,1.906L13.5,68.09A1.349,1.349,0,0,0,13.5,66.184Z" fill="#34758c" fill-rule="evenodd"/>
                  <path id="Path-5" data-name="Path" d="M17.949,70.642a1.343,1.343,0,0,0-1.9,0l-4.573,4.582a1.346,1.346,0,0,0,1.9,1.906l4.573-4.582A1.349,1.349,0,0,0,17.949,70.642Z" fill="#34758c" fill-rule="evenodd"/>
                  <path id="Path-6" data-name="Path" d="M26.847,79.557a1.343,1.343,0,0,0-1.9,0l-4.573,4.582a1.346,1.346,0,0,0,1.9,1.906l4.573-4.582A1.349,1.349,0,0,0,26.847,79.557Z" fill="#34758c" fill-rule="evenodd"/>
                  <path id="Path-7" data-name="Path" d="M22.4,75.1a1.343,1.343,0,0,0-1.9,0l-4.573,4.582a1.346,1.346,0,1,0,1.9,1.906L22.4,77.005A1.349,1.349,0,0,0,22.4,75.1Z" fill="#34758c" fill-rule="evenodd"/>
                  <path id="Path-8" data-name="Path" d="M21.422,65.587a3.438,3.438,0,0,0-.448.556l-3.4-3.4a.649.649,0,0,1,0-.9l3.313-3.319,3.793,3.8Z" fill="#b3d4e5"/>
                  <path id="Path-9" data-name="Path" d="M30.1,74.388a.642.642,0,0,1-.9,0l-3.4-3.4a3.43,3.43,0,0,0,.555-.449l3.262-3.268,3.793,3.8Z" fill="#b3d4e5"/>
                  <g transform="matrix(1, 0, 0, 1, -18.28, -35.37)" filter="url(#Path)">
                    <path id="Path-10" data-name="Path" d="M2.948,45.357a.277.277,0,0,1-.172-.474A48.129,48.129,0,0,1,32.757,30.935l5.231-.441L21.531,46.984Z" transform="translate(18.28 35.37)" fill="#34758c"/>
                  </g>
                  <path id="Path-11" data-name="Path" d="M22.039,50.287l7.327,7.341-2.78,2.785c-2.9-2.908-6.677-6.686-7.329-7.339Z" fill="#34758c"/>
                  <path id="Path-12" data-name="Path" d="M24.525,68.564a.8.8,0,0,1-1.135-1.137L50.2,40.564A.8.8,0,0,1,51.336,41.7L33.354,59.718Z" fill="#34758c"/>
                  <path id="Path-13" data-name="Path" d="M38.938,72.618l-.009.006a.121.121,0,0,1-.162-.006l-7.241-7.255,2.779-2.785,7.327,7.341Z" fill="#34758c"/>
                  <g transform="matrix(1, 0, 0, 1, -18.28, -35.37)" filter="url(#Path-2)">
                    <path id="Path-14" data-name="Path" d="M85.275,15.818,76.033,6.559,89.092,2.734Z" transform="translate(18.28 35.37)" fill="#34758c"/>
                  </g>
                  <g transform="matrix(1, 0, 0, 1, -18.28, -35.37)" filter="url(#Path-3)">
                    <path id="Path-15" data-name="Path" d="M81,30.475,43.535,68.012l-7.327-7.341,17.1-17.13a3.5,3.5,0,0,0-4.94-4.949l-17.1,17.13-7.327-7.341L61.406,10.843,73.089,7.421,84.414,18.768Z" transform="translate(18.28 35.37)" fill="#fff"/>
                  </g>
                  <circle id="Oval" cx="7" cy="7" r="7" transform="translate(57 21)" fill="#34758c"/>
                  <g transform="matrix(1, 0, 0, 1, -18.28, -35.37)" filter="url(#Path-3-2)">
                    <path id="Path-3-3" data-name="Path-3" d="M44.584,70.6q2.27-2.919,16.84-16.64.394,18.831-14.57,35.9S44.584,71.982,44.584,70.6Z" transform="translate(18.28 35.37)" fill="#34758c"/>
                  </g>
                </g>
              </g>
              <g transform="matrix(1, 0, 0, 1, -18.28, -24.37)" filter="url(#Star)">
                <path id="Star-2" data-name="Star" d="M112.5,25.75l-6.172,3.245,1.179-6.872-4.993-4.867,6.9-1L112.5,10l3.086,6.253,6.9,1-4.993,4.867,1.179,6.872Z" transform="translate(18.28 24.37)" fill="#34758c"/>
              </g>
              <g transform="matrix(1, 0, 0, 1, -18.28, -24.37)" filter="url(#Star-Copy-5)">
                <path id="Star-Copy-5-2" data-name="Star-Copy-5" d="M36.5,9.75l-3.821,2.009.73-4.254L30.318,4.491l4.272-.621L36.5,0l1.91,3.871,4.272.621L39.591,7.5l.73,4.254Z" transform="translate(18.28 24.37)" fill="#34758c"/>
              </g>
              <g transform="matrix(1, 0, 0, 1, -18.28, -24.37)" filter="url(#Star-Copy-6)">
                <path id="Star-Copy-6-2" data-name="Star-Copy-6" d="M84.5,73.75l-3.821,2.009.73-4.254-3.091-3.013,4.272-.621L84.5,64l1.91,3.871,4.272.621L87.591,71.5l.73,4.254Z" transform="translate(18.28 24.37)" fill="#34758c"/>
              </g>
            </g>
          </g>
        </g>
      </g>
    </g>
  </g>
</svg>
