<?xml version="1.0" encoding="utf-8"?>
<!-- Generator: Adobe Illustrator 23.0.2, SVG Export Plug-In . SVG Version: 6.00 Build 0)  -->
<svg version="1.1" id="Layer_1" xmlns="http://www.w3.org/2000/svg" xmlns:xlink="http://www.w3.org/1999/xlink" x="0px" y="0px"
	 viewBox="0 0 50 50" style="enable-background:new 0 0 50 50;" xml:space="preserve">
<style type="text/css">
	.st0{fill:none;}
	.st1{fill:#202020;}
</style>
<g id="Group_3" transform="translate(-412 -4122)">
	<g id="Ellipse_10" transform="translate(412 4122)">
		<g>
			<g>
				<circle class="st0" cx="25" cy="25" r="25"/>
			</g>
		</g>
		<g>
			<g>
				<path class="st1" d="M25,50C11.2,50,0,38.8,0,25C0,11.2,11.2,0,25,0s25,11.2,25,25C50,38.8,38.8,50,25,50z M25,2
					C12.3,2,2,12.3,2,25s10.3,23,23,23c12.7,0,23-10.3,23-23S37.7,2,25,2z"/>
			</g>
		</g>
	</g>
	<g id="Path_12">
		<g>
			<path class="st1" d="M440.7,4157.7c-0.3,0-0.5-0.1-0.7-0.3l-11-10.9l11-10.7c0.4-0.4,1-0.4,1.4,0c0.4,0.4,0.4,1,0,1.4l-9.5,9.3
				l9.5,9.5c0.4,0.4,0.4,1,0,1.4C441.3,4157.6,441,4157.7,440.7,4157.7z"/>
		</g>
	</g>
</g>
</svg>
