<?xml version="1.0" encoding="utf-8"?>
<!-- Generator: Adobe Illustrator 23.0.2, SVG Export Plug-In . SVG Version: 6.00 Build 0)  -->
<svg version="1.1" id="Layer_1" xmlns="http://www.w3.org/2000/svg" xmlns:xlink="http://www.w3.org/1999/xlink" x="0px" y="0px"
	 viewBox="0 0 50 50" style="enable-background:new 0 0 50 50;" xml:space="preserve">
<style type="text/css">
	.st0{fill:none;}
	.st1{fill:#202020;}
</style>
<g id="Group_2" transform="translate(-807 -4122)">
	<g id="Ellipse_11" transform="translate(857 4172) rotate(-180)">
		<g>
			<circle class="st0" cx="25" cy="25" r="25"/>
		</g>
		<g>
			<path class="st1" d="M25,0c13.8,0,25,11.2,25,25c0,13.8-11.2,25-25,25S0,38.8,0,25C0,11.2,11.2,0,25,0z M25,48
				c12.7,0,23-10.3,23-23S37.7,2,25,2C12.3,2,2,12.3,2,25S12.3,48,25,48z"/>
		</g>
	</g>
	<g id="Path_13">
		<path class="st1" d="M828.5,4157.7c-0.3,0-0.5-0.1-0.7-0.3c-0.4-0.4-0.4-1,0-1.4l9.5-9.3l-9.5-9.5c-0.4-0.4-0.4-1,0-1.4
			s1-0.4,1.4,0l11,10.9l-11,10.7C829,4157.6,828.8,4157.7,828.5,4157.7z"/>
	</g>
</g>
</svg>
