<svg xmlns="http://www.w3.org/2000/svg" width="45" height="45" viewBox="0 0 45 45">
  <path id="Path_22" data-name="Path 22" d="M15.051,44.234c0,.186-.209.335-.472.335-.3.028-.508-.121-.508-.335,0-.186.209-.335.472-.335C14.816,43.871,15.051,44.02,15.051,44.234Zm-2.822-.419c-.064.186.118.4.39.456a.421.421,0,0,0,.562-.186c.054-.186-.118-.4-.39-.484A.461.461,0,0,0,12.23,43.815Zm4.01-.158c-.263.065-.445.242-.417.456.027.186.263.307.535.242s.445-.242.417-.428S16.5,43.629,16.24,43.657ZM22.21,8C9.626,8,0,17.8,0,30.7A23.294,23.294,0,0,0,15.378,52.962c1.161.214,1.57-.521,1.57-1.126,0-.577-.027-3.759-.027-5.713,0,0-6.351,1.4-7.684-2.773,0,0-1.034-2.708-2.522-3.406,0,0-2.078-1.461.145-1.433a4.77,4.77,0,0,1,3.5,2.4c1.987,3.592,5.317,2.559,6.614,1.945a5.223,5.223,0,0,1,1.452-3.136C13.355,39.144,8.238,38.39,8.238,29.439a7.145,7.145,0,0,1,2.141-5.481,9,9,0,0,1,.236-6.318c1.9-.6,6.26,2.512,6.26,2.512a20.917,20.917,0,0,1,11.4,0s4.364-3.127,6.26-2.512a9,9,0,0,1,.236,6.318c1.452,1.647,2.341,2.931,2.341,5.481,0,8.979-5.344,9.7-10.415,10.282a5.578,5.578,0,0,1,1.542,4.318c0,3.136-.027,7.016-.027,7.779,0,.6.417,1.34,1.57,1.126C38.849,49.854,45,41.024,45,30.7A22.518,22.518,0,0,0,22.21,8ZM8.819,40.093c-.118.093-.091.307.064.484.145.149.354.214.472.093.118-.093.091-.307-.064-.484C9.145,40.037,8.936,39.972,8.819,40.093Zm-.98-.754c-.064.121.027.27.209.363a.266.266,0,0,0,.39-.065c.064-.121-.027-.27-.209-.363C8.047,39.219,7.9,39.246,7.839,39.339Zm2.94,3.313c-.145.121-.091.4.118.577.209.214.472.242.59.093.118-.121.064-.4-.118-.577C11.168,42.531,10.9,42.5,10.778,42.652ZM9.744,41.284c-.145.093-.145.335,0,.549s.39.307.508.214a.432.432,0,0,0,0-.577c-.127-.214-.363-.307-.508-.186Z" transform="translate(0 -8)"/>
</svg>
