<svg xmlns="http://www.w3.org/2000/svg" width="26" height="19.5" viewBox="0 0 26 19.5">
  <path id="Path_17" data-name="Path 17" d="M25.507,70.439a.306.306,0,0,1,.493.239V81.063A2.438,2.438,0,0,1,23.563,83.5H2.438A2.438,2.438,0,0,1,0,81.063V70.683a.3.3,0,0,1,.493-.239c1.137.884,2.646,2.006,7.825,5.769C9.389,76.995,11.2,78.64,13,78.63c1.813.015,3.656-1.666,4.687-2.417C22.867,72.45,24.37,71.323,25.507,70.439ZM13,77c1.178.02,2.874-1.483,3.727-2.1,6.739-4.89,7.252-5.317,8.805-6.536A1.215,1.215,0,0,0,26,67.4v-.965A2.438,2.438,0,0,0,23.563,64H2.438A2.438,2.438,0,0,0,0,66.438V67.4a1.223,1.223,0,0,0,.467.96c1.554,1.214,2.067,1.645,8.805,6.536C10.126,75.517,11.822,77.02,13,77Z" transform="translate(0 -64)" fill="#202020"/>
</svg>
