<svg xmlns="http://www.w3.org/2000/svg" width="73.68" height="14.28" viewBox="0 0 73.68 14.28">
  <path id="Path_1" data-name="Path 1" d="M14.04,0,14-7.42,10.4-1.38H8.64L5.06-7.22V0H1.4V-14H4.66L9.58-5.92,14.38-14h3.26l.04,14ZM38.76-3V.06L22.48,0V-14H38.76v3.06H22.48v2.36H38.76v2.96H22.48V-3ZM57.24-14V0H53.98L47.8-7.46V0H43.92V-14h3.26l6.18,7.46V-14ZM68.5.28a6.625,6.625,0,0,1-4.85-1.7,6.453,6.453,0,0,1-1.73-4.82V-14h3.96v7.64Q65.88-3,68.54-3q2.64,0,2.64-3.36V-14h3.9v7.76a6.453,6.453,0,0,1-1.73,4.82A6.625,6.625,0,0,1,68.5.28Z" transform="translate(-1.4 14)" fill="#202020"/>
</svg>
