<svg id="Group_1" data-name="Group 1" xmlns="http://www.w3.org/2000/svg" width="16.875" height="27" viewBox="0 0 16.875 27">
  <path id="Path_18" data-name="Path 18" d="M0,384v4.219a2.531,2.531,0,0,0,2.531,2.531H14.344a2.531,2.531,0,0,0,2.531-2.531V384Zm8.438,5.063a1.688,1.688,0,1,1,1.688-1.687A1.688,1.688,0,0,1,8.438,389.063Z" transform="translate(0 -363.75)" fill="#8a8a8a"/>
  <path id="Path_19" data-name="Path 19" d="M0,20.25V2.531A2.531,2.531,0,0,1,2.531,0H14.344a2.531,2.531,0,0,1,2.531,2.531V20.25Z" transform="translate(0 0)" fill="#202020"/>
</svg>
