<svg xmlns="http://www.w3.org/2000/svg" width="102" height="95.335" viewBox="0 0 102 95.335">
  <g id="hr" transform="translate(-28.037 -21.928)">
    <path id="Path_1" data-name="Path 1" d="M-127.963-127.738V-211.6l11.018-11.477-.042,28.919a20.811,20.811,0,0,1,12.9-3.917,22.7,22.7,0,0,1,16.571,6.827,22.389,22.389,0,0,1,6.889,16.51l.055,47-9.985-10.249v-36.56a13.273,13.273,0,0,0-3.972-9.558,12.918,12.918,0,0,0-9.372-3.91,13.15,13.15,0,0,0-9.684,3.912c-2.566,2.566-3.359,5.627-3.4,9.186v36.932Z" transform="translate(156 245)" fill="#fff"/>
    <path id="Path_2" data-name="Path 2" d="M4.877-93.734l-.036-47a22.655,22.655,0,0,1,7-16.51,22.491,22.491,0,0,1,16.51-6.827,22.3,22.3,0,0,1,16.571,6.827c4.593,4.717,5.839,9.582,5.625,14.075v3.749l-8.666,8.768v-9.9a13.273,13.273,0,0,0-3.972-9.558,12.918,12.918,0,0,0-9.372-3.91,13.208,13.208,0,0,0-9.621,3.912,12.686,12.686,0,0,0-3.972,9.372v.186l.266,36.56Z" transform="translate(79.465 210.997)" fill="#fff"/>
  </g>
</svg>
