<svg xmlns="http://www.w3.org/2000/svg" xmlns:xlink="http://www.w3.org/1999/xlink" width="581" height="369.732" viewBox="0 0 581 369.732">
  <defs>
    <filter id="Rectangle_584" x="144" y="40" width="396" height="282" filterUnits="userSpaceOnUse">
      <feOffset dx="-3" dy="5" input="SourceAlpha"/>
      <feGaussianBlur stdDeviation="5" result="blur"/>
      <feFlood flood-opacity="0.161"/>
      <feComposite operator="in" in2="blur"/>
      <feComposite in="SourceGraphic"/>
    </filter>
    <filter id="Path_60" x="153.51" y="44.49" width="384.545" height="269.679" filterUnits="userSpaceOnUse">
      <feOffset dy="3" input="SourceAlpha"/>
      <feGaussianBlur stdDeviation="3" result="blur-2"/>
      <feFlood flood-opacity="0.161"/>
      <feComposite operator="in" in2="blur-2"/>
      <feComposite in="SourceGraphic"/>
    </filter>
  </defs>
  <g id="Group_94" data-name="Group 94" transform="translate(0 0.011)">
    <g transform="matrix(1, 0, 0, 1, 0, -0.01)" filter="url(#Rectangle_584)">
      <rect id="Rectangle_584-2" data-name="Rectangle 584" width="366" height="252" rx="5" transform="translate(162 50)" fill="#fff"/>
    </g>
    <path id="Path_58" data-name="Path 58" d="M238.986,686.706c-8.963-.737-16.876-7.222-21.377-15.008-1.509-2.611-2.543-6.036-.834-8.521a4.689,4.689,0,0,1,8.278,1.076,45.392,45.392,0,0,1-.706-9.248c.069-2.624.565-5.59,2.746-7.049,2.531-1.693,6.179-.349,8.02,2.076s2.34,5.58,2.782,8.592a7.924,7.924,0,0,1,8.808-9.992c3.707.56,6.611,3.769,7.744,7.343s.779,7.448.05,11.126a32.382,32.382,0,0,1-4.742,12.207,17.472,17.472,0,0,1-10.516,7.417Z" transform="translate(-206.415 -318.064)" fill="#00cb07"/>
    <path id="Path_59" data-name="Path 59" d="M940.227,274.876A77.578,77.578,0,0,1,888.281,348.1c-.482.168-.973.336-1.463.49v-78.8H785.291c.029-.49.066-.98.11-1.463H886.819V252.928a3.66,3.66,0,0,0-3.658-3.658H789.454c.168-.49.344-.98.534-1.463a77.56,77.56,0,0,1,150.239,27.07Z" transform="translate(-359.227 -197.327)" fill="#f1f90a"/>
    <g transform="matrix(1, 0, 0, 1, 0, -0.01)" filter="url(#Path_60)">
      <path id="Path_60-2" data-name="Path 60" d="M786.484,266.327h-356.3a5.127,5.127,0,0,0-5.121,5.121V512.885a5.127,5.127,0,0,0,5.121,5.121h356.3a5.127,5.127,0,0,0,5.121-5.121V271.448a5.127,5.127,0,0,0-5.121-5.121Zm3.658,246.558a3.66,3.66,0,0,1-3.658,3.658h-356.3a3.66,3.66,0,0,1-3.658-3.658V271.448a3.66,3.66,0,0,1,3.658-3.658h356.3a3.66,3.66,0,0,1,3.658,3.658Z" transform="translate(-262.55 -215.84)" fill="#3f3d56"/>
    </g>
    <rect id="Rectangle_5" data-name="Rectangle 5" width="365.081" height="1.463" transform="translate(163.242 70.994)" fill="#3f3d56"/>
    <circle id="Ellipse_14" data-name="Ellipse 14" cx="4.39" cy="4.39" r="4.39" transform="translate(171.29 57.064)" fill="#ff4343"/>
    <circle id="Ellipse_15" data-name="Ellipse 15" cx="4.39" cy="4.39" r="4.39" transform="translate(183.91 57.064)" fill="#28fe00"/>
    <circle id="Ellipse_16" data-name="Ellipse 16" cx="4.39" cy="4.39" r="4.39" transform="translate(196.531 57.064)" fill="#dcc008"/>
    <path id="Path_61" data-name="Path 61" d="M536.565,335.327H472.182a5.127,5.127,0,0,0-5.121,5.121v64.383a5.127,5.127,0,0,0,5.121,5.121h64.383a5.127,5.127,0,0,0,5.121-5.121V340.448A5.127,5.127,0,0,0,536.565,335.327Zm3.658,69.5a3.66,3.66,0,0,1-3.658,3.658H472.182a3.66,3.66,0,0,1-3.658-3.658V340.448a3.66,3.66,0,0,1,3.658-3.658h64.383a3.66,3.66,0,0,1,3.658,3.658Z" transform="translate(-273.823 -234.366)" fill="#3f3d56"/>
    <path id="Path_62" data-name="Path 62" d="M694.7,335.827H630.317a4.765,4.765,0,0,0-4.755,4.756v64.383a4.765,4.765,0,0,0,4.756,4.756H694.7a4.765,4.765,0,0,0,4.756-4.756V340.583A4.765,4.765,0,0,0,694.7,335.827Z" transform="translate(-316.36 -234.5)" fill="#bbff63"/>
    <path id="Path_63" data-name="Path 63" d="M852.7,335.827H788.317a4.765,4.765,0,0,0-4.756,4.756v64.383a4.765,4.765,0,0,0,4.756,4.756H852.7a4.765,4.765,0,0,0,4.756-4.756V340.583a4.765,4.765,0,0,0-4.755-4.756Z" transform="translate(-358.763 -234.5)" fill="#e6e6e6"/>
    <path id="Path_64" data-name="Path 64" d="M536.7,467.827H472.317a4.765,4.765,0,0,0-4.756,4.756v64.383a4.765,4.765,0,0,0,4.756,4.756H536.7a4.765,4.765,0,0,0,4.756-4.756V472.583A4.765,4.765,0,0,0,536.7,467.827Z" transform="translate(-273.957 -269.926)" fill="#e6e6e6"/>
    <path id="Path_65" data-name="Path 65" d="M694.7,467.827H630.317a4.765,4.765,0,0,0-4.755,4.756v64.383a4.765,4.765,0,0,0,4.756,4.756H694.7a4.765,4.765,0,0,0,4.756-4.756V472.583A4.765,4.765,0,0,0,694.7,467.827Z" transform="translate(-316.36 -269.926)" fill="#6c63ff"/>
    <path id="Path_66" data-name="Path 66" d="M852.7,467.827H788.317a4.765,4.765,0,0,0-4.756,4.756v64.383a4.765,4.765,0,0,0,4.756,4.756H852.7a4.765,4.765,0,0,0,4.756-4.756V472.583a4.765,4.765,0,0,0-4.755-4.756Z" transform="translate(-358.763 -269.926)" fill="#e6e6e6"/>
    <path id="Path_67" data-name="Path 67" d="M515.2,455.221H450.817a4.761,4.761,0,0,1-4.756-4.756V386.083a4.761,4.761,0,0,1,4.756-4.756H515.2a4.761,4.761,0,0,1,4.756,4.756v64.383a4.761,4.761,0,0,1-4.755,4.756Z" transform="translate(-268.187 -246.711)" fill="#ff6363"/>
    <path id="Path_68" data-name="Path 68" d="M199.023,478.531,207.6,475.9l-6.07-34.326-12.656,3.883Z" transform="translate(-50.688 -118.51)" fill="#a0616a"/>
    <path id="Path_69" data-name="Path 69" d="M0,0H28.19V10.892h-17.3A10.892,10.892,0,0,1,0,0Z" transform="translate(175.89 360.279) rotate(162.939)" fill="#2f2e41"/>
    <path id="Path_70" data-name="Path 70" d="M102.747,479.667h8.97l4.267-34.6H102.746Z" transform="translate(-27.574 -119.448)" fill="#a0616a"/>
    <path id="Path_71" data-name="Path 71" d="M0,0H28.19V10.892h-17.3A10.892,10.892,0,0,1,0,0Z" transform="translate(101.439 368.547) rotate(179.997)" fill="#2f2e41"/>
    <path id="Path_72" data-name="Path 72" d="M303.969,516.715a6.7,6.7,0,0,1,.233-10.276l6.954-87.572L325.3,422.4l-11.324,85.424a6.74,6.74,0,0,1-10.006,8.891Z" transform="translate(-229.44 -256.786)" fill="#a0616a"/>
    <circle id="Ellipse_17" data-name="Ellipse 17" cx="17.969" cy="17.969" r="17.969" transform="translate(84.882 92.177)" fill="#a0616a"/>
    <path id="Path_73" data-name="Path 73" d="M321.038,406.084a15.206,15.206,0,0,1,.188-18.557c2.85-3.475,7.618-6.255,15.578-6.255,21.217,0,29.265,16.827,29.265,16.827s8.78,16.1,3.658,30.728-5.121,16.1-5.121,16.1L330.951,442S336.628,427.488,321.038,406.084Z" transform="translate(-233.811 -246.697)" fill="#ffc5c5"/>
    <path id="Path_74" data-name="Path 74" d="M307.977,423.45l7.25-23.72a11.342,11.342,0,0,1,16.045-6.764h0a11.362,11.362,0,0,1,5.186,14.64L327.24,428.6Z" transform="translate(-231.128 -249.496)" fill="#ffc5c5"/>
    <path id="Path_75" data-name="Path 75" d="M359.526,463.272,388.06,611.06,372.7,615.45l-37.313-97.306-16.827,99.5-16.1,2.195S295.4,488.188,326.6,464Z" transform="translate(-229.464 -268.703)" fill="#b9003f"/>
    <path id="Path_76" data-name="Path 76" d="M416.285,447a7.7,7.7,0,0,0-.7.987l-36.241,1.757-6.979-21.3L360.244,434.2l11.4,31.732,44.821-8.765A7.679,7.679,0,1,0,416.285,447Z" transform="translate(-245.156 -259.354)" fill="#a0616a"/>
    <path id="Path_77" data-name="Path 77" d="M353.285,402.531a11.341,11.341,0,0,1,11.971-12.644h0a11.362,11.362,0,0,1,10.634,11.32v22.925l-19.707,3.032Z" transform="translate(-243.267 -249.002)" fill="#ffc5c5"/>
    <path id="Path_78" data-name="Path 78" d="M339.181,357.63c-2.7-.012-4.778-2.851-4.657-5.546s1.931-5.065,4.111-6.653a44.58,44.58,0,0,1,7.168-3.722,15.285,15.285,0,0,0,6.343-4.864,10.766,10.766,0,0,0,.749-9.88,15.853,15.853,0,0,0-6.828-7.48,20.762,20.762,0,0,0-27.514,6.036l-3.079,8.383a13.707,13.707,0,0,0-1.706,13.886,17.937,17.937,0,0,0,10.668,9.52,26.188,26.188,0,0,0,14.516.435" transform="translate(-232.377 -229.351)" fill="#2f2e41"/>
    <path id="Path_79" data-name="Path 79" d="M306.447,332.587a10.968,10.968,0,0,0-5.989-4.262,18.821,18.821,0,0,0-24.753,16.829c-.251,4.62,1.2,9.137,2.045,13.685s1.019,9.571-1.488,13.459c-1.91,2.961-5.095,4.826-8.239,6.418-2.62,1.327-5.454,2.572-8.379,2.308s-5.865-2.581-5.787-5.517a23.453,23.453,0,0,0-1.962,6.643,7.921,7.921,0,0,0,2.031,6.41c2.424,2.34,6.265,2.169,9.6,1.664,7.212-1.093,14.514-3.143,20.212-7.7s9.478-12.053,7.978-19.191c-.627-2.982-2.1-5.7-3.29-8.509s-2.119-5.873-1.573-8.87a10.78,10.78,0,0,1,5.482-7.3,14.341,14.341,0,0,1,9.162-1.389c2.048.336,4.6.858,5.82-.825a3.3,3.3,0,0,0-.069-3.518,9.692,9.692,0,0,0-2.628-2.6" transform="translate(-216.067 -232.227)" fill="#2f2e41"/>
    <path id="Path_80" data-name="Path 80" d="M428.635,702.034H203.81a.871.871,0,1,1,0-1.742H428.635a.871.871,0,1,1,0,1.742Z" transform="translate(-202.939 -332.313)" fill="#3f3d56"/>
  </g>
</svg>
