<svg id="banner_svg" xmlns="http://www.w3.org/2000/svg" xmlns:xlink="http://www.w3.org/1999/xlink" width="540.188" height="509.265" viewBox="0 0 540.188 509.265">
  <defs>
    <filter id="Path_1750" x="48.496" y="13.463" width="64.75" height="71.682" filterUnits="userSpaceOnUse">
      <feOffset dy="3" input="SourceAlpha"/>
      <feGaussianBlur stdDeviation="3" result="blur"/>
      <feFlood flood-opacity="0.161"/>
      <feComposite operator="in" in2="blur"/>
      <feComposite in="SourceGraphic"/>
    </filter>
    <filter id="Rectangle_617" x="269" y="91.506" width="205" height="16" filterUnits="userSpaceOnUse">
      <feOffset dy="1" input="SourceAlpha"/>
      <feGaussianBlur stdDeviation="1" result="blur-2"/>
      <feFlood flood-opacity="0.161"/>
      <feComposite operator="in" in2="blur-2"/>
      <feComposite in="SourceGraphic"/>
    </filter>
  </defs>
  <path id="Path_1716" data-name="Path 1716" d="M516.326,380.018V520.532l23.5,38.3,1.789,2.914h92.74l1.874-181.732Z" transform="translate(-124.147 -90.77)" fill="#e6e6e6"/>
  <path id="Path_1717" data-name="Path 1717" d="M516.326,380.018V520.532l23.5,38.3,1.442-178.819Z" transform="translate(-124.147 -90.77)" opacity="0.1"/>
  <path id="Path_1718" data-name="Path 1718" d="M183.609,375.084V515.6l-23.5,38.3-1.789,2.913H65.577L63.7,375.084Z" transform="translate(-15.317 -89.583)" fill="#e6e6e6"/>
  <path id="Path_1719" data-name="Path 1719" d="M213.669,375.084V515.6l-23.5,38.3-1.442-178.82Z" transform="translate(-45.378 -89.583)" opacity="0.1"/>
  <path id="Path_1720" data-name="Path 1720" d="M551.65,362.489v8.43H47.67V358.741l46.838-24.356H510.432Z" transform="translate(-11.462 -79.797)" fill="#e6e6e6"/>
  <path id="Path_1721" data-name="Path 1721" d="M551.65,370.2v8.43H47.67V366.451Z" transform="translate(-11.462 -87.507)" opacity="0.1"/>
  <path id="Path_1722" data-name="Path 1722" d="M132.552,424.807H110.07L100.7,418.25h42.155Z" transform="translate(-24.213 -99.962)" fill="#3f3d56"/>
  <path id="Path_1723" data-name="Path 1723" d="M132.552,460.573H110.07l-9.368-6.557h42.155Z" transform="translate(-24.213 -108.562)" fill="#3f3d56"/>
  <path id="Path_1724" data-name="Path 1724" d="M132.552,511.139H110.07l-9.368-6.558h42.155Z" transform="translate(-24.213 -120.72)" fill="#3f3d56"/>
  <path id="Path_1725" data-name="Path 1725" d="M132.552,561.7H110.07l-9.368-6.557h42.155Z" transform="translate(-24.213 -132.878)" fill="#3f3d56"/>
  <path id="Path_1726" data-name="Path 1726" d="M592,429.74h22.483l9.368-6.557H581.691Z" transform="translate(-139.864 -101.148)" fill="#3f3d56"/>
  <path id="Path_1727" data-name="Path 1727" d="M592,465.506h22.483l9.368-6.557H581.691Z" transform="translate(-139.864 -109.748)" fill="#3f3d56"/>
  <path id="Path_1728" data-name="Path 1728" d="M592,516.072h22.483l9.368-6.557H581.691Z" transform="translate(-139.864 -121.906)" fill="#3f3d56"/>
  <path id="Path_1729" data-name="Path 1729" d="M592,566.637h22.483l9.368-6.557H581.691Z" transform="translate(-139.864 -134.064)" fill="#3f3d56"/>
  <path id="Path_1730" data-name="Path 1730" d="M797.437,235.615H608.361a7.134,7.134,0,0,0-7.151,7.12v126.8a7.134,7.134,0,0,0,7.152,7.119h71.774v16.853l-25.06,8.606v1.258H747.88v-1.258L726.3,393.511V376.657h71.135a7.134,7.134,0,0,0,7.151-7.12v-126.8a7.134,7.134,0,0,0-7.151-7.119Z" transform="translate(-331.258 -144.261)" fill="#3f3d56"/>
  <rect id="Rectangle_616" data-name="Rectangle 616" width="199" height="136" rx="5" transform="translate(272 93.506)" fill="#fcfcfc"/>
  <path id="Path_1731" data-name="Path 1731" d="M440.517,355.213v2.4H311.2v-1.923l.178-.481,3.187-8.653H437.873Z" transform="translate(-74.827 -82.725)" fill="#3f3d56"/>
  <path id="Path_1732" data-name="Path 1732" d="M779.884,467.393c-.235,1.007-1.125,2.07-3.134,3.074-7.211,3.605-21.873-.961-21.873-.961s-11.3-1.923-11.3-6.971a8.99,8.99,0,0,1,.99-.589c3.032-1.6,13.084-5.562,30.907.168a7.433,7.433,0,0,1,3.388,2.22,3.545,3.545,0,0,1,1.019,3.059Z" transform="translate(-364.429 -197.258)" fill="#3f3d56"/>
  <path id="Path_1733" data-name="Path 1733" d="M780.2,467.393c-8.826,3.382-16.693,3.634-24.767-1.973a17.73,17.73,0,0,0-10.547-3.473c3.032-1.6,13.084-5.562,30.907.168a7.432,7.432,0,0,1,3.388,2.22,3.545,3.545,0,0,1,1.019,3.059Z" transform="translate(-364.743 -197.258)" opacity="0.1"/>
  <ellipse id="Ellipse_318" data-name="Ellipse 318" cx="3.125" cy="0.961" rx="3.125" ry="0.961" transform="translate(401.263 266.239)" fill="#f2f2f2"/>
  <path id="Path_1734" data-name="Path 1734" d="M440.517,357.952v2.4H311.2v-1.923l.178-.481Z" transform="translate(-74.827 -85.464)" opacity="0.1"/>
  <path id="Path_1735" data-name="Path 1735" d="M335.631,114.633c-1.312-.108-7.393.78-8.535,1.436a9.83,9.83,0,0,0-2.549,3.364c-2.758,4.843-1.766,4.041-1.766,4.041s-10.225,1.73-9.667,6.13c.294,1.453-2.814,10.392-2.057,11.667,1.257,7.542,8.479,15.184,7.672,22.106,2.986-5-1.008-7.47,1.978-12.469,1.422-2.38,3.892-5.068,6.039-3.573.719.5,1.191,1.4,1.939,1.837,1.786,1.048,3.686-.956,5.267-2.375,5.451-4.894,13.2-3.612,19.987-2.087,3.2.72,1.138,10.285,3.031,13.346,2.489,4.024,3.217-.25,1.991,4.3a2.479,2.479,0,0,0,.523,2.239c.531.615,1.512-2.154,2.32-2.239,2.035-.2,9.587-11.3,10.846-15.559s3.446-7.4,1.321-11.182c-.759-1.258-1.884-8.091-2.972-9.078C358.938,114.868,350.819,114.616,335.631,114.633Z" transform="translate(-258.964 -114.624)" fill="#2f2e41"/>
  <path id="Path_1736" data-name="Path 1736" d="M321.094,180.114s4.977,31.213-4.641,32.962,8.744,31.477,8.744,31.477l43.718,5.246L356.18,215.2s-3.428-4.068.944-21.555S321.094,180.114,321.094,180.114Z" transform="translate(-261.059 -131.97)" fill="#ffb8b8"/>
  <path id="Path_1737" data-name="Path 1737" d="M47.028,569.318l3.5,48.09H68.887l-5.245-48.09Z" transform="translate(-11.308 -136.285)" fill="#ffb8b8"/>
  <path id="Path_1738" data-name="Path 1738" d="M224.3,449.046l2.623,40.22,20.111-8.743-7.87-33.225Z" transform="translate(-53.932 -106.947)" fill="#ffb8b8"/>
  <path id="Path_1739" data-name="Path 1739" d="M274.167,430.9s.874,50.712,6.121,67.325,4.372,17.487,3.5,20.11-1.749.874-1.749,5.246-1.749,73.446,0,79.566-5.246,16.613,0,17.487,29.728,0,30.6-5.246-6.995-6.995-3.5-10.492,8.744-75.194,8.744-75.194l12.241-49.838,22.733-26.231h48.09l14.864,57.707s-6.121,16.613-1.749,16.613,30.6,5.246,30.6-13.99-8.744-76.068-10.492-77.817.874-7.869-1.749-10.492-33.225-20.984-44.592-24.482-27.312-7.66-27.312-7.66Z" transform="translate(-251.562 -181.484)" fill="#2f2e41"/>
  <path id="Path_1740" data-name="Path 1740" d="M491.266,596.77s-13.115-4.372-19.236,8.744-3.5,16.613-3.5,16.613,20.11,6.995,23.608,3.5c1.522-1.522,6.354-2.05,11.327-2.162,7.575-.17,9.59-10.887,2.436-13.383q-.32-.112-.648-.194C498.26,608.136,491.266,596.77,491.266,596.77Z" transform="translate(-298.162 -230.187)" fill="#2f2e41"/>
  <g transform="matrix(1, 0, 0, 1, 0, 0)" filter="url(#Path_1750)">
    <path id="Path_1750-2" data-name="Path 1750" d="M26.015,0C40.5,0,48.2.864,48.2,16.03S40.5,53.682,26.015,53.682c-10.286,0-19.547-19.052-23.442-31.362-1.455-4.6-1.079-1.892-1.079-6.29C1.494.864,11.528,0,26.015,0Z" transform="translate(56.05 19.46)" fill="#ffc7c7"/>
  </g>
  <path id="Path_1741" data-name="Path 1741" d="M300.63,233.133s42.843,8.744,53.336-5.246,14.864,39.346,14.864,39.346l5.246,55.959-7.869,30.6S325.112,387.019,312,389.642s-33.225,4.372-33.225,4.372,6.121-97.053,6.121-98.8S300.63,233.133,300.63,233.133Z" transform="translate(-252.669 -141.098)" fill="#e10e38"/>
  <path id="Path_1742" data-name="Path 1742" d="M307.741,213.156s-9.532-5.461-12.155-.215-27.1,18.361-29.727,18.361,5.246,72.571,1.749,81.315-20.11,72.571-10.493,77.817,2.623-5.246,12.241,7.869,56.833,13.115,59.456,7.869-20.984-44.592-16.613-81.315,11.367-87.436,5.246-94.43S307.741,213.156,307.741,213.156Z" transform="translate(-246.751 -137.519)" fill="#2f2e41"/>
  <path id="Path_1743" data-name="Path 1743" d="M366.258,220.393l1.218-4.191s36.379,12.06,38.128,19.93.874,62.953-5.246,67.325-14.864,11.367-8.744,21.859,13.115,21.859,18.361,22.733,14.864,6.995,12.241,13.115-34.1-5.246-34.1-5.246-20.984-15.738-20.11-40.22S366.258,220.393,366.258,220.393Z" transform="translate(-273.705 -138.851)" fill="#2f2e41"/>
  <path id="Path_1744" data-name="Path 1744" d="M394.045,357.554,373.06,396.9s-30.6,31.477-13.115,34.974,27.1-28.854,27.1-28.854l22.733-32.351Z" transform="translate(-270.889 -172.838)" fill="#ffb8b8"/>
  <path id="Path_1745" data-name="Path 1745" d="M334.521,124.19a5.954,5.954,0,0,0-3.068.6,7.15,7.15,0,0,0-2.075,2.378,30.21,30.21,0,0,1-8.925,8.753c-2.652,1.687-6.023,3.79-5.57,6.9a8.628,8.628,0,0,0,1.293,2.913c1.372,2.421,1.361,8.475,2.263,13.065a42.734,42.734,0,0,0,1.415,5.332l1.886,2.24s-.8-15.011,0-16.955c1.57-3.826,8.37-2.5,8.37-2.5,1.158-1.682-.335-11.1,5.187-10.021,1.416.276,9.766,6.042,18.155,8.253,6.447,1.7,13.224.2,13.44-2.328C367.365,137.275,346.884,124.177,334.521,124.19Z" transform="translate(-261.342 -116.723)" fill="#2f2e41"/>
  <path id="Path_1746" data-name="Path 1746" d="M404.334,237.836,412.48,240s18.958,48.55,14.587,81.775S420.072,348,420.072,348s-6.995-15.738-22.733-12.241Z" transform="translate(-281.178 -144.053)" fill="#2f2e41"/>
  <path id="Path_1747" data-name="Path 1747" d="M288.482,738.613c-2.108,2.865-1.686,6.961-3.553,9.989-1.619,2.624-4.67,4-6.7,6.326a16.962,16.962,0,0,0-1.721,2.476c-1.878,3.147-3.405,7.179-1.555,10.342,1.488,2.545,4.616,3.539,7.485,4.217,3.626.857,7.394,1.542,11.062.888s7.253-2.9,8.561-6.39a24.688,24.688,0,0,1,.915-2.583c1.988-3.914,8.224-3.956,10.259-7.846,1.424-2.722.115-6.013-1.193-8.792l-4-8.49c-1.326-2.817-6.7-1.2-9.5-1.872C294.89,736,291.112,735.027,288.482,738.613Z" transform="translate(-251.551 -263.846)" fill="#2f2e41"/>
  <path id="Path_1748" data-name="Path 1748" d="M254.6,378.64l36.723,56.833s22.733,28.854,29.728,15.738-24.482-34.974-24.482-34.974L272.96,372.519Z" transform="translate(-246.857 -176.436)" fill="#ffb8b8"/>
  <path id="Path_1749" data-name="Path 1749" d="M270.509,239.584l-6.995-1.748s-13.99,4.372-17.487,22.733-.874,91.807,3.5,92.681,21.592-12.788,24.349-9.892-5.987-11.967-3.364-19.836S270.509,239.584,270.509,239.584Z" transform="translate(-244.407 -144.053)" fill="#2f2e41"/>
  <g transform="matrix(1, 0, 0, 1, 0, 0)" filter="url(#Rectangle_617)">
    <path id="Rectangle_617-2" data-name="Rectangle 617" d="M5,0H194a5,5,0,0,1,5,5v5a0,0,0,0,1,0,0H0a0,0,0,0,1,0,0V5A5,5,0,0,1,5,0Z" transform="translate(272 93.51)" fill="#fff"/>
  </g>
  <rect id="Rectangle_68" data-name="Rectangle 68" width="20.664" height="3.142" transform="translate(286.175 97.289)" fill="#e6e6e6"/>
  <g id="Group_13" data-name="Group 13" transform="translate(320.471 153.975)">
    <rect id="Rectangle_55" data-name="Rectangle 55" width="15.937" height="3.837" transform="translate(20.068)" fill="#e10e38"/>
    <rect id="Rectangle_56" data-name="Rectangle 56" width="5.607" height="3.837" transform="translate(85.585)" fill="#e10e38"/>
    <rect id="Rectangle_57" data-name="Rectangle 57" width="5.607" height="3.837" transform="translate(96.8)" fill="#e10e38"/>
    <rect id="Rectangle_58" data-name="Rectangle 58" width="38.071" height="3.837" transform="translate(41.612)" fill="#e10e38"/>
    <rect id="Rectangle_59" data-name="Rectangle 59" width="15.937" height="3.837" transform="translate(0 24.79)" fill="#e10e38"/>
    <rect id="Rectangle_60" data-name="Rectangle 60" width="5.607" height="3.837" transform="translate(65.517 24.79)" fill="#e10e38"/>
    <rect id="Rectangle_61" data-name="Rectangle 61" width="5.607" height="3.837" transform="translate(76.732 24.79)" fill="#e10e38"/>
    <rect id="Rectangle_62" data-name="Rectangle 62" width="38.071" height="3.837" transform="translate(21.544 24.79)" fill="#e10e38"/>
    <rect id="Rectangle_63" data-name="Rectangle 63" width="15.937" height="3.837" transform="translate(65.812 8.558)" fill="#e10e38"/>
    <rect id="Rectangle_64" data-name="Rectangle 64" width="15.937" height="3.837" transform="translate(87.356 8.558)" fill="#e10e38"/>
    <rect id="Rectangle_66" data-name="Rectangle 66" width="5.607" height="3.837" transform="translate(0 8.558)" fill="#e10e38"/>
    <rect id="Rectangle_67" data-name="Rectangle 67" width="5.607" height="3.837" transform="translate(11.215 8.558)" fill="#e10e38"/>
    <rect id="Rectangle_68-2" data-name="Rectangle 68" width="38.071" height="3.837" transform="translate(22.429 8.558)" fill="#e10e38"/>
    <rect id="Rectangle_69" data-name="Rectangle 69" width="15.937" height="3.837" transform="translate(32.759 16.822)" fill="#e10e38"/>
    <rect id="Rectangle_70" data-name="Rectangle 70" width="15.937" height="3.837" transform="translate(11.215 16.822)" fill="#e10e38"/>
    <rect id="Rectangle_71" data-name="Rectangle 71" width="5.607" height="3.837" transform="translate(0 16.822)" fill="#e10e38"/>
    <rect id="Rectangle_73" data-name="Rectangle 73" width="5.607" height="3.837" transform="translate(97.685 16.822)" fill="#e10e38"/>
    <rect id="Rectangle_74" data-name="Rectangle 74" width="38.071" height="3.837" transform="translate(54.007 16.822)" fill="#e10e38"/>
  </g>
  <g id="Group_170" data-name="Group 170" transform="translate(208.051 185.402)">
    <path id="Path_1901" data-name="Path 1901" d="M305.162,594.979a122.043,122.043,0,0,1,10.1-38.518q2.28-5.092,5.018-9.961a.744.744,0,0,0-1.284-.75,123.729,123.729,0,0,0-13.768,37.982q-1.034,5.583-1.554,11.246c-.088.952,1.4.946,1.486,0Z" transform="translate(-286.159 -530.056)" fill="#2f2e41"/>
    <circle id="Ellipse_344" data-name="Ellipse 344" cx="9.414" cy="9.414" r="9.414" transform="translate(28.308)" fill="#e10e38"/>
    <path id="Path_1902" data-name="Path 1902" d="M306.125,595.229a79.175,79.175,0,0,1,6.553-24.988q1.479-3.3,3.255-6.462a.483.483,0,0,0-.833-.487,80.268,80.268,0,0,0-8.932,24.641q-.671,3.622-1.008,7.3C305.1,595.847,306.068,595.843,306.125,595.229Z" transform="translate(-286.159 -530.056)" fill="#2f2e41"/>
    <circle id="Ellipse_345" data-name="Ellipse 345" cx="6.108" cy="6.108" r="6.108" transform="translate(26.003 23.055)" fill="#e10e38"/>
    <path id="Path_1903" data-name="Path 1903" d="M304.908,594.652a79.175,79.175,0,0,1-10.2-23.733q-.866-3.515-1.408-7.1a.483.483,0,0,0-.956.128,80.268,80.268,0,0,0,8.113,24.922q1.7,3.269,3.692,6.373C304.482,595.767,305.241,595.171,304.908,594.652Z" transform="translate(-286.159 -530.056)" fill="#2f2e41"/>
    <circle id="Ellipse_346" data-name="Ellipse 346" cx="6.108" cy="6.108" r="6.108" transform="translate(0.068 22.626)" fill="#e10e38"/>
    <path id="Path_1904" data-name="Path 1904" d="M286.159,600.056v-12a4.505,4.505,0,0,1,4.5-4.5h28a4.505,4.505,0,0,1,4.5,4.5v12a4.505,4.505,0,0,1-4.5,4.5h-28a4.505,4.505,0,0,1-4.5-4.5Z" transform="translate(-286.159 -530.056)" fill="#ccc"/>
  </g>
</svg>
