<svg xmlns="http://www.w3.org/2000/svg" width="593.25" height="99.203" viewBox="0 0 593.25 99.203">
  <g id="HARSH" transform="translate(-0.001 0)">
    <path id="Subtraction_3" data-name="Subtraction 3" d="M428.783,99.2a67,67,0,0,1-10.8-1.157,44.45,44.45,0,0,1-16.17-6.469,55.2,55.2,0,0,1-11.979-8.44L399.9,71.029c9.572,8.3,19.644,12.515,29.938,12.515,5.15,0,9.292-1.122,12.312-3.335a10.465,10.465,0,0,0,4.557-8.839,9.979,9.979,0,0,0-4.288-8.576c-2.84-2.03-7.807-3.906-14.763-5.576a134.3,134.3,0,0,1-15.916-4.628,36.191,36.191,0,0,1-9.662-5.511,19.885,19.885,0,0,1-6.327-8.1,28.937,28.937,0,0,1-2.11-11.494,27.271,27.271,0,0,1,2.4-11.686,23,23,0,0,1,7.2-8.656,34.535,34.535,0,0,1,10.732-5.356A45.2,45.2,0,0,1,426.976,0a57.235,57.235,0,0,1,18.1,2.995,47.547,47.547,0,0,1,15.514,8.437l-8.575,12.107a32.674,32.674,0,0,0-11.432-6.259,44.258,44.258,0,0,0-14.217-2.45c-4.646,0-8.515.963-11.5,2.861a9.581,9.581,0,0,0-4.487,8.638,10.077,10.077,0,0,0,4.487,8.843c2.982,2.034,9.413,4.254,19.114,6.6s17.124,5.692,22.046,9.934a20.335,20.335,0,0,1,5.563,7.685,26.95,26.95,0,0,1,1.851,10.274,28.994,28.994,0,0,1-2.584,12.484,25.523,25.523,0,0,1-7.755,9.424l-.927.8a32.749,32.749,0,0,1-13.39,5.675A51.429,51.429,0,0,1,428.783,99.2ZM283.972,97.427h0l-16.053,0V2.312h35.375a82.846,82.846,0,0,1,18.675,1.837A32.2,32.2,0,0,1,334.454,9.66,22.529,22.529,0,0,1,341.5,19.22,37.937,37.937,0,0,1,343.838,33.2c0,7.808-1.727,14.263-5.133,19.185s-8.595,8.447-15.411,10.476l20.681,28.712,4.159,5.849-20.347,0L305.061,65.449h-7.083L308.45,50.761c6.623-.4,11.342-1.777,14.025-4.089,3.252-2.8,4.9-7.356,4.9-13.539s-1.694-10.491-5.034-12.79-9.384-3.469-17.96-3.469h-20.41V50.888H284V65.449h-.025V97.427Zm-143.687,0h0l-17.247,0,2.691-5.853L165.049,2.312H182.2l39.321,89.261,2.724,5.848-17.278.005-9.008-20.451h.091l-7.212-16.018h.071L173.62,21.769,156.34,60.956h.012l-7.107,16.019h.047l-9.007,20.451Zm-124.226,0h0L0,97.426v-3.02l0-2.833V2.312H16.058V43.541h.048V58.509h-.048V97.427Zm561.134,0h0V58.509H539.742V43.541h37.449V2.312h16.06V97.422Zm-47.215,0H513.925V2.312h16.054V43.541h.028V58.509h-.028V97.426Zm-466.7,0h0l0-38.917H26.133V43.541h37.14V2.312H79.328V97.422Z" fill="#00274e"/>
  </g>
</svg>
