<svg xmlns="http://www.w3.org/2000/svg" width="125.235" height="121.528" viewBox="0 0 125.235 121.528">
  <g id="hr" transform="translate(15.963 257.1)">
    <path id="Exclusion_1" data-name="Exclusion 1" d="M57.325,121.528l0,0L44.23,109.037V64.532a16.274,16.274,0,0,0-4.655-11.706,14.979,14.979,0,0,0-11.04-4.391h-.168c-.094,0-.189,0-.283,0a14.91,14.91,0,0,0-10.512,4.739A15.038,15.038,0,0,0,13.136,64.15v44.887L0,121.448V13.225L13.293,0l-.157,39.884c4.789-3.414,9.564-4.307,15.717-4.642l.365,0a28.716,28.716,0,0,1,20.015,8.721c5.191,4.977,8.216,12.667,8.091,20.571v57Zm10.823-.717V63.935a29.275,29.275,0,0,1,1.983-10.894,27.207,27.207,0,0,1,6.117-9.165,28.482,28.482,0,0,1,20-8.611c.134,0,.267,0,.4,0A28.918,28.918,0,0,1,107.917,37.5a28.559,28.559,0,0,1,9.35,6.371c5,5.733,7.681,11.6,7.96,17.426.014.268.01,2.2,0,2.633l-12.968,10V63.55c-.091-4.193-1.363-6.233-2.974-8.816-.178-.285-.362-.58-.548-.884-2.322-2.619-6.785-5.438-11.1-5.438h-.085c-.137,0-.275,0-.41,0-4.569,0-8.277,1.405-11.021,4.176A15.469,15.469,0,0,0,81.2,63.935v44.384L68.15,120.809Z" transform="translate(-15.963 -257.1)"/>
  </g>
</svg>
