<svg xmlns="http://www.w3.org/2000/svg" width="461.574" height="100.139" viewBox="0 0 461.574 100.139">
  <path id="Subtraction_6" data-name="Subtraction 6" d="M258.587,99H243.616V0h14.972L310.1,73.928V0h14.973v99l-16.24,0-50.246-72.23V99ZM14.97,99H0V0H32.988A69.5,69.5,0,0,1,50.4,1.911,28.547,28.547,0,0,1,62.045,7.646a23.411,23.411,0,0,1,6.565,9.95A43.481,43.481,0,0,1,70.8,32.148c0,8.132-1.612,14.851-4.79,19.971a25.927,25.927,0,0,1-14.37,10.9L70.926,92.908l4.145,6.086L55.829,99,34.639,65.714H27.066l9.856-15.237c6.649-.347,11.344-1.8,13.956-4.308,3.032-2.912,4.57-7.654,4.57-14.092s-1.58-10.917-4.695-13.313S42,15.153,34,15.153H14.97V50.56h.179V65.714H14.97V99Zm366.948,0H365.6l2.74-6.089L405.009,0H421l36.669,92.908,2.646,6.086-16.223,0-8.394-21.285h.083L428.89,60.12h-.136L413,20.252,396.89,61.041h.129l-6.154,15.437H390.8L381.918,99ZM124.6,99H108.463l2.559-6.089L147.692,0h15.986l36.67,92.908,2.684,6.086-16.261,0-8.883-22.519h-.077l-6.187-15.437h.174L155.685,20.252,139.571,61.041h.048l-6.759,16.565h.177L124.6,99Z" transform="translate(0.5 0.5)" fill="#00274e" stroke="rgba(0,0,0,0)" stroke-width="1"/>
</svg>