<svg xmlns="http://www.w3.org/2000/svg" width="888.313" height="1002.469" viewBox="0 0 888.313 1002.469">
  <g id="meVactor" transform="translate(-0.004 -6.576)">
    <g id="Shirt" transform="translate(0.004 462.721)">
      <path id="Path_84" data-name="Path 84" d="M856.17,1043.317q-4.6-13.572-9.2-27.126c10.119-12.263,20.928-28.884,15.638-41.157-1.527-3.545-3.238-4.05-8.279-9.354-1.959-2.067-19.428-20.784-22.078-40.221-1.647-12.076,3.624-15.593,7.359-31.8,4.25-18.436,1.6-32.56-3.68-60.8,0,0-2.668-14.236-19.318-69.218-.92-19.465-6.844-31.26-11.959-38.35-8.169-11.327-13.173-9.251-23-23.384-7.654-11.009-8.509-17.856-18.4-27.126-4.4-4.116-7.442-5.781-12.879-9.354-18.039-11.851-29.216-22.926-33.116-26.19-11.71-9.793-51.514-27.481-165.581-61.735a54.052,54.052,0,0,1-6.439,22.449,30.154,30.154,0,0,0-14.718-1.871c-5.069.692-4.94,2.161-15.638,5.612a98.42,98.42,0,0,0-12.879,4.677c-3.017,1.384-5.6,2.806-7.359,5.612a14.637,14.637,0,0,0-1.84,5.612c-1.426,6.473-8.969,7.895-17.478,14.031-9.779,7.053-7.543,10.729-19.318,19.643-4.461,3.377-4.167,2.385-11.959,7.483-13.44,8.793-13.522,11.224-24.837,18.708-11.112,7.333-13,6.286-21.158,13.1-8.987,7.483-11.959,13.217-12.879,14.966-3.256,6.548-1.739,8.334-4.6,14.031-4.333,8.652-9.852,8.559-16.558,15.9-6.081,6.651-3.514,8.877-11.959,29-7.23,17.23-10.229,18.259-11.039,27.126-.717,7.885,1.4,9.878,2.76,22.449.534,4.873,1.021,12.066,0,28.061-1.84,29-6.09,46.254-9.2,76.7-2.934,28.707-4.4,43.027-2.76,54.252,2.3,15.7,7.24,29.455,3.68,49.575a88.084,88.084,0,0,1-5.519,18.708Z" transform="translate(19.948 -501.267)" fill="#34758c"/>
      <path id="Path_85" data-name="Path 85" d="M855.15,1043.335c-2.99-9.139-6.025-18.39-9.144-27.547l-.083.449h0a82.532,82.532,0,0,0,11.811-12.562,58.866,58.866,0,0,0,4.829-7.483,38.99,38.99,0,0,0,3.486-8.652,25.362,25.362,0,0,0,.69-10.14,20.991,20.991,0,0,0-1.5-5.266,15.762,15.762,0,0,0-1.5-2.666,18.258,18.258,0,0,0-1.84-2.179l-3.008-3.059c-.92-.935-1.84-1.946-2.686-2.9-1.739-1.964-3.431-4.078-5.059-6.192a151.682,151.682,0,0,1-8.987-13.236A85.1,85.1,0,0,1,835,927.872c-.377-1.225-.865-2.479-1.177-3.742a27.465,27.465,0,0,1-.727-3.807,22.265,22.265,0,0,1,.488-7.867c.6-2.694,1.472-5.425,2.254-8.166s1.545-5.5,2.226-8.269a85.641,85.641,0,0,0,2.6-16.837,102.388,102.388,0,0,0-.736-17.043c-.672-5.612-1.619-11.224-2.613-16.837l-1.536-8.362L835,832.782c-.267-1.44-.6-2.806-.92-4.181-2.622-11.037-5.648-21.944-8.73-32.841s-6.292-21.747-9.484-32.617v.178a86.04,86.04,0,0,0-3.431-21.514,59.632,59.632,0,0,0-9.907-19.381,42.319,42.319,0,0,0-7.81-7.651c-1.417-1.113-2.833-2.17-4.158-3.293a43.245,43.245,0,0,1-3.772-3.6,62.86,62.86,0,0,1-6.439-8.334,102.722,102.722,0,0,1-5.326-9.2,82.625,82.625,0,0,0-5.519-9.419,53.012,53.012,0,0,0-7.359-8.25,61.818,61.818,0,0,0-8.711-6.6c-2.99-1.955-5.915-3.91-8.794-5.968-5.768-4.088-11.324-8.474-16.7-13.1-2.7-2.31-5.317-4.677-7.948-7.09a54.044,54.044,0,0,0-4.167-3.592c-1.472-1.207-3.026-2.142-4.553-3.18a164.73,164.73,0,0,0-19.2-9.906c-3.247-1.525-6.559-2.862-9.843-4.275s-6.6-2.666-9.917-4.013c-13.265-5.2-26.677-9.99-40.107-14.62q-40.4-13.7-81.245-25.816l-3.256-.935-.212,3.442a51.477,51.477,0,0,1-6.09,21.3l3.266-1.244a32.041,32.041,0,0,0-18.324-1.553,23.938,23.938,0,0,0-4.434,1.693c-1.279.589-2.521,1.122-3.8,1.628-2.566,1.01-5.188,1.871-7.9,2.713s-5.519,1.8-8.279,2.946c-1.371.58-2.686,1.16-4.066,1.871a20.983,20.983,0,0,0-4.13,2.638,13.985,13.985,0,0,0-3.321,4.134,15.75,15.75,0,0,0-1.545,4.911,5.507,5.507,0,0,1-.193.86c-.083.234-.12.486-.221.711s-.184.449-.3.664l-.4.627a10.606,10.606,0,0,1-2.511,2.32c-2.079,1.469-4.6,2.759-7.157,4.237a62.264,62.264,0,0,0-7.451,4.957,34.945,34.945,0,0,0-6.439,6.623,62.85,62.85,0,0,1-5.179,6.5,52.01,52.01,0,0,1-6.136,5.378,33.464,33.464,0,0,1-3.284,2.235c-1.15.655-2.484,1.375-3.744,2.133-2.53,1.506-4.931,3.1-7.359,4.677s-4.774,3.358-7.074,5.191-4.48,3.741-6.632,5.528-4.36,3.442-6.669,5.023-4.673,3.1-7.074,4.5-4.857,2.619-7.479,4.022a48.32,48.32,0,0,0-7.479,5.042,76.779,76.779,0,0,0-6.6,5.958,50.3,50.3,0,0,0-5.8,6.959,29.725,29.725,0,0,0-2.364,4.05,28,28,0,0,0-1.766,4.4c-.469,1.543-.745,3.143-1.012,4.452a17.843,17.843,0,0,1-1.113,3.648,19.385,19.385,0,0,1-4.167,6.323,23.074,23.074,0,0,1-3,2.479l-3.514,2.479a38.033,38.033,0,0,0-6.78,6.183,21.517,21.517,0,0,0-2.76,3.994,27.885,27.885,0,0,0-1.775,4.434c-.92,2.872-1.628,5.612-2.53,8.269-1.775,5.369-3.882,10.673-6.182,15.9-1.15,2.61-2.364,5.173-3.68,7.717s-2.649,5.042-3.891,7.895a27.5,27.5,0,0,0-2.134,9.2,28.766,28.766,0,0,0,0,4.677,35.768,35.768,0,0,0,.662,4.593c.589,2.909,1.168,5.612,1.582,8.418s.745,5.612.92,8.418a159.693,159.693,0,0,1,0,17.052q-.782,17.22-3.072,34.338c-1.49,11.412-3.3,22.851-4.747,34.375-.736,5.743-1.361,11.543-1.941,17.3s-1.168,11.514-1.693,17.286-1,11.571-1.269,17.417a93.674,93.674,0,0,0,.616,17.772c.874,5.827,2.106,11.5,3.118,17.127q.745,4.209,1.26,8.418a71.845,71.845,0,0,1,.543,8.418,82.763,82.763,0,0,1-6.5,32.888l-1.251,3h3.348l263.78-.655Zm-.754-.542-263.4-1.085-262.4-.8,1.95,2.993a85.774,85.774,0,0,0,6.439-43.514c-.322-2.937-.763-5.846-1.26-8.727-1.012-5.753-2.2-11.383-3.026-17.005a89.4,89.4,0,0,1-.5-16.837c.285-5.706.791-11.44,1.334-17.183l1.739-17.239c.589-5.743,1.214-11.458,1.959-17.173,1.444-11.43,3.275-22.832,4.793-34.347s2.612-23.122,3.155-34.759a161.051,161.051,0,0,0,0-17.632c-.2-2.965-.543-5.893-.975-8.821s-1.058-5.874-1.61-8.624a26.4,26.4,0,0,1-.543-7.941,22.442,22.442,0,0,1,1.757-7.6c1.058-2.441,2.475-4.995,3.772-7.6s2.576-5.247,3.753-7.923c2.364-5.341,4.535-10.776,6.393-16.36.92-2.806,1.729-5.612,2.548-8.3a22,22,0,0,1,1.435-3.592,16.1,16.1,0,0,1,2.153-3.068,33.3,33.3,0,0,1,5.906-5.36l3.5-2.451a29.473,29.473,0,0,0,3.615-2.984,21.732,21.732,0,0,0,3.063-3.741c.212-.337.432-.673.635-1.02l.57-1.038a21.957,21.957,0,0,0,1.03-2.151,23.2,23.2,0,0,0,1.417-4.621,38.487,38.487,0,0,1,.92-3.994,23.1,23.1,0,0,1,1.463-3.62,25.949,25.949,0,0,1,1.987-3.4,46.769,46.769,0,0,1,5.234-6.239,74.559,74.559,0,0,1,6.163-5.547,43.4,43.4,0,0,1,6.734-4.518c2.41-1.291,5.078-2.6,7.608-4.078s4.986-3.049,7.359-4.677,4.793-3.423,7.046-5.285,4.379-3.742,6.568-5.463,4.443-3.377,6.77-4.948,4.7-3.133,7.083-4.546c1.2-.72,2.373-1.347,3.68-2.1a40.019,40.019,0,0,0,3.8-2.572,58.016,58.016,0,0,0,6.789-5.94,68.918,68.918,0,0,0,5.519-6.94,29.369,29.369,0,0,1,5.519-5.659,56.839,56.839,0,0,1,6.826-4.527c2.41-1.412,4.967-2.666,7.58-4.49a15.743,15.743,0,0,0,3.735-3.526c.267-.383.515-.8.764-1.2a10.92,10.92,0,0,0,.6-1.291,11.6,11.6,0,0,0,.432-1.356,9.308,9.308,0,0,0,.276-1.253,10.42,10.42,0,0,1,1.012-3.33,8.568,8.568,0,0,1,2.051-2.535,15.944,15.944,0,0,1,3.082-1.936c1.178-.589,2.475-1.16,3.735-1.693a81.388,81.388,0,0,1,7.819-2.759c2.76-.851,5.519-1.749,8.279-2.806,1.371-.533,2.76-1.132,4.057-1.73a16.348,16.348,0,0,1,7.212-1.88,24.166,24.166,0,0,1,3.854.1,32.018,32.018,0,0,1,7.644,1.815l2.153.8,1.113-2.039a56.826,56.826,0,0,0,6.789-23.6L549.376,580c27.137,8.213,54.274,16.537,81.107,25.573,13.44,4.509,26.843,9.1,40.061,14.143,3.293,1.291,6.6,2.544,9.88,3.872s6.55,2.647,9.769,4.078a159.476,159.476,0,0,1,18.84,9.354c1.435.935,2.953,1.805,4.25,2.806a48.933,48.933,0,0,1,3.992,3.33c2.677,2.367,5.391,4.677,8.159,7.015,5.519,4.593,11.26,8.952,17.184,12.992,2.953,2.039,5.989,3.985,9,5.883a58.6,58.6,0,0,1,8.408,6.136,49.949,49.949,0,0,1,7.019,7.661,77.459,77.459,0,0,1,5.519,9.008A82.62,82.62,0,0,0,785,709.705a45.039,45.039,0,0,0,4.038,3.742c1.417,1.15,2.87,2.207,4.277,3.264a40.561,40.561,0,0,1,7.58,7.165,57.557,57.557,0,0,1,9.825,18.633,84.511,84.511,0,0,1,3.68,21.027v.178c3.367,10.8,3.68,22.864,6.826,33.733s6.614,21.267,9.3,32.249c.331,1.366,7.769,35.981,7.534,41.6-.289,5.627-.76,18.2-2.226,23.633a81.43,81.43,0,0,1-2.741,9.36c-1.113,2.582-1.361,4.583-2.567,7.249a30.794,30.794,0,0,0-2.64,8.755,32.029,32.029,0,0,0-.3,4.677c0,1.553.166,3.068.258,4.677a53.7,53.7,0,0,0,5.317,17.342,67.547,67.547,0,0,0,4.452,7.764c1.674,2.451,3.4,4.845,5.253,7.146s3.79,4.49,5.86,6.669c1.058,1.094,2.125,2.1,3.229,3.115l3.082,2.75a7.046,7.046,0,0,1,1.665,1.936,13.57,13.57,0,0,1,1.095,2.806,18.113,18.113,0,0,1,.294,6.744c-.625,4.864-2.557,9.98-4.885,14.966s-5.161,9.859-7.994,14.807h0l-.166.206.083.243c3.036,8.867,6.126,17.707,9.273,26.649Z" transform="translate(21.345 -501.014)" fill="#202020"/>
      <path id="Path_86" data-name="Path 86" d="M1139.158,593.493c-1.076-1.478-17.625,13.357-43.235,21.514-7.24,2.31-8.113,1.871-16.558,4.677a164.375,164.375,0,0,0-32.2,14.966c-30.688,17.772-45.995,26.7-48.754,29-9.668,8.175-29.437,28.445-37.716,72.024q-3.081,6.4-5.519,13.1c-9.622,26.406-6.669,42.522-11.959,68.282-2.649,12.9-4.6,14.751-11.039,34.609-9.613,29.642-13.67,51.446-21.158,91.667-4.912,26.387-10.367,60.2-14.718,100.085,115.291.309,231.97,2.03,347.261,2.339,2.051-3.742,3.183-10.645,4.14-17.3,3.017-13.1,1.748-23.085.92-33.674,0,0-1.205-15.368-.92-40.221.11-9.924,1.913-25.77,5.519-57.058,2.888-25.134,3.679-29.277,4.6-42.092,2.4-32.617.294-41.512-.92-45.833-.276-.935-3.56-10.008-10.119-28.061,0,0-2.235-6.145-6.439-16.837-4.36-11.075-6.163-15.05-9.2-19.643-3.238-4.9-3.5-3.872-7.359-9.354-7.23-10.289-6.384-13.928-11.959-20.578-5.179-6.173-6.568-3.8-12.878-10.289-7.019-7.221-7.157-12.066-13.8-22.449a94.613,94.613,0,0,0-13.8-16.837c.773-.935,5.8-6.828,4.6-14.966-.166-1.141-1.242-7.614-6.439-11.225-8.537-5.93-19.778,1.712-23-2.806-2.815-3.938,4.9-10.925,1.84-15.9-2.64-4.293-11.637-4.378-17.478-2.806-5.611,1.506-9.2,4.761-10.119,3.742s1.5-4.677,2.76-6.548C1132.664,601.219,1139.876,594.475,1139.158,593.493Z" transform="translate(-895.929 -502.294)" fill="#34758c"/>
      <path id="Path_87" data-name="Path 87" d="M1138.217,593.179c-.128-.164.811-.852.606-.867a7.873,7.873,0,0,0-.973.392,10.056,10.056,0,0,0-1.049.363c-.322.131-.607.281-.92.43-.561.309-1.1.636-1.637.935l-3.174,2.03c-2.107,1.356-4.213,2.694-6.347,3.994-4.268,2.6-8.638,5.032-13.127,7.212a132.057,132.057,0,0,1-13.8,5.809c-2.346.832-4.719,1.6-7.12,2.273s-4.839,1.188-7.249,1.871a152.065,152.065,0,0,0-27.836,11.224c-4.452,2.31-8.785,4.845-13.109,7.352l-13,7.539c-8.665,5.032-17.349,10.027-25.932,15.209-2.134,1.319-4.287,2.582-6.347,4.1a52.185,52.185,0,0,0-5.611,5.088,95.627,95.627,0,0,0-9.861,11.5,119.4,119.4,0,0,0-14.488,26.649,161.066,161.066,0,0,0-8.353,29.259v-.122a134.42,134.42,0,0,0-11.83,37.565c-1.039,6.548-1.619,13.1-2.245,19.643s-1.352,13.1-2.493,19.531a109.334,109.334,0,0,1-4.839,19.007c-2.217,6.164-4.48,12.338-6.5,18.6-4.094,12.487-7.681,25.152-10.643,37.967s-5.519,25.732-7.9,38.65-4.866,25.835-7.028,38.809q-6.541,38.9-10.79,78.16v.337h.331c57.88.14,115.75.645,173.63,1.141s115.751,1.141,173.63,1.365h.267l.138-.243a23.86,23.86,0,0,0,1.7-4.228c.451-1.441.809-2.9,1.168-4.359.681-2.928,1.279-5.865,1.84-8.793v.084a86.178,86.178,0,0,0,2.015-8.418,67.878,67.878,0,0,0,1.03-8.624,115.871,115.871,0,0,0-.534-17.108v.206l-.23-3.517-.175-3.349-.285-6.7q-.239-6.707-.294-13.423t0-13.432c.064-4.378.4-8.83.754-13.273,1.545-17.828,3.68-35.731,5.565-53.6.92-8.933,2.079-17.866,2.76-26.9s1.159-18.015,1.233-27.079c0-4.527-.055-9.073-.414-13.628a46.152,46.152,0,0,0-2.843-13.535l-9.4-25.255-.046-.122-1.527-4-1.61-4.106-3.256-8.185c-1.1-2.722-2.208-5.444-3.367-8.156a88.438,88.438,0,0,0-3.827-8.016c-.718-1.3-1.5-2.572-2.328-3.8a36.562,36.562,0,0,0-2.677-3.592c-1-1.141-2-2.142-2.889-3.264s-1.748-2.282-2.567-3.48a61.9,61.9,0,0,1-4.461-7.483c-1.325-2.572-2.4-5.322-3.928-7.913a28.889,28.889,0,0,0-2.567-3.667,27.4,27.4,0,0,0-3.045-3.274,18.185,18.185,0,0,0-3.679-2.526,25.154,25.154,0,0,1-3.606-2.282,36.86,36.86,0,0,1-6.016-6.127,42.094,42.094,0,0,1-4.5-7.408c-1.306-2.61-2.612-5.257-4.075-7.81s-3.054-5.032-4.756-7.427a98.276,98.276,0,0,0-11.471-13.32v.645a42.687,42.687,0,0,1,3.063-3.171,13.79,13.79,0,0,0,2.944-3.741,11.383,11.383,0,0,0,1.067-4.677,20.158,20.158,0,0,0-.331-4.873,21.1,21.1,0,0,0-3.864-8.755,15.589,15.589,0,0,0-3.6-3.423,15.079,15.079,0,0,0-4.508-2.076,23.09,23.09,0,0,0-9.2-.318c-1.444.178-2.824.44-4.149.655a16.924,16.924,0,0,1-3.569.3c-1.012-.122-1.223-.309-1.463-.758a4.492,4.492,0,0,1,.294-2.694c.386-1.2.92-2.488,1.444-3.882a15.26,15.26,0,0,0,1.049-4.677,7.445,7.445,0,0,0-.442-2.759,6.719,6.719,0,0,0-1.518-2.357,9.854,9.854,0,0,0-4.305-2.413,23.47,23.47,0,0,0-8.794-.561,27.718,27.718,0,0,0-8.371,2.161c-1.315.571-2.585,1.244-3.8,1.871-.607.327-1.214.664-1.766.935a2.949,2.949,0,0,1-.626.206.423.423,0,0,1,.166.1c.073.084.055.15,0,.093a1.9,1.9,0,0,1,.1-.664,8.085,8.085,0,0,1,.331-.879,19.325,19.325,0,0,1,.92-1.787c.672-1.179,1.435-2.348,2.19-3.526q2.272-3.5,4.719-6.894t5.069-6.641l2.6-3.293c.432-.552.865-1.1,1.279-1.684a10.83,10.83,0,0,0,.6-.935,2.6,2.6,0,0,0,.267-.533,1.241,1.241,0,0,0,.1-.355A.81.81,0,0,0,1138.217,593.179Zm-.736.561c-.083-.206,0-.065-.092.047a3.345,3.345,0,0,1-.212.393,9.5,9.5,0,0,1-.57.833c-.4.542-.846,1.085-1.279,1.628l-2.668,3.227c-1.766,2.17-3.514,4.359-5.216,6.548s-3.376,4.48-4.986,6.781c-.8,1.151-1.619,2.292-2.373,3.517-.377.608-.736,1.235-1.067,1.871a8.828,8.828,0,0,0-.442,1.085,3.419,3.419,0,0,0-.221,1.4,1.586,1.586,0,0,0,1.546,1.525,3.9,3.9,0,0,0,1.38-.281c.727-.281,1.352-.589,1.987-.889,1.242-.608,2.465-1.179,3.68-1.646a24.625,24.625,0,0,1,7.736-1.562,20.575,20.575,0,0,1,7.635.935,6.54,6.54,0,0,1,2.815,1.74,3.224,3.224,0,0,1,.8,2.572,11.681,11.681,0,0,1-1.012,3.423c-.515,1.225-1.141,2.488-1.7,3.929a12.869,12.869,0,0,0-.671,2.432,6.518,6.518,0,0,0,.193,3.105,5.426,5.426,0,0,0,2.088,2.806,6.634,6.634,0,0,0,2.879,1.029,20.172,20.172,0,0,0,4.692-.112l4.075-.486a18.445,18.445,0,0,1,7.276.4,10.61,10.61,0,0,1,5.363,3.835,15.8,15.8,0,0,1,2.76,6.548,15.087,15.087,0,0,1,.2,3.526c-.064,1.179-.359,2.32-.423,3.564a39.821,39.821,0,0,1-.313,4.013,7.738,7.738,0,0,1-1.693,3.742l-.294.337.313.309a96.317,96.317,0,0,1,11.379,13.18q2.511,3.564,4.673,7.361c1.444,2.526,2.76,5.145,4.029,7.782a43.27,43.27,0,0,0,4.6,7.586,38.57,38.57,0,0,0,6.182,6.361,26.5,26.5,0,0,0,3.68,2.413,16.8,16.8,0,0,1,3.459,2.413,25.785,25.785,0,0,1,2.87,3.152,27.877,27.877,0,0,1,2.419,3.545c1.435,2.479,2.475,5.219,3.808,7.876a62.846,62.846,0,0,0,4.48,7.661q1.233,1.871,2.6,3.592c.92,1.188,1.969,2.264,2.87,3.339a45.756,45.756,0,0,1,4.692,7.193,84.1,84.1,0,0,1,3.6,7.923c1.1,2.7,2.162,5.435,3.21,8.166l3.109,8.231,3.063,8.362-.046-.122,8.95,25.4a42.784,42.784,0,0,1,2.438,12.8c.276,4.415.285,8.877.175,13.339-.23,8.933-.92,17.884-1.7,26.8s-2.125,17.772-3.238,26.714-2.226,17.856-3.284,26.789-2.116,17.875-2.962,26.883c-.423,4.509-.773,9.026-.855,13.647s-.083,9.036,0,13.554.11,9.036.248,13.554l.258,6.781.175,3.4.092,1.693.055.861v.645h0v.206c.212,2.806.5,5.612.754,8.418s.5,5.519.671,8.269a75.745,75.745,0,0,1-.754,16.556v.084c-.257,2.965-.543,5.93-1.049,8.839a42.971,42.971,0,0,1-.92,4.321,20.565,20.565,0,0,1-1.545,4.069l.4-.243c-57.871-.094-115.751-.533-173.631-.935s-115.751-1.02-173.63-1.2l.294.337c2.87-26.147,9.623-50.353,14.311-78.272s3.481-19.444,6.721-38.809,3.252-21.128,7.361-40.142,4.979-23.444,9.073-35.913c2.024-6.239,5.653-17.109,7.888-23.292,2.2-6.216,3.115-8.356,4.174-14.873,1.15-6.492,2.52-12.983,3.2-19.531s1.177-13.179,2.225-19.643c2.073-12.963,3.82-25.378,9.558-37.144l.987,5.7,1.311,2.622L960.79,737.6v-6.118c1.82-9.951,4.944-15.794,8.594-25.211,3.634-9.422,6.474-12.305,12.349-20.475,2.946-4.071,6.323-6.6,9.861-10.148,1.784-1.749,5.718-5.959,7.613-7.521s3.645-4.331,5.76-5.6c8.555-5.191,16.735-11.643,25.382-16.7,0,0,5.487-2.788,12.133-6.232s8.675-4.041,13.109-6.342a146.663,146.663,0,0,1,27.836-10.654c2.4-.673,4.829-2.741,7.249-3.442s6.655-1.628,9.019-2.441c4.731-1.654,11.16-4.808,15.681-6.987s8.43-3.77,12.735-6.351c2.152-1.291,1.918-2.733,4.08-4.08l3.136-3.492c.524-.327.929-.932,1.472-1.222.259-.143.057-.561.331-.674a2.306,2.306,0,0,1,.359-.122h.1a.191.191,0,0,1-.11-.046Z" transform="translate(-894.619 -502.261)" fill="#202020"/>
      <path id="Path_88" data-name="Path 88" d="M942.665,627.453c7.681-6.033,12.2-6,15.638-12.16,2.3-4.125,1.527-6.37,4.6-9.354,1.683-1.637,4.517-2.675,10.119-4.677,5-1.8,6.439-1.871,11.039-3.742,3.358-1.319,5.262-2.292,6.439-2.806,4.011-1.768,10.487-3.124,21.158-.935a64.559,64.559,0,0,0,6.439-23.384c.359-4.939-.083-7.8-.92-10.289-1.729-5.135-4.7-7.3-8.279-11.224-4.112-4.518-2.76-4.424-14.718-24.32-4.848-8.026-7.267-12.048-8.279-13.1-8.389-8.736-19.649-11.72-24.837-13.1a67.89,67.89,0,0,0-10.119-1.871,103.877,103.877,0,0,0,6.439,22.449c4.094,9.887,6.136,14.826,10.119,18.708,2.484,2.423,5.354,4.4,6.439,8.418,1.03,3.826-.156,7.249-.92,9.354-8.583,23.7-12.879,32.738-12.879,32.738-3.91,8.231-6.1,12.534-7.359,14.966-2.76,5.313-4.94,9.531-8.279,14.966a91.89,91.89,0,0,1-5.519,8.418c-6.347,8.119-12.8,9.223-22.078,14.966-9.622,5.949-6.66,7.212-19.318,16.837-9.935,7.558-11.793,6.8-26.677,16.837-10.846,7.315-16.273,10.972-20.238,15.9-7,8.7-4.112,10.972-12.878,24.32-5.924,9.026-9,10.663-13.8,19.643-.552,1.038-.984,1.871-1.38,2.806a109.748,109.748,0,0,0-5.06,13.1c-1.233,4.05-4.517,12.618-13.8,32.738A235.653,235.653,0,0,0,801,756.534c-5.878-36.479-16.42-46.769-23.917-85.119-.92-4.752-2.521-13.563-5.519-26.19-2.5-10.532-4.195-17.651-7.359-27.126-3.422-10.289-4.443-10.906-6.439-18.707-3.588-14.031-2.548-20.363-1.84-23.384.791-3.4,1.315-3.2,4.6-11.224,2.566-6.276,5.869-14.321,7.359-21.514,1.141-5.5,2.042-14.386-.92-26.19a33.412,33.412,0,0,0-15.638,2.806,37.032,37.032,0,0,0-13.8,11.224c-5.069,6.248-3.68,7.941-9.2,14.966-1.591,2.039-1.748,1.946-11.039,11.224-6.163,6.155-9.2,9.232-11.039,11.224-6.173,6.856-5.519,7.558-11.959,14.966-6.8,7.867-7.644,7.259-12.879,14.031-1.2,1.553,0,.131-8.279,12.16-2.76,3.975-4.158,6.033-3.68,6.548.736.8,4.664-3.573,11.039-5.612,8.675-2.806,19.088-.346,20.238,3.742.386,1.366-.58,1.8-1.84,6.548s-1.895,7.146-.92,8.418c1.84,2.4,6.835-1.132,16.558,0,5.253.608,7.359,2.058,8.279,2.806a14.816,14.816,0,0,1,4.6,7.483,22.126,22.126,0,0,1,0,13.1,23.957,23.957,0,0,1-3.68,7.483,182.3,182.3,0,0,1,17.478,24.32c3.174,5.322,5.888,10.56,11.959,15.9,4.931,4.34,6.136,3.517,10.119,7.483,5.078,5.051,4.517,7.754,11.039,18.708,5.078,8.531,5.575,7.137,9.2,14.031a176.745,176.745,0,0,1,7.359,16.837c2.088,5.191,1.84,5.032,3.68,9.354,3.532,8.493,4.222,8.8,5.519,13.1,1.637,5.378,1.582,8.241,2.76,8.418,1.5.224,3.238-4.153,4.6-7.483,3.91-9.522,8.822-18.6,12.879-28.061,4.36-10.167,6.577-15.3,8.279-17.772,5.243-7.586,8.169-7.726,13.8-14.966,7.359-9.41,4.517-11.926,11.039-21.514,6.439-9.354,14.424-14.807,23-20.578,7.745-5.219,10.238-5.547,19.318-12.16,6.743-4.911,6.044-5.219,12.879-10.289,12.327-9.139,14.626-8.147,22.078-14.966S935.941,632.737,942.665,627.453Z" transform="translate(-446.464 -496.032)" fill="#34758c"/>
      <path id="Path_89" data-name="Path 89" d="M942.446,628.1c1.334-1.038,2.7-2.011,4.121-2.909s2.888-1.73,4.379-2.591a24.615,24.615,0,0,0,4.351-3.049,16.12,16.12,0,0,0,3.238-4.34,28.212,28.212,0,0,0,1.886-4.948,9.229,9.229,0,0,1,.994-2.161,9.57,9.57,0,0,1,1.518-1.777,15.154,15.154,0,0,1,4.232-2.31c1.555-.636,3.155-1.216,4.747-1.805s3.192-1.141,4.811-1.656,3.256-1.02,4.875-1.618,3.2-1.244,4.783-1.936,3.118-1.487,4.6-2.086a27.44,27.44,0,0,1,9.779-1.712,53.456,53.456,0,0,1,10.073,1.01h0l.322.056.184-.309a59.146,59.146,0,0,0,6.439-15.471,55.743,55.743,0,0,0,1.518-8.418,29.661,29.661,0,0,0-.248-8.9,20.993,20.993,0,0,0-1.472-4.406,19.4,19.4,0,0,0-2.447-3.957c-1.886-2.395-3.882-4.219-5.519-6.183a19.786,19.786,0,0,1-2.18-2.928c-.653-1.066-1.3-2.273-1.95-3.479-1.315-2.423-2.686-4.845-4.066-7.23-2.76-4.789-5.685-9.485-8.619-14.134-1.472-2.329-2.907-4.677-4.526-7.006a17.707,17.707,0,0,0-1.5-1.871l-1.6-1.5a42.315,42.315,0,0,0-3.376-2.685,42.822,42.822,0,0,0-7.359-4.228,54.139,54.139,0,0,0-7.874-2.872,68.474,68.474,0,0,0-16.291-2.7h-.6l.1.561a104.308,104.308,0,0,0,6.154,21.71c1.435,3.47,2.833,6.95,4.406,10.364a30.578,30.578,0,0,0,6.228,9.447,52.261,52.261,0,0,1,3.946,3.882,10.749,10.749,0,0,1,2.373,4.761,12.442,12.442,0,0,1-.129,5.4,44.732,44.732,0,0,1-1.739,5.276c-2.585,7.034-5.243,14.031-8.049,20.98-1.426,3.452-2.843,6.931-4.452,10.289s-3.275,6.725-4.958,10.065c-3.413,6.651-6.844,13.292-10.827,19.587a67.623,67.623,0,0,1-6.292,9.092,30.945,30.945,0,0,1-8.491,6.679c-6.439,3.5-13.495,6.361-19.134,11.739-1.38,1.356-2.576,2.806-3.854,4.078a51,51,0,0,1-4.011,3.742,95.252,95.252,0,0,1-18.251,12.291c-3.256,1.8-6.439,3.742-9.613,5.743s-6.228,4.088-9.328,6.155-6.182,4.172-9.153,6.548a43.027,43.027,0,0,0-4.268,3.891c-.662.711-1.315,1.45-1.9,2.207l-.92,1.141-.855,1.188a31.314,31.314,0,0,0-2.87,5.163c-.782,1.805-1.4,3.573-2.1,5.257a58.761,58.761,0,0,1-5.078,9.616,92.027,92.027,0,0,1-6.439,8.9,79.139,79.139,0,0,0-6.807,9.195c-1,1.656-1.941,3.3-2.824,5.06s-1.61,3.47-2.355,5.238-1.444,3.526-2.1,5.322-1.251,3.741-1.84,5.35c-1.223,3.433-2.677,6.866-4.149,10.289-2.962,6.828-6.117,13.61-9.309,20.363l4.7.935q-.3-8.7-1.223-17.379c-.865-5.734.451-11.823.184-17.772a116.25,116.25,0,0,0-2.7-17.679c-1.3-5.837-2.971-11.542-4.37-17.192s-2.686-11.224-4.167-16.509c-.359-1.338-.736-2.656-1.141-3.975s-.773-2.628-1.2-3.929c-.837-2.61-1.647-5.229-2.41-7.866s-1.5-5.294-2.134-7.988l-1-4.031-.92-4.19c-1.325-5.668-2.76-11.365-4.259-17.005l-2.355-8.418c-.791-2.806-1.591-5.612-2.447-8.418-1.7-5.612-3.68-11.327-5.832-16.837-1.067-2.741-2.3-5.565-3.477-8.175a65.716,65.716,0,0,1-2.916-7.361,74.234,74.234,0,0,1-3.5-15.49,24.648,24.648,0,0,1,.276-7.118,9.932,9.932,0,0,1,.4-1.478c.193-.552.469-1.216.736-1.871.552-1.375,1.085-2.806,1.582-4.162.993-2.806,1.9-5.472,2.806-8.269s1.739-5.612,2.474-8.465a72.3,72.3,0,0,0,1.775-8.783,54.471,54.471,0,0,0,.377-8.98,61.794,61.794,0,0,0-3.348-17.23h0l-.423-.355c.138-2.806,0-.767,0-1.384l-1.842-1.117a12.95,12.95,0,0,0-2.754.561c-1.607.383-3.825.918-3.825.918s-4.911,1.508-7.4,2.612a36.4,36.4,0,0,0-12.879,9.775,44.33,44.33,0,0,0-4.8,6.548c-.681,1.2-1.251,2.451-1.794,3.62a36.234,36.234,0,0,1-1.739,3.377,36.658,36.658,0,0,1-2.116,3.143,23.179,23.179,0,0,1-2.373,2.815l-5.519,5.528-11.039,11.1a92.718,92.718,0,0,0-10.238,12.038c-1.527,2.086-3.146,4.078-4.839,6.033s-3.431,3.872-5.243,5.687-3.79,3.592-5.519,5.612q-1.316,1.5-2.539,3.077c-.4.486-.856,1.122-1.205,1.656l-1.141,1.646c-1.463,2.161-2.934,4.321-4.434,6.454s-2.99,4.247-4.48,6.548a14.622,14.622,0,0,0-1.086,1.871,4.356,4.356,0,0,0-.248.748,1.986,1.986,0,0,0-.046.664,1.783,1.783,0,0,0,.451,1.094,1.828,1.828,0,0,0,1.168.571,1.866,1.866,0,0,0,.718-.075,3.288,3.288,0,0,0,.736-.29,19.677,19.677,0,0,0,1.84-1.113l1.6-1.048a26.873,26.873,0,0,1,6.642-3.162,24.2,24.2,0,0,1,7.194-1.02A21.545,21.545,0,0,1,694.6,612.2a9.2,9.2,0,0,1,2.861,1.534,2.8,2.8,0,0,1,.745.935.945.945,0,0,1,.092.281,1.044,1.044,0,0,1-.073.243l-.718,1.758c-.258.645-.488,1.31-.7,1.964-.423,1.347-.745,2.591-1.1,3.882a26.24,26.24,0,0,0-.865,4.2,8.323,8.323,0,0,0,0,1.356,4.889,4.889,0,0,0,.488,1.665,4.083,4.083,0,0,0,1.279,1.45,4.32,4.32,0,0,0,1.647.673,9.049,9.049,0,0,0,2.511,0c.717-.075,1.38-.178,2.024-.271,1.279-.2,2.493-.374,3.68-.477a31.994,31.994,0,0,1,7.267.178,15.636,15.636,0,0,1,6.366,2.02,9.041,9.041,0,0,1,2.162,2.17,12.053,12.053,0,0,1,1.5,2.918c.2.543.386,1.113.579,1.73a14.445,14.445,0,0,1,.423,1.674,17.789,17.789,0,0,1,.359,3.423A21.013,21.013,0,0,1,724,652.4a21.287,21.287,0,0,1-3.21,6.136l-1.288,1.712,1.408,1.73a51.582,51.582,0,0,1,3.348,4.677c1.039,1.618,2.042,3.255,3.109,4.836s2.245,3.068,3.376,4.6,2.226,3.077,3.3,4.677,2.134,3.143,3.164,4.742l3.137,4.911a52.246,52.246,0,0,0,7.7,9.485,42.954,42.954,0,0,0,4.738,3.938,47.638,47.638,0,0,0,5.142,3.059,20.625,20.625,0,0,1,4.121,3.255,20.069,20.069,0,0,1,3.256,4.228c.92,1.59,1.84,3.358,2.76,5.079s1.923,3.442,2.953,5.107a88.874,88.874,0,0,0,6.715,9.653,36.89,36.89,0,0,1,3.376,4.621c1,1.637,1.95,3.33,2.833,5.051,1.748,3.461,3.293,7.025,4.811,10.607.754,1.8,1.527,3.583,2.245,5.388s1.4,3.629,2.162,5.425c1.472,3.6,3.091,7.146,4.728,10.673a36.35,36.35,0,0,1,1.9,5.509c.543,1.871.855,3.807,1.4,5.678.166.44.35.982.846,1.113a1.445,1.445,0,0,0,1.242-.617,11.847,11.847,0,0,0,1.527-2.469c.856-1.749,1.555-3.564,2.318-5.35,3.017-7.184,6.568-14.105,9.852-21.149s6.081-14.339,9.576-21.28a27.459,27.459,0,0,1,3.22-4.808,36.153,36.153,0,0,1,3.956-4.209c1.417-1.31,2.888-2.563,4.268-3.929a47.881,47.881,0,0,0,3.864-4.368,43.3,43.3,0,0,0,3.3-4.836,30.984,30.984,0,0,0,2.4-5.36,56.224,56.224,0,0,1,2.07-5.425,35.434,35.434,0,0,1,2.843-5.023,52.729,52.729,0,0,1,7.359-8.858,77.137,77.137,0,0,1,8.9-7.305c3.128-2.217,6.347-4.378,9.567-6.445s6.66-3.8,9.981-5.818,6.494-4.247,9.585-6.548c1.545-1.169,3.054-2.441,4.508-3.742s2.934-2.451,4.471-3.611c3.072-2.3,6.209-4.527,9.466-6.548s6.715-3.742,9.926-6.024a50.077,50.077,0,0,0,4.535-3.742,39.6,39.6,0,0,0,4.093-4.265c1.279-1.543,2.281-3.246,3.468-4.677a26.38,26.38,0,0,1,4.13-3.789Zm-1.03-1.366a28.648,28.648,0,0,0-4.333,4.106c-1.3,1.571-2.263,3.246-3.459,4.677a37.369,37.369,0,0,1-3.91,4.134,51.132,51.132,0,0,1-4.37,3.657c-3.026,2.226-6.513,3.919-9.8,6.024s-6.439,4.321-9.53,6.669c-1.536,1.179-3.063,2.413-4.517,3.695s-2.9,2.516-4.415,3.685c-3.045,2.338-6.173,4.583-9.411,6.613s-6.678,3.816-9.926,5.94-6.439,4.3-9.549,6.548a76.115,76.115,0,0,0-8.914,7.483,53.871,53.871,0,0,0-7.359,9.064,36.478,36.478,0,0,0-2.833,5.135,56.547,56.547,0,0,0-2.033,5.5,31.128,31.128,0,0,1-2.309,5.3,43.834,43.834,0,0,1-3.21,4.8,46.055,46.055,0,0,1-3.79,4.368c-1.352,1.375-2.806,2.638-4.222,3.966a38.409,38.409,0,0,0-3.946,4.284,29.615,29.615,0,0,0-3.2,4.883c-3.477,6.969-6.2,14.274-9.493,21.317s-6.789,14.031-9.779,21.2c-.754,1.787-1.444,3.611-2.291,5.36a11.431,11.431,0,0,1-1.518,2.469,1.409,1.409,0,0,1-1.233.617c-.488-.122-.681-.664-.837-1.1-.552-1.871-.865-3.8-1.407-5.678a36.343,36.343,0,0,0-1.895-5.509c-1.638-3.536-3.22-7.081-4.664-10.7-.718-1.805-1.352-3.648-2.051-5.463l-2.088-5.463c-1.407-3.62-2.76-7.277-4.379-10.841-.791-1.8-1.628-3.554-2.548-5.294a38.6,38.6,0,0,0-3.174-4.986,75.4,75.4,0,0,1-5.9-9.849c-.92-1.712-1.7-3.451-2.484-5.2s-1.49-3.554-2.373-5.4a23.649,23.649,0,0,0-3.4-5.285,30.7,30.7,0,0,0-2.134-2.263,21.164,21.164,0,0,0-2.475-2.048,43.58,43.58,0,0,1-4.553-3.237,41.716,41.716,0,0,1-3.882-3.807,47.313,47.313,0,0,1-6.246-9.017c-1.84-3.321-3.772-6.875-5.851-10.224q-1.555-2.507-3.22-4.986a59.218,59.218,0,0,0-3.459-4.817c-1.26-1.525-2.622-2.965-4-4.368s-2.76-2.806-4.02-4.331l.12,3.442a26.96,26.96,0,0,0,3.827-7.82,26.355,26.355,0,0,0,1.159-8.634,23.591,23.591,0,0,0-.58-4.387c-.156-.72-.377-1.422-.6-2.133s-.451-1.3-.727-1.983c-.524-1.408-5.924-17.318-3.082-30.708s20.431-39.158,20.431-39.158-18.338,25.53-24.672,36.483-5.376,23.726-6.642,23.637a35.474,35.474,0,0,0-8.215,0c-1.352.15-2.686.374-3.956.6-.635.112-1.26.224-1.84.3a5.594,5.594,0,0,1-1.352.066c-.248-.066-.1,0-.156,0s0-.075-.064-.215a4.194,4.194,0,0,1,0-.608,23.116,23.116,0,0,1,.653-3.526c.313-1.244.616-2.553.92-3.741.175-.589.359-1.179.57-1.758s.442-1.113.718-1.871a4.234,4.234,0,0,0,.23-1.693l17.45-29.428,18.343-21.148-20.835,19.587-17.138,27.3a12.587,12.587,0,0,0-3.992-2.048,25.975,25.975,0,0,0-8.187-1.151,27.8,27.8,0,0,0-8.1,1.3,30.217,30.217,0,0,0-7.3,3.629l-1.637,1.113a13.513,13.513,0,0,1-1.49.935l-.166.084a1,1,0,0,1,.248,0,1.141,1.141,0,0,1,1.012,1.02c0,.14,0,.168,0,.178a.389.389,0,0,1,.064-.187,12.07,12.07,0,0,1,.846-1.515c1.352-2.133,2.87-4.312,4.314-6.482l4.37-6.548,1.076-1.646c.359-.561.662-.982,1.076-1.515.791-1.02,1.591-2.02,2.419-2.984,1.638-1.946,3.514-3.667,5.381-5.612s3.6-3.863,5.3-5.874,3.358-4.078,4.894-6.23a83.881,83.881,0,0,1,9.972-11.833c3.68-3.742,7.359-7.352,11.039-11.009l5.6-5.472a25.5,25.5,0,0,0,2.677-3.077,38.463,38.463,0,0,0,2.309-3.321,36.272,36.272,0,0,0,1.932-3.573c.58-1.188,1.113-2.32,1.748-3.386a41.228,41.228,0,0,1,4.6-5.986,33.056,33.056,0,0,1,12-8.671,31.046,31.046,0,0,1,7.083-1.974,31.932,31.932,0,0,1,3.68-.355h3.615c.055-.617,0,1.384.138-1.384l-.423-.355h0a65.272,65.272,0,0,1,.626,16.9A56.7,56.7,0,0,1,762.11,549.9c-2.079,5.154-4.6,10.289-7.092,15.359-.626,1.244-1.251,2.46-1.913,3.685-.34.617-.681,1.244-1.067,2a19.343,19.343,0,0,0-.984,2.694c-.285.87-.5,1.618-.708,2.469s-.368,1.684-.5,2.526a39.928,39.928,0,0,0-.432,4.948,81.2,81.2,0,0,0,2.107,18.427c.322,1.5.69,3.021,1.122,4.565s.92,3.031,1.38,4.406c.92,2.722,1.7,5.276,2.465,7.96,1.555,5.36,2.852,10.691,3.983,16.173q.856,4.106,1.665,8.325l1.591,8.418c1.03,5.556,1.959,11.1,2.806,16.715l.653,4.265.763,4.406c.478,2.937,1.095,5.865,1.683,8.8a116.051,116.051,0,0,0,4.793,17.314c2.1,5.612,4.8,10.8,7.23,15.958a167.108,167.108,0,0,1,6.439,15.471c1.84,5.2,3.606,10.458,5.409,15.78.92,2.666,2.18,5.285,3.293,7.969a30.037,30.037,0,0,1,2.189,8.269q1.058,8.418,1.527,16.977l.552,10.2,4.149-9.242c3.063-6.856,6.1-13.722,8.969-20.7,1.426-3.5,2.824-7,4.048-10.654.616-1.871,1.076-3.582,1.7-5.341s1.233-3.461,1.923-5.173,1.408-3.433,2.153-5.051,1.647-3.236,2.557-4.8a73.309,73.309,0,0,1,6.347-8.914,96.51,96.51,0,0,0,6.531-9.354c1.012-1.609,1.959-3.283,2.852-4.976a51.222,51.222,0,0,0,2.392-5.276c.7-1.8,1.306-3.573,2-5.219a26.472,26.472,0,0,1,2.5-4.677l.754-1.1.819-1.076c.543-.72,1.113-1.384,1.711-2.048a40.012,40.012,0,0,1,3.919-3.685c2.76-2.32,5.823-4.443,8.849-6.548s6.108-4.228,9.2-6.267,6.2-3.994,9.4-5.827,6.5-3.667,9.576-5.846a108.424,108.424,0,0,0,8.9-6.912c1.426-1.235,2.76-2.544,4.112-3.919s2.511-2.806,3.781-4.1A41.981,41.981,0,0,1,919,640.918c3.174-1.871,6.513-3.414,9.8-5.276a32.766,32.766,0,0,0,8.868-7.137,70.036,70.036,0,0,0,6.356-9.354c3.956-6.4,7.359-13.1,10.671-19.821,1.665-3.367,3.275-6.753,4.866-10.139s3-6.894,4.416-10.373c2.76-6.969,5.427-14.031,7.985-21.046a44.067,44.067,0,0,0,1.757-5.406,13.443,13.443,0,0,0,.074-5.809,11.642,11.642,0,0,0-2.594-5.173,53.294,53.294,0,0,0-4.029-3.938A29.566,29.566,0,0,1,961.1,528.3c-1.573-3.377-3-6.856-4.416-10.289a103.364,103.364,0,0,1-6.053-21.514l-.5.542h0a79.383,79.383,0,0,1,7.856,1.871c2.557.786,5.161,1.609,7.626,2.582a51.328,51.328,0,0,1,13.743,7.651c1.021.814,1.978,1.684,2.907,2.582l1.325,1.375q.494.678.92,1.4c1.407,2.226,2.76,4.621,4.176,6.978,2.76,4.761,5.519,9.466,8.279,14.218,1.361,2.367,2.668,4.752,3.983,7.156.672,1.207,1.325,2.423,2.107,3.695a23.347,23.347,0,0,0,2.76,3.629c1.923,2.161,4.011,4,5.584,5.865a15.748,15.748,0,0,1,2.005,2.956,17.277,17.277,0,0,1,1.316,3.358,25.345,25.345,0,0,1,.69,7.577,60.092,60.092,0,0,1-.727,7.988,81.053,81.053,0,0,1-4.222,15.621l.506-.253h0a50.586,50.586,0,0,0-10.22-1.253,28.744,28.744,0,0,0-10.257,1.59c-1.665.627-3.146,1.412-4.71,2.058s-3.137,1.281-4.728,1.871-3.192,1.048-4.829,1.543-2.659-.346-4.268.234-3.836,2.526-5.446,3.162c-.735.258,13.6-16.9,17.082-28.789,4.378-14.949-1.736-25.6-2.539-24.962a47.233,47.233,0,0,1-1.693,26.882c-5.271,14.616-22.353,30.7-22.353,30.7-.5.788-.8,5.21-1.085,6.1-.45,1.612,1.823.484,1.085,1.983a14.455,14.455,0,0,1-2.907,3.872,22.78,22.78,0,0,1-4.047,2.806c-1.463.842-2.971,1.684-4.443,2.619s-2.815,1.974-4.195,3.031Z" transform="translate(-445.73 -496)" fill="#202020"/>
      <path id="Path_90" data-name="Path 90" d="M380.447,1016.077c2.48,1.851,29.478-14.877,51.7-37.174,25.85-25.906,37.166-51.3,47.87-75.9,14.935-34.332,20.7-63.165,19.148-63.506-2.508-.55-18.851,74.883-62.231,114.621-1.044.96-15.318,13.94-32.552,32.527C392.022,999.937,378.417,1014.559,380.447,1016.077Z" transform="translate(354.976 -478.481)" fill="#202020"/>
      <path id="Path_93" data-name="Path 93" d="M511.335,714.592c-2.539,6.089-5.069,18.09-10.119,42.092-4.25,20.176-4.6,25.339-2.76,26.19,3.753,1.749,14.792-15.5,15.638-16.837,5.915-9.354,13.136-23.908,16.558-44.9-2.051,34.534-11.112,52.072-19.318,61.735a81.236,81.236,0,0,0-9.2,12.16c-11.8,19.446-10.634,37.546-11.959,37.415-1.637-.159,1.444-27.21,3.192-32.289.285-.842.488-1.384.488-1.384,1.647-4.434,3.082-6.239,2.76-6.548-.543-.524-5.519,3.742-7.359,5.612-13.394,13.469-5.519,43.738-11.039,73.895a114.032,114.032,0,0,1-14.718,38.35A236.052,236.052,0,0,0,474.539,857.7c1.959-20.868-.524-24.694,0-47.7.552-24.254,1.591-56.122,17.478-88.861,11.959-24.638,24.883-34.609,30.357-38.35A79.226,79.226,0,0,1,543.531,672.5C524.011,688.486,515.318,705.06,511.335,714.592Z" transform="translate(66.503 -338.859) rotate(-13)" fill="#202020"/>
      <path id="Path_94" data-name="Path 94" d="M568.345,715.719c-17.019,22.83-23.83,31.238-29.147,43.8-8.806,20.809-9.106,42.835-9.789,51.674-2.364,30.5,3.965,31.288.92,56.122-4.305,35.114-17.34,36.545-23.917,74.83-2.208,12.871-6.071,36.891,1.84,65.476,3.751,13.432,4.841,37.991,4.841,37.991a44.38,44.38,0,0,0,2.433,4.1h21.937s-9.535-13.551-12.714-38.174-1.082-36.837,0-64.42,21.044-46.385,21.219-79.8c.236-44.995-9.412-53.621,0-97.052,2.235-10.313,13.338-36.7,31.137-57.161,6.7-7.7,21.708-28.374,33.778-38.868,11.958-10.4,23.075,2.425,23.075,2.425s-8.665-12.4-35.653-29.734-72.3-39.584-72.3-39.584,47.258,27.943,67.575,43.158,13.693,17.7,13.693,17.7S585.364,692.889,568.345,715.719Z" transform="matrix(0.995, -0.105, 0.105, 0.995, 54.312, -445.01)" fill="#202020"/>
      <path id="Path_95" data-name="Path 95" d="M1216.469,835.619c-10.9-11.159-14.893-21.869-16.558-28.061-2.134-7.969-2.042-14.667-1.84-28.061.285-19.39,2.567-28.856,1.84-29-1.205-.224-6.66,26.284-7.359,49.575a44.473,44.473,0,0,0,1.84,14.966c1.3,4.209,3.68,12,11.039,16.837A23.777,23.777,0,0,0,1216.469,835.619Z" transform="translate(-1125.942 -512.447)" fill="#202020"/>
      <path id="Path_96" data-name="Path 96" d="M1255.926,1041.575a261.187,261.187,0,0,1-20.238-48.639c-17.377-57.554-11.039-108.616-4.6-138.435-14.8,40.418-16.889,73.895-16.558,94.473.479,29.932,6.255,44.823,9.2,51.446A109.766,109.766,0,0,0,1255.926,1041.575Z" transform="translate(-1185.637 -519.168)" fill="#202020"/>
      <path id="Path_97" data-name="Path 97" d="M1131.125,875.5A550.88,550.88,0,0,0,1000.5,909.173c21.894-6.435,45.535-12.5,70.832-17.772,18.168-3.742,35.683-6.866,52.434-9.354l-1.84,30.867a230,230,0,0,1-76.351,13.1,260.917,260.917,0,0,0,77.271-7.483c-1.84,19.961-3.854,36.816-5.519,49.575-8.113,62.109-14.387,75.532-25.757,83.248-5.961,4.041-11.637,5.191-23,7.483a133.039,133.039,0,0,1-56.114-.935,140.579,140.579,0,0,0,39.555,5.612c14.074,0,27.735-.065,38.636-5.612,27.2-13.834,31.562-59.069,37.716-131.888C1130.169,904.712,1130.84,887.192,1131.125,875.5Z" transform="translate(-863.979 -520.525)" fill="#202020"/>
      <path id="Path_136" data-name="Path 136" d="M7.622,26.114c4.2.022,7.582-5.814,7.546-13.034S11.694-.01,7.49-.032-.092,5.782-.055,13,3.418,26.092,7.622,26.114Z" transform="translate(351.686 361.982) rotate(-161.21)" fill="#fff"/>
      <path id="Path_98" data-name="Path 98" d="M902.99,863.7a21.724,21.724,0,0,0-1.021,8.418,13.818,13.818,0,0,0,1,4.228,5.781,5.781,0,0,0,3.284,3.363,5.645,5.645,0,0,0,4.655-.23,11.535,11.535,0,0,0,3.68-2.628,19.075,19.075,0,0,0,4.324-7.6,20.969,20.969,0,0,0,.589-8.643,12.929,12.929,0,0,0-1.3-4.172,6.226,6.226,0,0,0-3.284-2.965,5.962,5.962,0,0,0-4.351.374,11.311,11.311,0,0,0-3.413,2.582A20.66,20.66,0,0,0,902.99,863.7Zm.92.309a18.778,18.778,0,0,1,4.011-6.931,10.37,10.37,0,0,1,3.118-2.329,4.412,4.412,0,0,1,6.219,2.2,9.957,9.957,0,0,1,.92,3.742,19.108,19.108,0,0,1-1.444,7.717,20.832,20.832,0,0,1-3.873,6.632,10.407,10.407,0,0,1-2.833,2.282,4.841,4.841,0,0,1-3.22.486,4.7,4.7,0,0,1-2.7-2.133,9.348,9.348,0,0,1-1.223-3.742,18.307,18.307,0,0,1,.984-7.923Z" transform="translate(-561.865 -519.086)" fill="#202020"/>
      <ellipse id="Ellipse_13" data-name="Ellipse 13" cx="8.509" cy="12.16" rx="8.509" ry="12.16" transform="translate(326.48 504.167)" fill="#fff"/>
      <path id="Path_99" data-name="Path 99" d="M916.262,1047.106a16.551,16.551,0,0,0,1.84,8.269,10.583,10.583,0,0,0,2.824,3.377,7.493,7.493,0,0,0,4.305,1.581,7.718,7.718,0,0,0,4.443-1.375,10.824,10.824,0,0,0,3.082-3.349,16.881,16.881,0,0,0-.175-16.9,10.586,10.586,0,0,0-3.054-3.236,7.035,7.035,0,0,0-8.445.215,10.4,10.4,0,0,0-2.76,3.274,15.542,15.542,0,0,0-1.5,3.966A20.608,20.608,0,0,0,916.262,1047.106Zm1.012,0a15.035,15.035,0,0,1,.423-3.957,12.953,12.953,0,0,1,1.555-3.629c1.352-2.2,3.615-3.9,6.025-3.8s4.425,1.871,5.611,4.05a15.73,15.73,0,0,1-.166,14.555,7.119,7.119,0,0,1-5.446,3.872c-2.263.131-4.471-1.469-5.832-3.629a14.9,14.9,0,0,1-2.171-7.464Z" transform="translate(-590.288 -530.779)" fill="#202020"/>
      <path id="Path_100" data-name="Path 100" d="M828.406,709.56c-2.383,3.536-3.477,9.045-1.38,10.757,1.122.935,2.815.468,4.6,0a14.039,14.039,0,0,0,9.2-7.483c.92-2.077,2.511-7.053.46-8.886C838.819,701.75,831.745,704.612,828.406,709.56Z" transform="translate(-414.535 -509.39)" fill="#fff"/>
      <path id="Path_101" data-name="Path 101" d="M827.888,709.232a15.925,15.925,0,0,0-2.594,6.389,7.918,7.918,0,0,0,.147,3.639,3.161,3.161,0,0,0,3.146,2.31,13.257,13.257,0,0,0,3.459-.589,16.532,16.532,0,0,0,3.211-1.3A13.877,13.877,0,0,0,840.417,715a16.789,16.789,0,0,0,2.346-6.548,7.471,7.471,0,0,0-.248-3.657,3.105,3.105,0,0,0-1.26-1.581,4.01,4.01,0,0,0-1.84-.608,8.6,8.6,0,0,0-3.477.533,16.967,16.967,0,0,0-3.073,1.487,23.379,23.379,0,0,0-2.723,2.086,18.774,18.774,0,0,0-2.254,2.516Zm.828.58a13.887,13.887,0,0,1,4.664-4.349,10.584,10.584,0,0,1,5.915-1.665,2.183,2.183,0,0,1,1.987,1.45,6.272,6.272,0,0,1,.074,2.965,16.656,16.656,0,0,1-2.263,5.883,14.554,14.554,0,0,1-10.487,5.949,1.749,1.749,0,0,1-1.84-1.263,6.8,6.8,0,0,1-.212-2.984A14.821,14.821,0,0,1,828.716,709.812Z" transform="translate(-414.432 -509.351)" fill="#202020"/>
      <path id="Path_102" data-name="Path 102" d="M927.319,733.648a286.268,286.268,0,0,1,8.849,38.893,262.574,262.574,0,0,1,3,39.632c0,1.656,0,3.311-.055,4.958s-.046,3.311-.12,4.967c-.129,3.3-.359,6.548-.616,9.906s-.534,6.651-.837,9.952l-.441,4.967-.552,4.948c-.184,1.646-.35,3.3-.561,4.948l-.653,4.929c-.386,3.3-.92,6.548-1.426,9.84-1.1,6.548-2.291,13.1-3.68,19.577s-2.76,13.1-3.91,19.718-2.107,13.366-2.677,20.1c-1.049,13.5-.92,26.939-.69,40.333q.212,10.046.7,20.092c.313,6.7.754,13.367,1,20.026.5,13.338.4,26.7-.147,40.053l.92.056q1.647-20.017,1.453-40.156c-.064-6.716-.3-13.4-.432-20.073s-.166-13.348-.11-20.026.184-13.339.46-20l.23-4.976.34-4.967c.184-3.311.589-6.594.92-9.9.8-6.548,1.84-13.1,3.128-19.577s2.861-12.964,4.278-19.521,2.76-13.179,3.79-19.83,1.95-13.348,2.548-20.054l.488-5.023.441-4.985c.267-3.358.506-6.7.708-10.046s.35-6.744.4-10.13v-5.07c0-1.693,0-3.377-.064-5.06a233.071,233.071,0,0,0-15.767-78.824Z" transform="translate(-605.438 -511.337)" fill="#202020"/>
      <path id="Path_103" data-name="Path 103" d="M1114.257,841.983a21.021,21.021,0,0,1-7.359-3.742,20.8,20.8,0,0,1-3.68-3.742,40.106,40.106,0,0,1-14.718,14.966Z" transform="translate(-928.061 -517.875)" fill="#fff"/>
      <path id="Path_104" data-name="Path 104" d="M1116.916,841.921a1.755,1.755,0,0,0-.506-.861,1.424,1.424,0,0,0-.46-.309l-.212-.075h0l-.377-.131-.754-.281c-.5-.178-.984-.393-1.472-.608a26.4,26.4,0,0,1-2.861-1.431,24.971,24.971,0,0,1-5.142-4.041h0l-.442-.505-.313.561a39.8,39.8,0,0,1-14.544,14.788h0l-2.594,1.4,2.953-.552c2.245-.421,4.508-.935,6.835-1.478s4.664-1.188,7-1.871,4.655-1.459,6.927-2.236l3.376-1.179,1.674-.589C1116.483,842.313,1116.925,842.108,1116.916,841.921Zm-2.318,0a21.62,21.62,0,0,0-2.245.355l-1.546.346-3.063.692c-2.014.477-3.992.935-5.952,1.506s-3.9,1.169-5.878,1.871-3.992,1.44-6.044,2.264l.359.851h0a40.713,40.713,0,0,0,14.875-15.134l-.754.056h0a19.069,19.069,0,0,0,7.727,7.146c.533.262,1.095.477,1.647.692.285.1.57.187.856.271l.423.122h-.055a.779.779,0,0,1-.258-.243.835.835,0,0,1-.092-.776Z" transform="translate(-929.561 -517.822)" fill="#202020"/>
      <path id="Path_105" data-name="Path 105" d="M1115.177,844.5l-26.677,7.483v23.384c.2.748,2.162,7.8,7.359,9.354,5.7,1.7,14.176-3.545,16.558-14.031Z" transform="translate(-928.981 -518.522)" fill="#275d70"/>
      <path id="Path_106" data-name="Path 106" d="M1115.047,844.092c-8.978,2.4-18.085,4.845-27.091,7.39l-.34.094v23.861h0a19.215,19.215,0,0,0,1.582,4.443,13.619,13.619,0,0,0,2.852,3.882,9.192,9.192,0,0,0,2.07,1.422,10.769,10.769,0,0,0,1.187.458,11.319,11.319,0,0,0,1.242.281,10.575,10.575,0,0,0,4.931-.486,15.255,15.255,0,0,0,4.323-2.282,20.194,20.194,0,0,0,3.477-3.414,23.759,23.759,0,0,0,4.185-8.746v-.187c.552-4.574,1.049-9.242,1.407-13.89.166-2.32.294-4.621.4-6.884l.156-3.349.073-1.656V843.8C1115.645,843.634,1115.562,843.606,1115.047,844.092Zm-.589.711c-.543.767-.662,1-.653,1.113l-.073.412-.129.814-.276,1.618-.533,3.2c-.35,2.1-.681,4.172-.975,6.211-.561,4.078-.984,8.138-1.352,12.3v-.187a20.921,20.921,0,0,1-3.348,7.782,17.662,17.662,0,0,1-2.87,3.068,15.081,15.081,0,0,1-3.542,2.123,7.259,7.259,0,0,1-7.58-.833,15.7,15.7,0,0,1-4.6-7.23h0V851.931l-.34.449c8.785-2.451,17.469-4.986,26.272-7.577Z" transform="translate(-928.556 -518.469)" fill="#202020"/>
      <path id="Path_107" data-name="Path 107" d="M1212.575,791.87q-4.995,15.967-9.015,32.242c-2.686,10.85-4.968,21.794-7.047,32.794-.524,2.75-.92,5.509-1.435,8.269s-.92,5.519-1.325,8.287l-1.242,8.306-1.095,8.334c-.727,5.556-1.224,11.131-1.84,16.706-.285,2.806-.478,5.612-.718,8.418s-.5,5.612-.644,8.418c-.3,5.612-.69,11.224-.819,16.837l-.276,8.418-.1,8.418c0,2.806-.11,5.612-.055,8.418l.156,8.418.083,4.2.2,4.2.423,8.418c.644,11.225,1.84,22.355,3.348,33.449a331.451,331.451,0,0,0,6.172,32.991h0l.837-.327c-3.68-7.221-7.414-14.424-10.836-21.747-1.72-3.657-3.413-7.324-5.013-11.037s-3.22-7.4-4.728-11.14-3.008-7.483-4.406-11.224-2.76-7.586-4.075-11.383c-.635-1.917-1.316-3.807-1.932-5.734l-1.84-5.753c-1.159-3.863-2.3-7.726-3.385-11.608-2.189-7.764-4.038-15.611-5.768-23.5s-3.082-15.845-4.323-23.833a479.051,479.051,0,0,1-4.636-48.63h-.92a274.292,274.292,0,0,0,.782,49.079,298.013,298.013,0,0,0,9.043,48.359c2.079,7.951,4.682,15.742,7.433,23.469,1.38,3.854,2.9,7.67,4.461,11.458.754,1.871,1.582,3.742,2.392,5.612s1.665,3.742,2.521,5.612a257.513,257.513,0,0,0,24.5,42.316l.92,1.3-.092-1.628h0c-.69-11.159-1.463-22.262-2.079-33.365s-1.1-22.178-1.417-33.262-.515-22.159-.46-33.243v-8.315l.212-8.306c.083-5.547.46-11.075.671-16.612.092-2.806.313-5.537.469-8.306s.313-5.537.543-8.3c.469-5.519.837-11.056,1.453-16.565.92-11.056,2.4-22.066,3.882-33.065s3.349-21.953,5.3-32.906,4.2-21.841,6.55-32.738Z" transform="translate(-1079.715 -515.12)" fill="#202020"/>
    </g>
    <path id="Path_144" data-name="Path 144" d="M158,0c55.847,0,108.738,22.558,136.935,76.167,15.709,29.867,66.826,50.86,66.826,89.234.8,3.063.669,8.414-.537,14.523-9.055,43.347-80.175,161.512-150.792,201.349C193.7,390.709,173.331,386,158,386c-22.38,0-33.336-9.8-38.851-24.2-2.532-6.61-2.182-15.9-4.412-22.943-7.942-12.55-9.872-17.57-18.387-35.319-2.413-7.542-8.182-31.582-8.182-31.582s-3.264-.128-6.765-.554c-5.33-4.579-8.746-8.6-11.177-14.413-.885-2.107-2.331-4.6-2.55-7.858-2.58-8.875-7.017-20.179-11.089-32.223-2.079-6.149-5.3-13.451-5.3-18.854,0-7.464,2.7-17.215,9.246-21.423a8.867,8.867,0,0,1,7.138,0c3.081,1.432,5.811,5.153,5.863,3.824C77.193,87.067,78.854,0,158,0Z" transform="translate(199.316 94.437)" fill="#fff"/>
    <g id="Layer_5" data-name="Layer 5" transform="translate(249.812 112.818)">
      <path id="Path_109" data-name="Path 109" d="M778.759,441.893c-7.462-9.569-11.894-20.272-16.752-31.44-2.466-5.563-4.105-12.006-5.928-17.82-1.824-5.833-2.641-11.41-3.808-17.415h0l-.055-.271-.248-.084c-1.536-.52-2.905.762-5.34,0-1.9-.592-4.86-3.236-6.108-4.357a19.549,19.549,0,0,1-3.211-3.741,29.393,29.393,0,0,1-2.291-4.415c-1.315-3.077-2.336-6.3-3.367-9.522l-3.026-9.709-3.118-9.69-1.564-4.845c-.534-1.609-1.113-3.208-1.674-4.808-2.235-6.389-4.719-12.721-5.97-19.287a34.337,34.337,0,0,1-.524-9.878,21.549,21.549,0,0,1,1.058-4.77,23.332,23.332,0,0,1,2.061-4.4,12.811,12.811,0,0,1,3.192-3.433,9.518,9.518,0,0,1,5.335-1.384,14.61,14.61,0,0,1,4.2,1.384c2.632,1.129,4.475,6.581,5.213,6.057,1.51-1.119.146-4.487,0-7.441-.583-3.164.2-6.748,0-8.6-.53-7.094.128-16.3,0-23.139-.055-3.423-7.9-28.068-7.145-31.975a51.982,51.982,0,0,1,3.56-11.486,104.426,104.426,0,0,1,12.308-20.7,187.972,187.972,0,0,1,15.886-18.446,129.173,129.173,0,0,1,18.251-15.9,136.7,136.7,0,0,1,43.576-20.092,153.909,153.909,0,0,1,47.678-5.117,132.875,132.875,0,0,1,46.63,10.682,105.476,105.476,0,0,1,20.753,12.029,88.159,88.159,0,0,1,17.138,16.771,87.049,87.049,0,0,1,11.784,21.008,169.415,169.415,0,0,1,7.1,23.328c3.541,14.931,36.578,61.642,36.765,62.628,3.063,16.163-14.411,20.866-13.151,37.2.627,8.152-6.211,13.542-6.4,21.717a186.007,186.007,0,0,1-2.291,24.32,149.323,149.323,0,0,1-15.39,46.077,158.336,158.336,0,0,1-29.253,38.64,177.444,177.444,0,0,1-18.527,15.667c-3.275,2.376-6.6,4.677-10.018,6.828s-6.918,4.237-10.4,6.314a163.233,163.233,0,0,1-21.48,11.112,89.545,89.545,0,0,1-11.407,3.742,71.352,71.352,0,0,1-23.789,1.815,80.636,80.636,0,0,1-11.821-1.992,88.062,88.062,0,0,1-22.243-9.111C800.938,465.951,788.9,454.642,778.759,441.893Zm-1.085.935c10.119,12.9,22.225,24.441,36.419,32.738A89.71,89.71,0,0,0,836.731,485a80.428,80.428,0,0,0,12.106,2.133,78.231,78.231,0,0,0,12.3.178,79.8,79.8,0,0,0,12.161-1.871,91.62,91.62,0,0,0,11.72-3.741,166.089,166.089,0,0,0,21.866-11.112c3.514-2.067,7.019-4.116,10.5-6.286s6.872-4.462,10.211-6.847a180.186,180.186,0,0,0,18.9-15.78A160.567,160.567,0,0,0,976.454,402.4a152.14,152.14,0,0,0,15.96-46.974,183.932,183.932,0,0,0,2.392-24.8c.21-8.293,4.812-11.917,4.185-20.188-1.26-16.528,18.4-23.255,15.415-39.456s-33-46.689-36.838-62.8a173.358,173.358,0,0,0-7.359-23.8,90.307,90.307,0,0,0-12.152-21.776c-10.238-13.245-24.138-23.122-39.188-29.707A136.161,136.161,0,0,0,871.145,122.1a157.092,157.092,0,0,0-48.58,5.313,139.151,139.151,0,0,0-44.376,20.775,132.29,132.29,0,0,0-18.536,16.285,192.472,192.472,0,0,0-16.015,18.782,107.859,107.859,0,0,0-12.63,21.373,55.1,55.1,0,0,0-3.68,12.038c-.782,4.2,8.706,28.85,8.779,32.218.164,6.743-1.078,19.237-1.144,20.961a47.77,47.77,0,0,1-.911,10.782,6.613,6.613,0,0,1-2.428-.893,7.92,7.92,0,0,0-4.2-.96,15.638,15.638,0,0,0-6.448,1.853,14.594,14.594,0,0,0-3.624,3.957,17.966,17.966,0,0,0-1.233,2.357,25.636,25.636,0,0,0-.92,2.432,23.157,23.157,0,0,0-1.1,5.163,36.247,36.247,0,0,0,.625,10.373c1.362,6.791,3.919,13.1,6.2,19.484.579,1.59,1.168,3.171,1.711,4.78l1.6,4.817,3.192,9.634,3.109,9.681c1.058,3.227,2.116,6.463,3.486,9.606a29.7,29.7,0,0,0,2.346,4.527,20.3,20.3,0,0,0,3.4,3.882c1.723,1.526,3.22,3.359,6.176,4.479s4.573-.352,5.649,0l-.3-.355h0c1.129,6.039,1.916,11.65,3.716,17.518s3.453,12.371,5.928,17.988,3.946,10.648,7,15.961c3.049,5.335,5.956,11.1,9.742,15.918Z" transform="translate(-713.964 -121.922)" fill="#202020"/>
      <path id="Path_110" data-name="Path 110" d="M886.89,315.032c1.426-14.1,10.294-23.45,18.4-23.384,6.439.056,11.582,6.089,11.959,6.548,3.6,4.349,4.121,9.139,4.6,14.031.248,2.554.561,7.96-1.84,18.707-2.824,12.628-4.452,19.933-10.119,27.126-4.921,6.248-7.148,5.126-11.959,12.16-5.207,7.614-4.342,11.468-8.279,14.966-3.183,2.806-9.263,5.2-22.078,1.871a123.131,123.131,0,0,1-4.6,19.643c-5.078,15.724-9.282,17.772-12.879,29-4.351,13.582-2.9,25.255-.92,41.156s2.953,23.712,7.359,29.932c3.44,4.864,12.879,15.611,15.638,23.384a16.806,16.806,0,0,1,.92,7.483,15.906,15.906,0,0,1-1.84,5.612c-5.142,9.765-7.276,24.619-10.119,24.32-1.84-.2-.92-6.548-4.6-8.418-4.084-2.03-10.634,2.965-12.879,4.677-5.271,4.013-7.166,8-8.279,7.483-1.656-.767,3.4-9.2.92-15.9-2.346-6.323-10.239-7.923-27.6-12.16-25.757-6.3-38.81-9.522-45.075-13.1-12.115-6.912-12.741-11.776-23.917-14.966-11.811-3.367-14.645,1.057-24.837-2.806-2.852-1.076-4.682-2.2-23.917-19.643-12.078-10.953-13.651-12.59-15.638-14.966-8.224-9.831-13.89-20.747-12.879-21.514.414-.309,1.84,1.169,9.2,8.418,8.408,8.231,12.639,12.394,14.718,14.031a56.675,56.675,0,0,0,17.938,9.821c7.414,2.385,13.228,2.366,22.538,2.338,9.043,0,13.559,0,18.4-1.871,9.3-3.536,14.847-10.645,17.478-14.031,2.484-3.19,1.84-3.1,9.2-15.9,4.664-8.072,7-12.1,9.2-14.966,5.823-7.567,8.518-7.792,13.8-14.031A60.043,60.043,0,0,0,805.939,409.5c4.287-12.59,1.711-17.117,4.6-32.738a116.677,116.677,0,0,1,7.359-24.32,72.963,72.963,0,0,1-25.757-11.225,158.743,158.743,0,0,1,16.1-4.209c8.454-1.74,13.679-2.076,17.478-6.548.3-.355.4-.514,2.76-4.677,4.176-7.38,6.264-11.075,7.359-13.1,5.667-10.457,8.5-15.686,9.2-17.772,5.188-15.555-2.76-28.117.92-29.932,1.9-.935,4.25,2.329,18.858,13.563,6.145,4.724,5.621,3.938,7.359,5.612,10.763,10.355,11.4,13.56,15.591,14.823a19.835,19.835,0,0,1,2.089,2.161s-2.333,5.089-2.55,6.052C886.667,309.641,886.866,312.507,886.89,315.032Z" transform="translate(-593.583 -131.158)" fill="#202020"/>
      <path id="Path_111" data-name="Path 111" d="M854.956,258.252c1.15-2.282-14.718-14.031-14.718-14.031s-4.306-2.43-11.63-7.483-6.768-2.965-10.447-15.9c-5.271-18.792-4.146-39.511-15.12-47.715-2.881-2.15-9.828-8.23-18.569-10.685-4.476-1.257-16.627-5.233-29.963-6.161-5.556-.386-9.116-1.927-18.74-2.8-10.539-.956-25.5.949-25.5.949s2.182-.049,6.021.1a141.067,141.067,0,0,1,17.222,1.75c14.154,2.363,30,5.273,39.764,7.791,18.02,4.645,17.679,8.518,21.3,11.746,8.73,7.764,6.321,23,7.949,28.187.414,1.319.589,7.137.92,18.708.276,9.466.3,11.552,1.84,14.031,2.447,3.957,5.455,3.62,13.8,7.483,13.136,6.071,15.813,11.571,27.6,14.031C849.456,258.832,854.175,259.814,854.956,258.252Z" transform="translate(-573.688 -120.953)" fill="#202020"/>
      <path id="Path_112" data-name="Path 112" d="M898.492,364c.414-.889-4.673-5.1-11.039-6.548-2.465-.561-7.295-1.665-9.2.935a5.437,5.437,0,0,0,0,5.612,6.341,6.341,0,0,0,4.6,2.806c.913.167,6.831-2.56,10.078-1.231C896.8,367.153,898.124,364.774,898.492,364Z" transform="translate(-768.007 -137.097)" fill="#202020" stroke="#202020" stroke-miterlimit="10" stroke-width="1"/>
      <path id="Path_113" data-name="Path 113" d="M844.552,364.619c-.763-2.067,7.019-6.6,10.119-8.418,5.391-3.152,9.475-5.472,11.959-3.742,1.9,1.319,1.84,4.321,1.84,4.677-.083,4.509-4.848,7.128-5.519,7.483-2.051,1.085-5.078,1.048-11.039.935C845.012,365.423,844.663,364.909,844.552,364.619Z" transform="translate(-707.627 -136.783)" fill="#202020" stroke="#202020" stroke-miterlimit="10" stroke-width="1"/>
      <path id="Path_114" data-name="Path 114" d="M920.965,404.431c-1.03-2.264-2.677-3.657-15.638-9.354-19.106-8.418-19.695-7.193-25.757-11.225-8.279-5.5-9.254-9.111-14.718-9.354-5.694-.253-7.8,3.526-14.718,2.806-5.409-.561-5.915-3.059-10.119-2.806-4.5.262-6.255,3.255-12.879,8.418-5.133,4-9.346,6.323-16.558,10.289-10.809,5.949-13.568,5.753-15.638,9.354-1.84,3.143-2.76,8.605,1.84,18.707,1.481-8.25,4.783-12.581,7.359-14.966,6.044-5.612,10.478-2.741,21.158-9.354,6.872-4.256,8.021-7.287,12.879-7.483,5-.2,6.044,2.928,11.959,2.806,5.519-.112,6.706-2.918,11.959-2.806,3.091.065,4.489,1.085,10.119,3.741,6.908,3.264,3.606,1.169,20.238,8.418,8.61,3.741,10.5,4.752,12.879,6.548,2.99,2.254,6.936,5.3,8.279,10.289,1.288,4.761-.635,8.185,0,8.418C914.912,427.347,925.1,413.588,920.965,404.431Z" transform="translate(-714.128 -138.244)" fill="#202020" stroke="#202020" stroke-miterlimit="10" stroke-width="1"/>
      <path id="Path_115" data-name="Path 115" d="M906.169,414.463c-8.408,1.469-13.927-.084-17.478-1.871-.92-.477-1.343-.767-11.039-7.483-5.271-3.648-7.93-5.472-9.2-5.612-6.237-.664-8.279,6.08-14.718,5.612-4.691-.337-5.05-4.022-10.119-4.677-3.4-.44-4.084,1.113-13.8,5.612-9.2,4.265-13.522,5.145-17.478,10.289a22.09,22.09,0,0,0-1.84,2.806,32.082,32.082,0,0,1,8.279-2.806c3.339-.636,4.82-.355,8.279-.935,5.326-.889,5.74-2.207,9.2-2.806,7.267-1.253,8.721,3.994,16.558,3.742,6.586-.215,7.129-3.975,13.8-3.742,2.3.075,1.61.505,11.959,3.742,7.221,2.254,10.193,2.872,13.8,2.806a24.284,24.284,0,0,0,6.439-.935,23.19,23.19,0,0,0,7.359-3.742Z" transform="translate(-714.051 -139.858)" fill="#202020" stroke="#202020" stroke-miterlimit="10" stroke-width="1"/>
      <path id="Path_116" data-name="Path 116" d="M860.568,425.867c-12.625,3.953-13.67,6.331-21.054,7.646a48.675,48.675,0,0,1-15.79,0,81.3,81.3,0,0,1-10.527-2.294,40.137,40.137,0,0,0,13.039,6.881c7.151,1.942,16.535.8,20.888,0,8.166-1.529,10.436-4.457,11.188-3.058.105.2.068.413-1.5,3.823-1.361,2.951-1.722,3.632-1.5,3.823s.992-.145,4.511-3.058a66.712,66.712,0,0,0,5.263-4.587c2.459-2.569,7.4-8.685,6.015-10.7C870.666,423.71,869.365,423.114,860.568,425.867Z" transform="translate(-690.682 -140.432)" fill="#202020" stroke="#202020" stroke-miterlimit="10" stroke-width="1"/>
      <path id="Path_140" data-name="Path 140" d="M844.8,439.531s7.882-4.347,15.764-4.347,15.481,4.347,15.481,4.347a59.978,59.978,0,0,0-15.481-2.34A63.579,63.579,0,0,0,844.8,439.531Z" transform="translate(-722.671 -124.432)" fill="#202020" stroke="#202020" stroke-miterlimit="10" stroke-width="1"/>
      <path id="Path_117" data-name="Path 117" d="M823.728,364.3a17.511,17.511,0,0,0,11.039-8.418,16.8,16.8,0,0,0,1.84-10.289c-.635-3.957-2.548-5.612-6.439-11.224a124.776,124.776,0,0,1-8.279-14.031c-4.333-8.83-5.887-16.706-5.519-16.837s2.309,7.483,8.279,16.837a60.155,60.155,0,0,0,10.119,12.16c4.4,4.013,7.359,6.707,11.959,7.483,2.622.44,4.057,0,4.6.935,1.131,1.992-3.569,6.632-10.119,13.1-5.519,5.416-8.132,7.165-11.039,8.418A26.911,26.911,0,0,1,823.728,364.3Z" transform="translate(-664.726 -133.657)" fill="#202020" stroke="#202020" stroke-miterlimit="10" stroke-width="1"/>
      <path id="Path_118" data-name="Path 118" d="M1012.411,306.982c-.865-4.172-3.919-7.174-7.359-7.483a7.809,7.809,0,0,0-5.519,1.871c-1.039.935-2.171,2.488-2.76,6.548-.386,2.675-.754,7.951,1.84,15.9a62.015,62.015,0,0,0,4.6,10.289c3.68,7.025,7.874,13.329,8.279,13.1s-3.036-5.753-6.439-14.966c-3.082-8.334-7.028-19.334-2.76-24.32l.34-.384a7.942,7.942,0,0,1,4.259-2.423,7.028,7.028,0,0,1,5.519,1.871Z" transform="translate(-991.393 -133.397)" fill="#202020" stroke="#202020" stroke-miterlimit="10" stroke-width="1"/>
      <path id="Path_137" data-name="Path 137" d="M996.5,306.982c.868-4.172,3.935-7.174,7.389-7.483a7.861,7.861,0,0,1,5.542,1.871c1.044.935,2.18,2.488,2.771,6.548.388,2.675.757,7.951-1.847,15.9a61.887,61.887,0,0,1-4.618,10.289c-3.695,7.025-7.906,13.329-8.313,13.1s3.048-5.753,6.465-14.966c3.094-8.334,7.056-19.334,2.771-24.32l-.342-.384a7.983,7.983,0,0,0-4.276-2.423,7.074,7.074,0,0,0-5.542,1.871Z" transform="translate(-688.482 -129.397)" fill="#fff" stroke="#202020" stroke-miterlimit="10" stroke-width="1"/>
      <path id="Path_119" data-name="Path 119" d="M980.439,312.5c-.69.065,0,5.781-.92,15.9-.8,8.961-1.84,10.009-.92,14.031,1.177,5.266,3.293,5.116,4.6,11.224.156.748.414,4.256.92,11.224.4,5.491.46,6.548.92,8.418a24.083,24.083,0,0,0,3.68,8.418c.736,1.038,2.907,4.116,3.68,3.742,1.067-.524-1.656-7.1-3.68-15.9-1.049-4.546-1.619-10.2-2.76-21.514-1.095-10.86-1.242-15.368-2.76-24.32C982.739,320.844,981.276,312.416,980.439,312.5Z" transform="translate(-954.822 -134.238)" fill="#202020" stroke="#202020" stroke-miterlimit="10" stroke-width="1"/>
      <path id="Path_138" data-name="Path 138" d="M980.131,312.5c-.593.056,0,4.924-.791,13.546-.688,7.634-1.582,8.526-.791,11.953,1.012,4.486,2.831,4.359,3.954,9.562.134.637.356,3.626.791,9.562.34,4.678.4,5.578.791,7.172a20.423,20.423,0,0,0,3.164,7.172c.633.884,13.846,9.862,12.106,2.364-.9-3.873-8.943-11.647-9.924-21.281-.941-9.251-5.316-11.434-6.621-19.06C982.415,331.035,980.85,312.428,980.131,312.5Z" transform="matrix(-0.755, -0.656, 0.656, -0.755, 807.386, 1130.408)" fill="#fff" stroke="#202020" stroke-miterlimit="10" stroke-width="1"/>
      <path id="Path_121" data-name="Path 121" d="M939.061,574.939c-.285-.14-1.159.655-3.68,4.677,2.484-7.221,2.76-14.031,0-15.9-3.183-2.17-11.232,1.674-18.4,11.224,2.622-7.941,1.343-12.459,0-14.966-5.087-9.531-19.143-5.435-49.674-14.031a173.906,173.906,0,0,1-26.677-9.354c-12.087-5.472-13.559-7.96-22.078-10.289a47.432,47.432,0,0,0-7.874-1.506c-10.248-1.038-18.766-.711-18.8-1.3,0-.421,4.25-.412,4.6-1.871.524-2.179-8.1-6.043-9.2-6.548-7.985-3.667-22.6-15.48-51.514-49.575,3.072,15.9,3.818,25.367,3.882,31.129,0,0,.064,8.652.718,14.7.607,5.612.984,8.418,1.187,9.906a47.187,47.187,0,0,1,.653,6c.92,27.266-12.934,35.2-13.8,57.058-.294,7.483,1.527,1.73,13.8,43.963,4.765,16.406,7.69,28.286,15.638,44.9,3.68,7.792,3.569,6.2,7.359,14.031,5.345,11.047,13.8,28.94,16.558,52.381a134.153,134.153,0,0,1,0,30.867c3.312-7.726,6.182-14.105,8.279-18.707,6.494-14.236,9.668-21.411,13.8-28.061,3.68-5.874,5.63-8.119,10.119-15.9,5.943-10.289,5.234-11.159,8.279-15.9,1.895-2.946,5.345-7.548,31.276-24.32,13.863-8.961,12.952-7.7,17.478-11.225,11.443-8.914,13.219-13.862,22.077-17.772a49.89,49.89,0,0,0,10.119-5.612,56.47,56.47,0,0,0,6.439-5.612C920.093,616.563,940.892,575.856,939.061,574.939Z" transform="translate(-671.511 -144.126)" fill="#fff"/>
      <path id="Path_122" data-name="Path 122" d="M939.781,574.346a.652.652,0,0,0-.57,0,.913.913,0,0,0-.258.15,2.2,2.2,0,0,0-.34.3,6.34,6.34,0,0,0-.524.608c-.322.412-.626.823-.92,1.244-.58.851-1.122,1.7-1.674,2.554h0l.819.4a34.5,34.5,0,0,0,1.978-9.859,14.969,14.969,0,0,0-.138-2.563,7.575,7.575,0,0,0-.764-2.526,3.788,3.788,0,0,0-1.987-1.871,5.8,5.8,0,0,0-2.64-.215,13.447,13.447,0,0,0-4.728,1.758,30.784,30.784,0,0,0-4.094,2.872,45.584,45.584,0,0,0-6.8,7.287h0l.763.412a29.827,29.827,0,0,0,1.5-7.418A15.024,15.024,0,0,0,918.053,560a11.219,11.219,0,0,0-2.235-3.115,12.014,12.014,0,0,0-3.137-2.161,28.47,28.47,0,0,0-7.138-2.114c-4.848-.935-9.714-1.431-14.553-2.208s-9.65-1.646-14.424-2.741-9.493-2.441-14.2-3.816-9.346-2.937-13.909-4.733a146.475,146.475,0,0,1-13.4-6.052c-4.36-2.245-8.518-4.986-13.274-6.548a53.164,53.164,0,0,0-7.175-1.871,69.836,69.836,0,0,0-7.359-.833q-3.67-.267-7.359-.4l-3.68-.14-1.84-.084a9,9,0,0,1-1.711-.2h0a.321.321,0,0,1,.11.318c-.074.215-.129.168-.12.187h.046a2.94,2.94,0,0,1,.386-.094l.92-.168a12.235,12.235,0,0,0,1.84-.449,3.436,3.436,0,0,0,.92-.458,1.388,1.388,0,0,0,.635-1.066,1.892,1.892,0,0,0-.368-1.113,4.92,4.92,0,0,0-.662-.767,18.265,18.265,0,0,0-3.082-2.2c-1.076-.627-2.171-1.207-3.284-1.749a52.3,52.3,0,0,1-12.382-7.8,223.076,223.076,0,0,1-21.342-20.457c-6.743-7.221-13.265-14.667-19.649-22.224l-1.168-1.384.359,1.908c1.224,6.492,2.3,13.011,3.026,19.568.359,3.274.625,6.548.718,9.849s.092,6.622.248,9.934c.074,1.656.175,3.311.322,4.976s.359,3.3.534,4.948c.386,3.283.754,6.6,1.214,9.85a65.974,65.974,0,0,1-1.463,19.465c-1.509,6.37-4.25,12.328-6.89,18.4s-4.875,12.534-5.391,19.287a28.728,28.728,0,0,0-.166,5.145,10.958,10.958,0,0,0,.6,2.647c.294.814.6,1.59.92,2.357,1.251,3.049,2.41,6.108,3.514,9.2,2.162,6.211,4.14,12.5,6.016,18.829s3.68,12.665,5.418,19.044,3.68,12.759,5.933,19.026q3.417,9.4,7.755,18.408c.727,1.506,1.518,3.031,2.337,4.471s1.545,2.806,2.263,4.293c1.426,2.9,2.76,5.949,4.075,8.933s2.53,6.024,3.68,9.073a78.473,78.473,0,0,1,2.971,9.3c.764,3.171,1.343,6.37,1.84,9.569s1.085,6.342,1.739,9.485a130.075,130.075,0,0,1,1.582,38.35l-2.521,23.843,9.558-21.916c3.146-7.24,6.228-14.48,9.438-21.719s6.375-14.517,9.962-21.261c1.84-3.358,3.873-6.548,6.053-9.878s4.314-6.838,6.246-10.336q1.481-2.638,2.852-5.36c.92-1.805,1.775-3.741,2.548-5.528a30.309,30.309,0,0,1,2.548-4.827,18.17,18.17,0,0,1,1.545-2.039c.589-.655,1.224-1.31,1.9-1.946a104.878,104.878,0,0,1,8.877-7.268c3.109-2.329,6.3-4.583,9.5-6.81,6.439-4.424,12.952-8.811,19.566-12.918.828-.524,1.674-1.038,2.539-1.609s1.711-1.188,2.511-1.815c1.582-1.244,3.109-2.516,4.6-3.835,3.017-2.628,5.832-5.519,8.592-8.231a37.711,37.711,0,0,1,4.278-3.741,28.158,28.158,0,0,1,4.811-2.806,57.368,57.368,0,0,0,5.372-2.657,47.068,47.068,0,0,0,5.078-3.311l.175-.15c-.184.178-.083.075-.055.065l.11-.084.221-.178.432-.337.856-.692c.561-.468,1.122-.935,1.665-1.44q1.647-1.459,3.164-3.059a59.824,59.824,0,0,0,5.4-6.959c3.266-4.8,6.209-9.775,9.052-14.816s5.519-10.14,8.077-15.321c1.279-2.591,2.53-5.2,3.68-7.838.589-1.328,1.159-2.656,1.693-4.013.267-.673.524-1.356.754-2.058.11-.355.221-.711.3-1.085a3.8,3.8,0,0,0,.11-.6,1.671,1.671,0,0,0,0-.374A.733.733,0,0,0,939.781,574.346Zm-.423.86c-.2-.112-.147-.187-.156-.15a1.392,1.392,0,0,1,0,.178,3.51,3.51,0,0,1-.1.458,10.253,10.253,0,0,1-.313.992c-.23.664-.5,1.328-.782,1.983-.552,1.319-1.15,2.619-1.775,3.919-1.233,2.582-2.539,5.145-3.882,7.689q-4.011,7.633-8.426,15.031c-2.944,4.92-6,9.784-9.328,14.4a58.293,58.293,0,0,1-5.317,6.548q-1.472,1.469-3.091,2.806c-.534.458-1.076.935-1.619,1.328l-1.84,1.4.175-.15a45.679,45.679,0,0,1-4.866,2.984,53.613,53.613,0,0,1-5.225,2.413,30.654,30.654,0,0,0-5.418,2.965,43.162,43.162,0,0,0-4.756,3.863c-2.925,2.722-5.685,5.407-8.684,7.857-1.481,1.225-3.008,2.423-4.554,3.564a45.958,45.958,0,0,1-4.793,3.04c-6.835,3.966-13.477,8.175-20.1,12.45-3.3,2.17-6.6,4.331-9.843,6.641a108.085,108.085,0,0,0-9.549,7.436c-.773.7-1.527,1.44-2.272,2.236a22.194,22.194,0,0,0-2.1,2.619c-.616.935-1.168,1.777-1.7,2.731s-1.012,1.927-1.435,2.806c-.846,1.824-1.647,3.489-2.557,5.191s-1.84,3.386-2.842,5.06c-1.978,3.367-4.029,6.594-6.265,9.8a120.5,120.5,0,0,0-6.586,10.177q-2.98,5.36-5.519,10.766l-5.059,10.785c-3.33,7.184-6.568,14.47-9.861,21.71l7,2.03a137.627,137.627,0,0,0-1.03-40.708A59.6,59.6,0,0,0,782.3,720.2c-1.1-3.218-2.474-6.333-3.772-9.447s-2.557-6.2-3.864-9.288-2.76-6.1-4.185-9.092-2.962-5.912-4.508-8.9c-.773-1.478-1.628-2.974-2.484-4.378s-1.61-2.806-2.364-4.228a167.941,167.941,0,0,1-7.966-17.912c-2.327-6.117-4.268-12.394-6.145-18.708S737,588.47,737.177,586.889c.414-6.548,3.429-17.828,6.432-30.21,1.214-3.124,2.23-9.361,3.025-12.621,1.445-6.555.555-11.723,0-18.417-.5-3.293-1.456-23.491-3.025-26.8-.784-2.291-5.616-27.029-6.885-33.576l-.828.412c6.439,7.483,12.943,14.966,19.732,22.206a223.886,223.886,0,0,0,21.452,20.5,53.384,53.384,0,0,0,12.547,7.885c1.1.533,2.18,1.1,3.238,1.712a17.18,17.18,0,0,1,2.934,2.077,2.272,2.272,0,0,1,.782,1.244c-.018.309-.488.636-1.021.8a11.155,11.155,0,0,1-1.729.421l-.92.168a4.366,4.366,0,0,0-.5.131l-.175.075a.551.551,0,0,0-.267.355.508.508,0,0,0,.221.5.779.779,0,0,0,.193.1,4.956,4.956,0,0,0,1,.168l.92.065,1.84.084,3.68.131c2.447.094,4.894.215,7.359.393a69.086,69.086,0,0,1,7.267.8,52.7,52.7,0,0,1,7.074,1.805c4.6,1.478,8.776,4.237,13.182,6.445s8.9,4.265,13.477,6.061,9.263,3.349,13.982,4.733,9.447,2.7,14.24,3.8,9.613,2.049,14.461,2.806,9.732,1.356,14.525,2.245a28.242,28.242,0,0,1,6.936,2.086,11.126,11.126,0,0,1,2.916,2.021,10.761,10.761,0,0,1,2.07,2.9,14.24,14.24,0,0,1,1.233,7.062,28.835,28.835,0,0,1-1.481,7.184l-.754,2.339,1.518-1.927h0a44.588,44.588,0,0,1,6.669-7.128,28.915,28.915,0,0,1,3.965-2.806,12.743,12.743,0,0,1,4.415-1.646,4.8,4.8,0,0,1,2.2.168,2.872,2.872,0,0,1,1.518,1.44,9.788,9.788,0,0,1,.782,4.621,33.326,33.326,0,0,1-1.932,9.578l-1.233,3.657,2.051-3.246h0c.534-.861,1.076-1.7,1.647-2.516a12.382,12.382,0,0,1,.92-1.188,6.366,6.366,0,0,1,.46-.524,2.149,2.149,0,0,1,.23-.206h.055a.272.272,0,0,1-.221.019Z" transform="translate(-672.02 -144.001)" fill="#202020"/>
      <path id="Path_123" data-name="Path 123" d="M886.5,507.5c0,13.685,2.024,41.6,19.778,68.75a117.183,117.183,0,0,0,20.7,23.852" transform="translate(-804.769 -146.84)" fill="#fff"/>
      <path id="Path_124" data-name="Path 124" d="M886.729,507.5a104.182,104.182,0,0,0,1.223,26.19,114.312,114.312,0,0,0,3.008,12.862,109.014,109.014,0,0,0,4.6,12.394,101.177,101.177,0,0,0,5.979,11.758A104.926,104.926,0,0,0,908.9,581.61a100.165,100.165,0,0,0,18.4,18.446,142.525,142.525,0,0,1-16.558-19.83c-2.456-3.526-4.6-7.24-6.724-10.963-.984-1.871-2.051-3.742-2.925-5.724l-1.389-2.9c-.451-.935-.846-1.974-1.279-2.956s-.865-1.955-1.223-2.965l-1.122-3.021c-.791-1.992-1.408-4.05-2.116-6.08-1.205-4.116-2.447-8.241-3.33-12.459s-1.739-8.418-2.364-12.74S887.134,511.859,886.729,507.5Z" transform="translate(-804.998 -146.84)" fill="#202020"/>
      <path id="Path_125" data-name="Path 125" d="M809.595,534.53c-1.472,3.274-2.925,6.548-4.5,9.69s-2.99,6.417-4.737,9.485-3.321,6.239-5.262,9.2a88.744,88.744,0,0,1-6.347,8.54,69.392,69.392,0,0,0,7.194-7.913,78.856,78.856,0,0,0,6.1-8.867,64.564,64.564,0,0,0,4.6-9.765A75.981,75.981,0,0,0,809.595,534.53Z" transform="translate(-597.469 -148.587)" fill="#202020"/>
    </g>
    <g id="Layer_4" data-name="Layer 4" transform="translate(263.119 229.192)">
      <path id="Path_126" data-name="Path 126" d="M978.555,297.991c.92-.655,1.084-3.177,1.709-7.723.718-5.2,1.223-8.9,0-13.1a21.67,21.67,0,0,0-8.279-11.225c-4.388-1.712-11.177-4.5-19.318-8.418-5.749-2.806-9.2-4.677-11.039-5.612-4.393-2.257-3.881-1.529-8.728-2.806L907.3,245.4s-31.167-2.009-47.541,3.706c-8.04,2.806-10.119,4.677-18.4,6.548a79.067,79.067,0,0,1-28.517.935c-7.276-1.085-10.045-2.544-17.478-4.677-10.726-3.087-28.94-8.325-48.754-5.612-9.079,1.244-22.179,4.677-31.277,5.612a43.069,43.069,0,0,0-5.519.935,44.262,44.262,0,0,0-10.119,3.742l.92,13.1,3.68,3.742a9.816,9.816,0,0,1,2.76,1.871,10.915,10.915,0,0,1,2.76,4.677c2.566,8.175,5.74,34.459,14.718,45.833,9.686,12.272,29.565,11.533,37.716,11.224,6.246-.234,15.638-.589,24.837-6.548s18.333-17.557,22.078-30.867c1.315-4.677,3.321-14.358,9.2-19.643,3.275-2.937,5.878-2.806,6.439-2.806,2.245.15,3.91,1.609,5.317,2.806,8.739,7.679,7.019,18.184,14,30.867,4.6,8.315,6.89,12.478,9.2,14.966,15.749,16.968,41.7,14.592,47.835,14.031,7.359-.673,14.406-1.412,21.158-6.548,6.513-4.957,9.291-11.355,12.879-19.643a89.113,89.113,0,0,0,6.439-25.255,94.783,94.783,0,0,0,0-20.578C967.3,295.047,975.979,299.871,978.555,297.991Z" transform="translate(-701.263 -244.153)" fill="#202020"/>
      <path id="Path_127" data-name="Path 127" d="M978.673,298.111a2.506,2.506,0,0,0,.773-1.094,7.922,7.922,0,0,0,.5-1.1c.184-.739.4-1.324.516-2.062.221-1.459.174-3.09.376-4.549a38.809,38.809,0,0,0,.5-8.9,19.154,19.154,0,0,0-2.962-8.418,24.051,24.051,0,0,0-6.145-6.407h-.055q-8.178-3.19-16.153-6.9c-2.668-1.216-5.271-2.572-7.883-3.9s-5.207-2.685-7.883-3.947c-5.355-2.5-11.431-2.593-17.215-3.725a113.484,113.484,0,0,0-17.478-2.039c-2.934-.131-5.869-.159-8.794-.187s-5.869,0-8.794.178c-5.878.279-11.582.141-17.336,1.394s-11.064,2.208-16.494,4.492a86.246,86.246,0,0,1-8.159,3.19,66.024,66.024,0,0,1-8.509,1.955,79.287,79.287,0,0,1-17.423.935,66.334,66.334,0,0,1-17.138-3.105c-11.158-3.573-22.519-6.819-34.22-8.091a93.834,93.834,0,0,0-17.607-.346,142.849,142.849,0,0,0-17.377,2.806c-5.74,1.15-11.471,2.395-17.248,3.115a45.578,45.578,0,0,0-16.944,4.845l-.267.14v.3l.92,13.1v.168l.12.122,3.68,3.741.064.065h.074a9.191,9.191,0,0,1,4.241,3.9,11.905,11.905,0,0,1,1.113,2.806c.285.935.534,1.974.764,2.974.92,4.022,1.693,8.1,2.576,12.16s1.84,8.091,2.99,12.094a81.631,81.631,0,0,0,4.259,11.739,29.667,29.667,0,0,0,1.426,2.806l.745,1.281a13.455,13.455,0,0,0,.92,1.31l.92,1.31,1.058,1.179c.359.393.69.814,1.076,1.169l1.187,1.048a31.378,31.378,0,0,0,10.993,5.874c7.966,2.432,16.347,2.628,24.488,2.3a60.931,60.931,0,0,0,12.29-1.366,39.341,39.341,0,0,0,11.591-4.677,54,54,0,0,0,17.349-17.875,59.965,59.965,0,0,0,5.4-11.4c.313-1.01.653-2.02.92-3.031l.828-2.993c.552-1.974,1.15-3.919,1.84-5.8,1.435-3.741,3.348-7.333,6.209-9.831a8.93,8.93,0,0,1,4.7-2.348c1.555-.178,3.072.645,4.526,1.927a21.517,21.517,0,0,1,6.531,9.485c1.389,3.741,2.291,7.792,3.588,11.8a58.72,58.72,0,0,0,2.226,5.958l.653,1.459.727,1.422c.478.935.984,1.871,1.472,2.759,2.015,3.629,3.91,7.277,6.283,10.85A25.081,25.081,0,0,0,852,326.79c.764.776,1.527,1.506,2.3,2.254.386.365.754.767,1.159,1.1l1.26.991,1.26.991a10.7,10.7,0,0,0,1.306.935l2.751,1.693c.92.524,1.84.935,2.824,1.469a25.676,25.676,0,0,0,2.888,1.281,31.578,31.578,0,0,0,2.962,1.123,58.9,58.9,0,0,0,12.244,2.759,81.674,81.674,0,0,0,12.465.552c2.07-.075,4.158-.206,6.191-.4s4.1-.384,6.182-.692a34.427,34.427,0,0,0,12.189-3.91,30.311,30.311,0,0,0,9.668-8.662,60.732,60.732,0,0,0,6.035-11.224l1.251-2.853c.423-.935.819-1.964,1.2-2.956.736-1.983,1.38-4,1.959-6.033a78.109,78.109,0,0,0,2.364-12.412,109.174,109.174,0,0,0-.35-25.059l-.791.383q4.213,4.378,8.509,8.671c2.852,2.872,5.722,5.734,8.675,8.512s5.943,5.509,9.116,8.044a46.209,46.209,0,0,0,4.986,3.517,16.133,16.133,0,0,0,2.76,1.347,5.957,5.957,0,0,0,1.591.337A2.724,2.724,0,0,0,978.673,298.111Zm-.636-.878a2.677,2.677,0,0,1-2.39.111A14.893,14.893,0,0,1,973,296.091a45.039,45.039,0,0,1-4.921-3.4c-3.164-2.479-6.182-5.163-9.135-7.913s-5.832-5.612-8.665-8.484-5.584-5.855-8.334-8.83l-.92-.991.129,1.375a83.207,83.207,0,0,1-1.472,24.507c-.414,2-.837,3.994-1.361,5.958s-1.049,3.929-1.656,5.865-1.242,3.854-1.959,5.743c-.359.935-.727,1.871-1.122,2.806l-1.224,2.806a57.822,57.822,0,0,1-5.611,10.579,26.7,26.7,0,0,1-8.509,7.67,30.853,30.853,0,0,1-11.039,3.545c-1.959.3-3.956.505-5.979.692s-3.992.337-6,.412a77.054,77.054,0,0,1-11.959-.477,56.3,56.3,0,0,1-11.6-2.572,28.951,28.951,0,0,1-2.76-1.029,25.062,25.062,0,0,1-2.7-1.2c-.92-.449-1.775-.87-2.631-1.347l-2.493-1.571a8.512,8.512,0,0,1-1.205-.851l-1.168-.935-1.168-.935c-.386-.309-.718-.673-1.085-1l-2.116-2.039a21.825,21.825,0,0,1-1.775-2.254c-2.217-3.274-4.186-6.94-6.209-10.523-.506-.935-1.021-1.805-1.472-2.685l-.69-1.328-.626-1.366a55.97,55.97,0,0,1-2.18-5.612c-1.288-3.844-2.208-7.895-3.744-11.907a24.5,24.5,0,0,0-7.442-10.56,12.4,12.4,0,0,0-2.87-1.871,6.925,6.925,0,0,0-3.68-.6,11.5,11.5,0,0,0-6.117,3.031c-3.33,2.993-5.335,6.978-6.807,10.925a58.851,58.851,0,0,0-1.84,6.033l-.791,3c-.267.982-.57,1.946-.865,2.909a57.179,57.179,0,0,1-5.069,11.009,52.007,52.007,0,0,1-16.466,17.4,37.364,37.364,0,0,1-11.039,4.555,59.26,59.26,0,0,1-11.959,1.459,100.983,100.983,0,0,1-12.133,0,54,54,0,0,1-11.784-1.974,29.831,29.831,0,0,1-10.551-5.528L727.1,327.6c-.377-.327-.681-.73-1.03-1.094l-1-1.1-.92-1.235c-.285-.412-.6-.8-.855-1.235l-.754-1.319a28.8,28.8,0,0,1-1.407-2.7,80.668,80.668,0,0,1-4.268-11.533c-1.168-3.947-2.143-7.96-3.045-11.992s-1.72-8.091-2.668-12.16c-.248-1.01-.5-2.02-.8-3.031a12.354,12.354,0,0,0-1.223-2.965,10.18,10.18,0,0,0-4.692-4.275l.129.094-3.68-3.742.138.29-.92-13.1-.248.44a44.507,44.507,0,0,1,16.641-4.78c5.85-.739,11.582-1.992,17.313-3.152a143.563,143.563,0,0,1,17.276-2.806,92.991,92.991,0,0,1,17.478.318c11.618,1.244,22.933,4.471,34.036,8.016a67.475,67.475,0,0,0,17.331,3.124,80.752,80.752,0,0,0,17.579-.935,68.245,68.245,0,0,0,8.6-1.992,86.774,86.774,0,0,0,8.224-3.208c5.4-2.255,10.678-3.184,16.383-4.427s11.361-1.086,17.189-1.356c2.916-.15,5.832-.187,8.748-.159s5.851.056,8.767.187a113.762,113.762,0,0,1,17.359,2.048c5.711,1.132,11.715,1.212,17,3.679,2.631,1.244,5.243,2.647,7.865,3.957s5.225,2.694,7.9,3.91q7.985,3.741,16.2,6.959l-.1-.056a22.82,22.82,0,0,1,5.906,6.173,18.212,18.212,0,0,1,2.824,8.035,37.946,37.946,0,0,1-.506,8.69c-.2,1.45-.4,2.909-.626,4.359a19.9,19.9,0,0,1-.363,1.987,3.585,3.585,0,0,1-.844,1.719Z" transform="translate(-701.245 -244.13)" fill="#fff"/>
      <path id="Path_128" data-name="Path 128" d="M801.434,287a86.483,86.483,0,0,1-9.2,31.8c-3.937,7.548-7.046,10.476-9.2,12.16-6.7,5.229-14.12,6.061-18.4,6.548A46.013,46.013,0,0,1,749,336.575a42.822,42.822,0,0,0,25.757-5.612c6.329-3.8,9.972-8.418,12.879-12.16a72.881,72.881,0,0,0,13.8-31.8Z" transform="translate(-568.048 -248.965)" fill="#f5f5f5"/>
      <path id="Path_129" data-name="Path 129" d="M944.434,282a86.482,86.482,0,0,1-9.2,31.8c-3.937,7.548-7.046,10.476-9.2,12.16-6.7,5.229-14.12,6.061-18.4,6.548A46.013,46.013,0,0,1,892,331.575a42.822,42.822,0,0,0,25.757-5.612c6.329-3.8,9.972-8.418,12.879-12.16a72.88,72.88,0,0,0,13.8-31.8Z" transform="translate(-839.594 -246.642)" fill="#f5f5f5"/>
      <path id="Path_130" data-name="Path 130" d="M909.618,364.707a12.333,12.333,0,0,1-3.68-6.548c-.543-2.928.524-5.818,1.711-9.307.736-2.17,1.159-2.806,1.049-2.853-.386-.224-6.844,6.454-5.519,12.16C904.025,361.779,907.723,363.828,909.618,364.707Z" transform="translate(-814.896 -249.778)" fill="#202020"/>
    </g>
    <g id="Layer_3" data-name="Layer 3" transform="translate(242.28 -0.002)">
      <path id="Path_131" data-name="Path 131" d="M966.992,264.328c-.7-8.718,6.872-22.739,18.4-74.83,2.235-10.111,3.946-19.531,7.359-38.35,4.894-27,5.289-32.5,2.76-39.286-3.818-10.289-8.886-8.858-22.078-27.126-11.305-15.649-7.865-17.043-15.638-24.32-7.111-6.66-10.8-6.248-31.276-19.643-8.353-5.463-6.669-4.827-11.039-7.483-10.68-6.482-19.437-9.466-39.556-15.9-16.687-5.332-25.04-8.007-26.677-8.418-18.847-4.762-78.405,7.649-79.3,8.418-8.932,7.651-15.8,9.712-29.244,12.1-6.688,1.188-16.043.474-23,3.8-7.359,3.526-8.093,1.566-19.228,10.4s-17.453,17.93-19.89,25.749c-4.33,13.891-3.286,26.412-1.861,31.2,4.793,16.107,10.7,29,20.741,39.286,4.278,4.387-.572,9.941,1.01,18.575.5,2.784,4.821,3.162,4.474.994-.469-2.643,7.83-3.671,6.475-5.976-1.5-2.733-.6-3.827-2.76-6.06-2.042-2.2-3.413-3.8-5.519-6.249-1.131-1.31-4.268-3.16-5.9-5.3-1.435-1.871-2.8-2.852-3.409-3.787-1.388-2.084-4.352-4.886-5.413-7.161-.258-.533-1.453-3.021-2.76-6.548-.644-1.74-1.131-3.246-1.84-5.612-1.38-4.574-6.292-16.837-8.279-12.16s-5.841,6.3-9.2,9.354c-6.439,5.874-9.539,12.515-11.959,17.772-5.74,12.459-5.639,23.889-5.519,29.932a72.278,72.278,0,0,0,4.6,25.255c.776,2.01,7.033,25.616,12.879,38.35,3.759,12.546,14.624,77.28,15.17,77.7,1.472,8.1,6.913-2.922,4.148-25.317-1.6-12.989-7.3-24.557-4.148-39.286,2.178-10.182,3.506-9.849,6.907-13.1,8.1-7.73,14.766-50.732,16.523-54.352,2.781-5.723,6.22-9.873,13.587-11.93a228.969,228.969,0,0,1,24.164-5.742,367.391,367.391,0,0,1,53.354-4.677c32.693-.571,24.138,1.519,48.814,4.589s35.92,7.586,43.034,14.04c10.276,7.4,10.8,27.158,13.02,39.364,1.6,8.821,2.521,13.844,5.519,18.707,4.066,6.548,9.767,7.37,17.126,13.45s7.6,5.138,12.924,9.909c9.429,8.418,10.7,10.156,12.265,14.056.534,1.338,2.274,9.595,1.56,15.508s-.491,4.529-1.294,6.8,2.428,4.209,3.307,3.452c.5-.422,2.155-3.595,5-6.464a23.246,23.246,0,0,1,5.775-3.792,11.346,11.346,0,0,1,4.568-1.207S967.084,265.432,966.992,264.328Z" transform="translate(-646.835 -1.308)" fill="#202020"/>
      <path id="Path_132" data-name="Path 132" d="M762,133.473a41.528,41.528,0,0,0,19.334-20.578c6.686-15.134,5.432-30.821,4.989-35.544C784.14,53.9,772.24,41.2,770.108,39a76.8,76.8,0,0,1,11.85,43.027c-.252,11.5-1.176,24.837-5.794,34.03C772.4,123.384,762,133.473,762,133.473Z" transform="translate(-516.768 -84.471) rotate(7)" fill="#616161"/>
      <path id="Path_141" data-name="Path 141" d="M762,133.473a41.528,41.528,0,0,0,19.334-20.578c6.686-15.134,5.432-30.821,4.989-35.544C784.14,53.9,772.24,41.2,770.108,39a76.8,76.8,0,0,1,11.85,43.027c-.252,11.5-1.176,24.837-5.794,34.03C772.4,123.384,762,133.473,762,133.473Z" transform="matrix(0.921, 0.391, -0.391, 0.921, -413.797, -272.454)" fill="#616161"/>
      <path id="Path_142" data-name="Path 142" d="M782.022,133.473s-10.248-5.444-15.665-20.578-4.4-30.821-4.043-35.544C764.084,53.9,773.725,41.2,775.453,39a90,90,0,0,0-9.6,43.027c.2,11.5.953,24.837,4.695,34.03,3.051,7.327,11.475,17.416,11.475,17.416Z" transform="translate(1082.392 340.072) rotate(-172)" fill="#616161"/>
      <path id="Path_139" data-name="Path 139" d="M911.494,56.232c6.151-15.3,23.782-28.9,23.782-28.9s-12.477,12.942-16.5,31.137c-1.7,7.667-4.423,18.707-3.36,26.042,1.407,9.712,4.13,21.492,15.121,34.723s28.843,18.2,28.843,18.2-6.3.91-9.8,2.52A16.761,16.761,0,0,0,943.7,145a81.672,81.672,0,0,1-21.842-19.882c-7.936-10.588-13.945-25.894-15.121-34.163C904.588,75.879,910.2,58.917,911.494,56.232Z" transform="translate(-884.152 15.181)" fill="#616161"/>
      <path id="Path_143" data-name="Path 143" d="M909.953,91.593c-2.584-13.4-3.177-24.167,3.617-41.324s23.56-27.3,23.56-27.3-12.467,11.193-17.735,27.3A85.626,85.626,0,0,0,916.058,87.4c2.458,22.866,15.716,47.005,16.63,75.109a153.8,153.8,0,0,0-4.7-19.725c-1.888-6.082-2.425-7.257-5.354-15.21C918.322,115.865,910.683,95.377,909.953,91.593Z" transform="translate(-910.76 78.158)" fill="#616161"/>
    </g>
  </g>
</svg>
